<svg version="1.1" viewBox="0.0 0.0 600.0 371.0" fill="none" stroke="none" stroke-linecap="square" stroke-miterlimit="10" width="600" height="371" xmlns:xlink="http://www.w3.org/1999/xlink" xmlns="http://www.w3.org/2000/svg"><path fill="#ffffff" d="M0 0L600.0 0L600.0 371.0L0 371.0L0 0Z" fill-rule="nonzero"/><path stroke="#333333" stroke-width="1.0" stroke-linecap="butt" d="M77.5 332.5L581.5 332.5" fill-rule="nonzero"/><path stroke="#cccccc" stroke-width="1.0" stroke-linecap="butt" d="M77.5 251.5L581.5 251.5" fill-rule="nonzero"/><path stroke="#cccccc" stroke-width="1.0" stroke-linecap="butt" d="M77.5 169.5L581.5 169.5" fill-rule="nonzero"/><path stroke="#cccccc" stroke-width="1.0" stroke-linecap="butt" d="M77.5 88.5L581.5 88.5" fill-rule="nonzero"/><clipPath id="id_0"><path d="M77.55 88.28333L581.45 88.28333L581.45 332.45L77.55 332.45L77.55 88.28333Z" clip-rule="nonzero"/></clipPath><path stroke="#000000" stroke-width="2.0" stroke-linecap="butt" stroke-opacity="0.0" clip-path="url(#id_0)" d="M329.0 332.0L210.0 332.0L210.0 144.0C210.0 142.89543 210.89543 142.0 212.0 142.0L327.0 142.0C328.10458 142.0 329.0 142.89543 329.0 144.0Z" fill-rule="nonzero"/><path fill="#4285f4" clip-path="url(#id_0)" d="M329.0 332.0L210.0 332.0L210.0 144.0C210.0 142.89543 210.89543 142.0 212.0 142.0L327.0 142.0C328.10458 142.0 329.0 142.89543 329.0 144.0Z" fill-rule="nonzero"/><path stroke="#000000" stroke-width="2.0" stroke-linecap="butt" stroke-opacity="0.0" clip-path="url(#id_0)" d="M450.0 332.0L331.0 332.0L331.0 95.0C331.0 93.89543 331.89542 93.0 333.0 93.0L448.0 93.0C449.10458 93.0 450.0 93.89543 450.0 95.0Z" fill-rule="nonzero"/><path fill="#ea4335" clip-path="url(#id_0)" d="M450.0 332.0L331.0 332.0L331.0 95.0C331.0 93.89543 331.89542 93.0 333.0 93.0L448.0 93.0C449.10458 93.0 450.0 93.89543 450.0 95.0Z" fill-rule="nonzero"/><path fill="#000000" d="M26.534388 248.80417L26.831263 247.67917Q28.221888 248.03854 28.956263 248.96042Q29.690638 249.8823 29.690638 251.22604Q29.690638 252.61667 29.128138 253.49167Q28.565638 254.36667 27.503138 254.8198Q26.425013 255.27292 25.190638 255.27292Q23.846888 255.27292 22.846888 254.7573Q21.846888 254.24167 21.331263 253.30417Q20.815638 252.35104 20.815638 251.21042Q20.815638 249.92917 21.471888 249.05417Q22.128138 248.16354 23.315638 247.8198L23.581263 248.9448Q22.643763 249.24167 22.221888 249.8198Q21.784388 250.3823 21.784388 251.24167Q21.784388 252.22604 22.268763 252.89792Q22.737513 253.55417 23.534388 253.83542Q24.331263 254.10104 25.190638 254.10104Q26.284388 254.10104 27.096888 253.78854Q27.909388 253.46042 28.315638 252.78854Q28.721888 252.11667 28.721888 251.3198Q28.721888 250.36667 28.175013 249.71042Q27.628138 249.03854 26.534388 248.80417ZM29.550013 245.9448L20.956263 245.9448L20.956263 242.6948Q20.956263 241.85104 21.034388 241.39792Q21.143763 240.7573 21.440638 240.33542Q21.737513 239.89792 22.268763 239.64792Q22.800013 239.3823 23.440638 239.3823Q24.534388 239.3823 25.300013 240.08542Q26.050013 240.77292 26.050013 242.60104L26.050013 244.80417L29.550013 244.80417L29.550013 245.9448ZM25.050013 244.80417L25.050013 242.58542Q25.050013 241.47604 24.643763 241.02292Q24.221888 240.55417 23.471888 240.55417Q22.940638 240.55417 22.565638 240.83542Q22.175013 241.10104 22.050013 241.53854Q21.971888 241.83542 21.971888 242.60104L21.971888 244.80417L25.050013 244.80417ZM20.956263 232.30417L20.956263 231.16354L25.925013 231.16354Q27.221888 231.16354 27.987513 231.46042Q28.737513 231.7573 29.221888 232.52292Q29.690638 233.28854 29.690638 234.52292Q29.690638 235.72604 29.284388 236.5073Q28.862513 237.27292 28.081263 237.60104Q27.284388 237.92917 25.925013 237.92917L20.956263 237.92917L20.956263 236.78854L25.909388 236.78854Q27.034388 236.78854 27.565638 236.58542Q28.096888 236.36667 28.393763 235.86667Q28.675013 235.35104 28.675013 234.61667Q28.675013 233.36667 28.112513 232.83542Q27.534388 232.30417 25.909388 232.30417L20.956263 232.30417ZM29.550013 221.99167L28.628138 221.99167Q29.690638 222.72604 29.690638 223.97604Q29.690638 224.52292 29.487513 225.0073Q29.268763 225.47604 28.956263 225.71042Q28.628138 225.9448 28.159388 226.03854Q27.862513 226.10104 27.175013 226.10104L23.331263 226.10104L23.331263 225.03854L26.784388 225.03854Q27.596888 225.03854 27.893763 224.97604Q28.300013 224.8823 28.550013 224.5698Q28.784388 224.24167 28.784388 223.7573Q28.784388 223.28854 28.550013 222.8823Q28.300013 222.46042 27.878138 222.28854Q27.456263 222.10104 26.659388 222.10104L23.331263 222.10104L23.331263 221.05417L29.550013 221.05417L29.550013 221.99167ZM27.690638 219.49167L27.534388 218.46042Q28.159388 218.36667 28.487513 217.97604Q28.815638 217.5698 28.815638 216.83542Q28.815638 216.11667 28.534388 215.77292Q28.237513 215.41354 27.831263 215.41354Q27.471888 215.41354 27.268763 215.72604Q27.128138 215.9448 26.909388 216.80417Q26.612513 217.96042 26.409388 218.41354Q26.190638 218.85104 25.815638 219.08542Q25.440638 219.3198 24.971888 219.3198Q24.565638 219.3198 24.206263 219.1323Q23.846888 218.9448 23.612513 218.61667Q23.440638 218.36667 23.315638 217.9448Q23.190638 217.52292 23.190638 217.02292Q23.190638 216.30417 23.409388 215.7573Q23.612513 215.1948 23.971888 214.92917Q24.331263 214.66354 24.925013 214.5698L25.065638 215.60104Q24.596888 215.66354 24.331263 216.0073Q24.050013 216.33542 24.050013 216.96042Q24.050013 217.67917 24.300013 217.99167Q24.534388 218.30417 24.862513 218.30417Q25.065638 218.30417 25.221888 218.17917Q25.393763 218.03854 25.503138 217.77292Q25.565638 217.61667 25.768763 216.83542Q26.081263 215.71042 26.268763 215.27292Q26.456263 214.83542 26.815638 214.58542Q27.175013 214.33542 27.721888 214.33542Q28.253138 214.33542 28.721888 214.64792Q29.175013 214.9448 29.440638 215.52292Q29.690638 216.10104 29.690638 216.83542Q29.690638 218.05417 29.190638 218.6948Q28.675013 219.3198 27.690638 219.49167ZM28.784388 208.0073Q29.284388 208.60104 29.487513 209.14792Q29.690638 209.67917 29.690638 210.30417Q29.690638 211.33542 29.190638 211.8823Q28.690638 212.42917 27.909388 212.42917Q27.456263 212.42917 27.081263 212.22604Q26.690638 212.02292 26.471888 211.67917Q26.237513 211.33542 26.128138 210.91354Q26.034388 210.61667 25.956263 209.97604Q25.815638 208.71042 25.596888 208.10104Q25.378138 208.10104 25.331263 208.10104Q24.675013 208.10104 24.409388 208.39792Q24.065638 208.80417 24.065638 209.60104Q24.065638 210.33542 24.331263 210.6948Q24.581263 211.05417 25.237513 211.22604L25.096888 212.2573Q24.440638 212.11667 24.034388 211.78854Q23.628138 211.46042 23.409388 210.85104Q23.190638 210.24167 23.190638 209.4448Q23.190638 208.64792 23.378138 208.14792Q23.565638 207.64792 23.846888 207.41354Q24.128138 207.17917 24.565638 207.08542Q24.831263 207.03854 25.534388 207.03854L26.940638 207.03854Q28.409388 207.03854 28.800013 206.97604Q29.190638 206.89792 29.550013 206.6948L29.550013 207.80417Q29.221888 207.96042 28.784388 208.0073ZM26.425013 208.10104Q26.659388 208.67917 26.831263 209.8198Q26.925013 210.47604 27.050013 210.74167Q27.159388 211.0073 27.378138 211.16354Q27.596888 211.30417 27.878138 211.30417Q28.300013 211.30417 28.581263 210.99167Q28.862513 210.66354 28.862513 210.05417Q28.862513 209.4448 28.596888 208.97604Q28.331263 208.49167 27.862513 208.27292Q27.503138 208.10104 26.815638 208.10104L26.425013 208.10104ZM30.065638 205.27292L30.221888 204.24167Q30.690638 204.17917 30.909388 203.8823Q31.206263 203.49167 31.206263 202.8198Q31.206263 202.08542 30.909388 201.6948Q30.612513 201.28854 30.096888 201.14792Q29.768763 201.05417 28.737513 201.0698Q29.550013 201.7573 29.550013 202.78854Q29.550013 204.0698 28.628138 204.77292Q27.690638 205.47604 26.409388 205.47604Q25.518763 205.47604 24.768763 205.16354Q24.003138 204.83542 23.596888 204.22604Q23.190638 203.61667 23.190638 202.78854Q23.190638 201.67917 24.081263 200.96042L23.331263 200.96042L23.331263 199.99167L28.706263 199.99167Q30.159388 199.99167 30.768763 200.28854Q31.378138 200.58542 31.721888 201.22604Q32.08126 201.86667 32.08126 202.80417Q32.08126 203.91354 31.581263 204.60104Q31.081263 205.28854 30.065638 205.27292ZM26.331263 204.39792Q27.550013 204.39792 28.112513 203.91354Q28.675013 203.42917 28.675013 202.6948Q28.675013 201.96042 28.112513 201.47604Q27.550013 200.97604 26.362513 200.97604Q25.221888 200.97604 24.643763 201.49167Q24.065638 201.99167 24.065638 202.71042Q24.065638 203.41354 24.643763 203.91354Q25.206263 204.39792 26.331263 204.39792ZM27.550013 193.8198L27.675013 192.72604Q28.628138 192.97604 29.159388 193.67917Q29.690638 194.3823 29.690638 195.46042Q29.690638 196.8198 28.846888 197.6323Q28.003138 198.42917 26.487513 198.42917Q24.925013 198.42917 24.065638 197.61667Q23.190638 196.80417 23.190638 195.52292Q23.190638 194.27292 24.034388 193.49167Q24.878138 192.6948 26.425013 192.6948Q26.518763 192.6948 26.706263 192.6948L26.706263 197.33542Q27.737513 197.27292 28.284388 196.7573Q28.815638 196.24167 28.815638 195.46042Q28.815638 194.8823 28.518763 194.47604Q28.206263 194.05417 27.550013 193.8198ZM25.846888 197.27292L25.846888 193.80417Q25.050013 193.86667 24.659388 194.1948Q24.050013 194.71042 24.050013 195.5073Q24.050013 196.24167 24.534388 196.74167Q25.018763 197.22604 25.846888 197.27292ZM23.018763 188.16354Q22.096888 188.16354 21.456263 187.71042Q20.815638 187.24167 20.815638 186.36667Q20.815638 185.55417 21.393763 185.02292Q21.971888 184.49167 23.081263 184.49167Q24.175013 184.49167 24.768763 185.03854Q25.346888 185.5698 25.346888 186.35104Q25.346888 187.1323 24.768763 187.64792Q24.190638 188.16354 23.018763 188.16354ZM21.534388 186.33542Q21.534388 186.72604 21.878138 186.99167Q22.221888 187.24167 23.128138 187.24167Q23.956263 187.24167 24.300013 186.99167Q24.628138 186.72604 24.628138 186.33542Q24.628138 185.92917 24.284388 185.67917Q23.940638 185.41354 23.050013 185.41354Q22.206263 185.41354 21.878138 185.67917Q21.534388 185.9448 21.534388 186.33542ZM29.862513 186.33542L20.815638 181.6323L20.815638 180.77292L29.862513 185.46042L29.862513 186.33542ZM27.534388 182.61667Q26.612513 182.61667 25.971888 182.16354Q25.331263 181.6948 25.331263 180.80417Q25.331263 179.99167 25.909388 179.46042Q26.471888 178.92917 27.596888 178.92917Q28.690638 178.92917 29.284388 179.47604Q29.862513 180.0073 29.862513 180.80417Q29.862513 181.5698 29.284388 182.10104Q28.706263 182.61667 27.534388 182.61667ZM26.050013 180.77292Q26.050013 181.17917 26.393763 181.4448Q26.737513 181.6948 27.643763 181.6948Q28.456263 181.6948 28.800013 181.42917Q29.143763 181.16354 29.143763 180.77292Q29.143763 180.3823 28.800013 180.11667Q28.456263 179.85104 27.550013 179.85104Q26.721888 179.85104 26.393763 180.11667Q26.050013 180.3823 26.050013 180.77292Z" fill-rule="nonzero"/><path fill="#000000" d="M65.05 332.21564Q65.05 330.6844 65.3625 329.7625Q65.675 328.825 66.28438 328.325Q66.90938 327.825 67.84688 327.825Q68.53438 327.825 69.05 328.10626Q69.58125 328.3875 69.925 328.91876Q70.26875 329.4344 70.45625 330.1844Q70.64375 330.9344 70.64375 332.21564Q70.64375 333.73126 70.33125 334.65314Q70.03438 335.575 69.40938 336.09064Q68.8 336.59064 67.84688 336.59064Q66.6125 336.59064 65.89375 335.7Q65.05 334.6375 65.05 332.21564ZM66.12813 332.21564Q66.12813 334.325 66.62813 335.02814Q67.12813 335.73126 67.84688 335.73126Q68.58125 335.73126 69.06563 335.02814Q69.56563 334.325 69.56563 332.21564Q69.56563 330.09064 69.06563 329.40314Q68.58125 328.7 67.83125 328.7Q67.1125 328.7 66.675 329.3094Q66.12813 330.09064 66.12813 332.21564Z" fill-rule="nonzero"/><path fill="#000000" d="M58.05 252.81111L59.159374 252.71736Q59.284374 253.52986 59.721874 253.93611Q60.175 254.34236 60.815624 254.34236Q61.565624 254.34236 62.096874 253.76424Q62.628124 253.18611 62.628124 252.24861Q62.628124 251.34236 62.1125 250.82674Q61.6125 250.29549 60.784374 250.29549Q60.284374 250.29549 59.8625 250.52986Q59.45625 250.76424 59.221874 251.12361L58.2375 250.99861L59.065624 246.59236L63.346874 246.59236L63.346874 247.59236L59.909374 247.59236L59.45625 249.90486Q60.221874 249.35799 61.065624 249.35799Q62.190624 249.35799 62.95625 250.13924Q63.7375 250.92049 63.7375 252.15486Q63.7375 253.31111 63.065624 254.17049Q62.2375 255.20174 60.815624 255.20174Q59.64375 255.20174 58.89375 254.54549Q58.159374 253.88924 58.05 252.81111ZM65.05 250.82674Q65.05 249.29549 65.3625 248.37361Q65.675 247.43611 66.28438 246.93611Q66.90938 246.43611 67.84688 246.43611Q68.53438 246.43611 69.05 246.71736Q69.58125 246.99861 69.925 247.52986Q70.26875 248.04549 70.45625 248.79549Q70.64375 249.54549 70.64375 250.82674Q70.64375 252.34236 70.33125 253.26424Q70.03438 254.18611 69.40938 254.70174Q68.8 255.20174 67.84688 255.20174Q66.6125 255.20174 65.89375 254.31111Q65.05 253.24861 65.05 250.82674ZM66.12813 250.82674Q66.12813 252.93611 66.62813 253.63924Q67.12813 254.34236 67.84688 254.34236Q68.58125 254.34236 69.06563 253.63924Q69.56563 252.93611 69.56563 250.82674Q69.56563 248.70174 69.06563 248.01424Q68.58125 247.31111 67.83125 247.31111Q67.1125 247.31111 66.675 247.92049Q66.12813 248.70174 66.12813 250.82674Z" fill-rule="nonzero"/><path fill="#000000" d="M55.01875 173.67223L53.971874 173.67223L53.971874 166.95348Q53.58125 167.31285 52.95625 167.68785Q52.346874 168.04723 51.8625 168.2191L51.8625 167.20348Q52.7375 166.7816 53.39375 166.20348Q54.065624 165.60973 54.346874 165.04723L55.01875 165.04723L55.01875 173.67223ZM58.05 169.43785Q58.05 167.9066 58.3625 166.98473Q58.675 166.04723 59.284374 165.54723Q59.909374 165.04723 60.846874 165.04723Q61.534374 165.04723 62.05 165.32848Q62.58125 165.60973 62.925 166.14098Q63.26875 166.6566 63.45625 167.4066Q63.64375 168.1566 63.64375 169.43785Q63.64375 170.95348 63.33125 171.87535Q63.034374 172.79723 62.409374 173.31285Q61.8 173.81285 60.846874 173.81285Q59.6125 173.81285 58.89375 172.92223Q58.05 171.85973 58.05 169.43785ZM59.128124 169.43785Q59.128124 171.54723 59.628124 172.25035Q60.128124 172.95348 60.846874 172.95348Q61.58125 172.95348 62.065624 172.25035Q62.565624 171.54723 62.565624 169.43785Q62.565624 167.31285 62.065624 166.62535Q61.58125 165.92223 60.83125 165.92223Q60.1125 165.92223 59.675 166.5316Q59.128124 167.31285 59.128124 169.43785ZM65.05 169.43785Q65.05 167.9066 65.3625 166.98473Q65.675 166.04723 66.28438 165.54723Q66.90938 165.04723 67.84688 165.04723Q68.53438 165.04723 69.05 165.32848Q69.58125 165.60973 69.925 166.14098Q70.26875 166.6566 70.45625 167.4066Q70.64375 168.1566 70.64375 169.43785Q70.64375 170.95348 70.33125 171.87535Q70.03438 172.79723 69.40938 173.31285Q68.8 173.81285 67.84688 173.81285Q66.6125 173.81285 65.89375 172.92223Q65.05 171.85973 65.05 169.43785ZM66.12813 169.43785Q66.12813 171.54723 66.62813 172.25035Q67.12813 172.95348 67.84688 172.95348Q68.58125 172.95348 69.06563 172.25035Q69.56563 171.54723 69.56563 169.43785Q69.56563 167.31285 69.06563 166.62535Q68.58125 165.92223 67.83125 165.92223Q67.1125 165.92223 66.675 166.5316Q66.12813 167.31285 66.12813 169.43785Z" fill-rule="nonzero"/><path fill="#000000" d="M55.01875 92.28333L53.971874 92.28333L53.971874 85.56458Q53.58125 85.92396 52.95625 86.29896Q52.346874 86.65833 51.8625 86.83021L51.8625 85.81458Q52.7375 85.39271 53.39375 84.81458Q54.065624 84.22083 54.346874 83.65833L55.01875 83.65833L55.01875 92.28333ZM58.05 90.03333L59.159374 89.93958Q59.284374 90.75208 59.721874 91.15833Q60.175 91.56458 60.815624 91.56458Q61.565624 91.56458 62.096874 90.98646Q62.628124 90.40833 62.628124 89.47083Q62.628124 88.56458 62.1125 88.04896Q61.6125 87.51771 60.784374 87.51771Q60.284374 87.51771 59.8625 87.75208Q59.45625 87.98646 59.221874 88.34583L58.2375 88.22083L59.065624 83.81458L63.346874 83.81458L63.346874 84.81458L59.909374 84.81458L59.45625 87.12708Q60.221874 86.58021 61.065624 86.58021Q62.190624 86.58021 62.95625 87.36146Q63.7375 88.14271 63.7375 89.37708Q63.7375 90.53333 63.065624 91.39271Q62.2375 92.42396 60.815624 92.42396Q59.64375 92.42396 58.89375 91.76771Q58.159374 91.11146 58.05 90.03333ZM65.05 88.04896Q65.05 86.51771 65.3625 85.59583Q65.675 84.65833 66.28438 84.15833Q66.90938 83.65833 67.84688 83.65833Q68.53438 83.65833 69.05 83.93958Q69.58125 84.22083 69.925 84.75208Q70.26875 85.26771 70.45625 86.01771Q70.64375 86.76771 70.64375 88.04896Q70.64375 89.56458 70.33125 90.48646Q70.03438 91.40833 69.40938 91.92396Q68.8 92.42396 67.84688 92.42396Q66.6125 92.42396 65.89375 91.53333Q65.05 90.47083 65.05 88.04896ZM66.12813 88.04896Q66.12813 90.15833 66.62813 90.86146Q67.12813 91.56458 67.84688 91.56458Q68.58125 91.56458 69.06563 90.86146Q69.56563 90.15833 69.56563 88.04896Q69.56563 85.92396 69.06563 85.23646Q68.58125 84.53333 67.83125 84.53333Q67.1125 84.53333 66.675 85.14271Q66.12813 85.92396 66.12813 88.04896Z" fill-rule="nonzero"/><path fill="#000000" d="M323.0625 346.4344L324.1875 346.73126Q323.82812 348.1219 322.90625 348.85626Q321.98438 349.59064 320.64062 349.59064Q319.25 349.59064 318.375 349.02814Q317.5 348.46564 317.04688 347.40314Q316.59375 346.325 316.59375 345.09064Q316.59375 343.7469 317.10938 342.7469Q317.625 341.7469 318.5625 341.23126Q319.51562 340.71564 320.65625 340.71564Q321.9375 340.71564 322.8125 341.3719Q323.70312 342.02814 324.04688 343.21564L322.92188 343.48126Q322.625 342.54376 322.04688 342.1219Q321.48438 341.6844 320.625 341.6844Q319.64062 341.6844 318.96875 342.16876Q318.3125 342.6375 318.03125 343.4344Q317.76562 344.23126 317.76562 345.09064Q317.76562 346.1844 318.07812 346.9969Q318.40625 347.8094 319.07812 348.21564Q319.75 348.6219 320.54688 348.6219Q321.5 348.6219 322.15625 348.075Q322.82812 347.52814 323.0625 346.4344ZM325.92188 349.45L325.92188 340.85626L328.89062 340.85626Q329.89062 340.85626 330.42188 340.98126Q331.15625 341.15314 331.67188 341.59064Q332.35938 342.16876 332.6875 343.075Q333.03125 343.96564 333.03125 345.10626Q333.03125 346.09064 332.79688 346.84064Q332.57812 347.59064 332.21875 348.09064Q331.85938 348.59064 331.42188 348.8719Q331.0 349.15314 330.40625 349.3094Q329.8125 349.45 329.03125 349.45L325.92188 349.45ZM327.0625 348.4344L328.89062 348.4344Q329.75 348.4344 330.23438 348.27814Q330.71875 348.1219 331.0 347.825Q331.40625 347.4344 331.625 346.7469Q331.85938 346.0594 331.85938 345.09064Q331.85938 343.7469 331.40625 343.02814Q330.96875 342.29376 330.34375 342.04376Q329.875 341.8719 328.875 341.8719L327.0625 341.8719L327.0625 348.4344ZM341.0625 346.4344L342.1875 346.73126Q341.82812 348.1219 340.90625 348.85626Q339.98438 349.59064 338.64062 349.59064Q337.25 349.59064 336.375 349.02814Q335.5 348.46564 335.04688 347.40314Q334.59375 346.325 334.59375 345.09064Q334.59375 343.7469 335.10938 342.7469Q335.625 341.7469 336.5625 341.23126Q337.51562 340.71564 338.65625 340.71564Q339.9375 340.71564 340.8125 341.3719Q341.70312 342.02814 342.04688 343.21564L340.92188 343.48126Q340.625 342.54376 340.04688 342.1219Q339.48438 341.6844 338.625 341.6844Q337.64062 341.6844 336.96875 342.16876Q336.3125 342.6375 336.03125 343.4344Q335.76562 344.23126 335.76562 345.09064Q335.76562 346.1844 336.07812 346.9969Q336.40625 347.8094 337.07812 348.21564Q337.75 348.6219 338.54688 348.6219Q339.5 348.6219 340.15625 348.075Q340.82812 347.52814 341.0625 346.4344Z" fill-rule="nonzero"/><path fill="#4285f4" d="M210.5 56.916668C210.5 56.364384 210.94771 55.916668 211.5 55.916668L221.5 55.916668C222.05229 55.916668 222.5 56.364384 222.5 56.916668L222.5 66.916664C222.5 67.46895 222.05229 67.916664 221.5 67.916664L211.5 67.916664C210.94771 67.916664 210.5 67.46895 210.5 66.916664Z" fill-rule="nonzero"/><path fill="#1a1a1a" d="M237.5625 62.90104L238.6875 63.197914Q238.32812 64.58854 237.40625 65.322914Q236.48438 66.05729 235.14062 66.05729Q233.75 66.05729 232.875 65.49479Q232.0 64.93229 231.54688 63.86979Q231.09375 62.791664 231.09375 61.55729Q231.09375 60.21354 231.60938 59.21354Q232.125 58.21354 233.0625 57.697914Q234.01562 57.18229 235.15625 57.18229Q236.4375 57.18229 237.3125 57.83854Q238.20312 58.49479 238.54688 59.68229L237.42188 59.947914Q237.125 59.010414 236.54688 58.58854Q235.98438 58.15104 235.125 58.15104Q234.14062 58.15104 233.46875 58.635414Q232.8125 59.104164 232.53125 59.90104Q232.26562 60.697914 232.26562 61.55729Q232.26562 62.65104 232.57812 63.46354Q232.90625 64.27604 233.57812 64.68229Q234.25 65.08854 235.04688 65.08854Q236.0 65.08854 236.65625 64.541664Q237.32812 63.99479 237.5625 62.90104ZM239.90625 62.80729Q239.90625 61.072914 240.85938 60.24479Q241.65625 59.55729 242.8125 59.55729Q244.09375 59.55729 244.90625 60.40104Q245.73438 61.229164 245.73438 62.71354Q245.73438 63.916664 245.375 64.604164Q245.01562 65.291664 244.3125 65.68229Q243.625 66.05729 242.8125 66.05729Q241.51562 66.05729 240.70312 65.229164Q239.90625 64.385414 239.90625 62.80729ZM240.98438 62.80729Q240.98438 63.99479 241.5 64.58854Q242.03125 65.18229 242.8125 65.18229Q243.60938 65.18229 244.125 64.58854Q244.64062 63.99479 244.64062 62.77604Q244.64062 61.61979 244.10938 61.02604Q243.59375 60.43229 242.8125 60.43229Q242.03125 60.43229 241.5 61.02604Q240.98438 61.604164 240.98438 62.80729ZM247.29688 65.916664L247.29688 59.697914L248.23438 59.697914L248.23438 60.572914Q248.92188 59.55729 250.21875 59.55729Q250.78125 59.55729 251.25 59.760414Q251.73438 59.96354 251.96875 60.291664Q252.20312 60.61979 252.29688 61.05729Q252.34375 61.354164 252.34375 62.08854L252.34375 65.916664L251.29688 65.916664L251.29688 62.135414Q251.29688 61.479164 251.17188 61.166664Q251.04688 60.854164 250.73438 60.666664Q250.42188 60.46354 250.0 60.46354Q249.32812 60.46354 248.82812 60.90104Q248.34375 61.322914 248.34375 62.510414L248.34375 65.916664L247.29688 65.916664ZM258.32812 65.916664L258.32812 65.135414Q257.73438 66.05729 256.59375 66.05729Q255.84375 66.05729 255.21875 65.65104Q254.59375 65.229164 254.25 64.49479Q253.90625 63.760414 253.90625 62.80729Q253.90625 61.885414 254.21875 61.11979Q254.53125 60.354164 255.15625 59.96354Q255.78125 59.55729 256.54688 59.55729Q257.10938 59.55729 257.54688 59.791664Q257.98438 60.02604 258.26562 60.40104L258.26562 57.322914L259.3125 57.322914L259.3125 65.916664L258.32812 65.916664ZM255.0 62.80729Q255.0 64.010414 255.5 64.604164Q256.0 65.18229 256.6875 65.18229Q257.375 65.18229 257.85938 64.61979Q258.34375 64.05729 258.34375 62.90104Q258.34375 61.61979 257.84375 61.02604Q257.35938 60.43229 256.64062 60.43229Q255.9375 60.43229 255.46875 61.010414Q255.0 61.572914 255.0 62.80729ZM265.375 65.916664L265.375 64.99479Q264.64062 66.05729 263.39062 66.05729Q262.84375 66.05729 262.35938 65.854164Q261.89062 65.635414 261.65625 65.322914Q261.42188 64.99479 261.32812 64.52604Q261.26562 64.229164 261.26562 63.541664L261.26562 59.697914L262.32812 59.697914L262.32812 63.15104Q262.32812 63.96354 262.39062 64.260414Q262.48438 64.666664 262.79688 64.916664Q263.125 65.15104 263.60938 65.15104Q264.07812 65.15104 264.48438 64.916664Q264.90625 64.666664 265.07812 64.24479Q265.26562 63.822914 265.26562 63.02604L265.26562 59.697914L266.3125 59.697914L266.3125 65.916664L265.375 65.916664ZM268.29688 58.541664L268.29688 57.322914L269.35938 57.322914L269.35938 58.541664L268.29688 58.541664ZM268.29688 65.916664L268.29688 59.697914L269.35938 59.697914L269.35938 65.916664L268.29688 65.916664ZM273.59375 64.979164L273.75 65.90104Q273.29688 65.99479 272.95312 65.99479Q272.375 65.99479 272.0625 65.822914Q271.75 65.635414 271.60938 65.33854Q271.48438 65.041664 271.48438 64.08854L271.48438 60.510414L270.71875 60.510414L270.71875 59.697914L271.48438 59.697914L271.48438 58.15104L272.53125 57.52604L272.53125 59.697914L273.59375 59.697914L273.59375 60.510414L272.53125 60.510414L272.53125 64.15104Q272.53125 64.604164 272.57812 64.729164Q272.64062 64.854164 272.76562 64.93229Q272.89062 65.010414 273.125 65.010414Q273.3125 65.010414 273.59375 64.979164Z" fill-rule="nonzero"/><path fill="#ea4335" d="M289.5 56.916668C289.5 56.364384 289.94772 55.916668 290.5 55.916668L300.5 55.916668C301.05228 55.916668 301.5 56.364384 301.5 56.916668L301.5 66.916664C301.5 67.46895 301.05228 67.916664 300.5 67.916664L290.5 67.916664C289.94772 67.916664 289.5 67.46895 289.5 66.916664Z" fill-rule="nonzero"/><path fill="#1a1a1a" d="M310.375 65.916664L310.375 57.322914L311.51562 57.322914L311.51562 61.58854L315.78125 57.322914L317.32812 57.322914L313.71875 60.80729L317.48438 65.916664L315.98438 65.916664L312.92188 61.572914L311.51562 62.93229L311.51562 65.916664L310.375 65.916664ZM322.35938 65.15104Q321.76562 65.65104 321.21875 65.854164Q320.6875 66.05729 320.0625 66.05729Q319.03125 66.05729 318.48438 65.55729Q317.9375 65.05729 317.9375 64.27604Q317.9375 63.822914 318.14062 63.447914Q318.34375 63.05729 318.6875 62.83854Q319.03125 62.604164 319.45312 62.49479Q319.75 62.40104 320.39062 62.322914Q321.65625 62.18229 322.26562 61.96354Q322.26562 61.74479 322.26562 61.697914Q322.26562 61.041664 321.96875 60.77604Q321.5625 60.43229 320.76562 60.43229Q320.03125 60.43229 319.67188 60.697914Q319.3125 60.947914 319.14062 61.604164L318.10938 61.46354Q318.25 60.80729 318.57812 60.40104Q318.90625 59.99479 319.51562 59.77604Q320.125 59.55729 320.92188 59.55729Q321.71875 59.55729 322.21875 59.74479Q322.71875 59.93229 322.95312 60.21354Q323.1875 60.49479 323.28125 60.93229Q323.32812 61.197914 323.32812 61.90104L323.32812 63.30729Q323.32812 64.77604 323.39062 65.166664Q323.46875 65.55729 323.67188 65.916664L322.5625 65.916664Q322.40625 65.58854 322.35938 65.15104ZM322.26562 62.791664Q321.6875 63.02604 320.54688 63.197914Q319.89062 63.291664 319.625 63.416664Q319.35938 63.52604 319.20312 63.74479Q319.0625 63.96354 319.0625 64.24479Q319.0625 64.666664 319.375 64.947914Q319.70312 65.229164 320.3125 65.229164Q320.92188 65.229164 321.39062 64.96354Q321.875 64.697914 322.09375 64.229164Q322.26562 63.86979 322.26562 63.18229L322.26562 62.791664ZM325.54688 65.916664L325.54688 60.510414L324.60938 60.510414L324.60938 59.697914L325.54688 59.697914L325.54688 59.02604Q325.54688 58.40104 325.65625 58.104164Q325.8125 57.68229 326.1875 57.43229Q326.57812 57.18229 327.26562 57.18229Q327.71875 57.18229 328.25 57.291664L328.09375 58.197914Q327.76562 58.15104 327.46875 58.15104Q326.98438 58.15104 326.78125 58.354164Q326.59375 58.55729 326.59375 59.11979L326.59375 59.697914L327.8125 59.697914L327.8125 60.510414L326.59375 60.510414L326.59375 65.916664L325.54688 65.916664ZM328.29688 65.916664L328.29688 57.322914L329.35938 57.322914L329.35938 62.229164L331.84375 59.697914L333.21875 59.697914L330.82812 61.99479L333.45312 65.916664L332.15625 65.916664L330.09375 62.729164L329.35938 63.447914L329.35938 65.916664L328.29688 65.916664ZM338.35938 65.15104Q337.76562 65.65104 337.21875 65.854164Q336.6875 66.05729 336.0625 66.05729Q335.03125 66.05729 334.48438 65.55729Q333.9375 65.05729 333.9375 64.27604Q333.9375 63.822914 334.14062 63.447914Q334.34375 63.05729 334.6875 62.83854Q335.03125 62.604164 335.45312 62.49479Q335.75 62.40104 336.39062 62.322914Q337.65625 62.18229 338.26562 61.96354Q338.26562 61.74479 338.26562 61.697914Q338.26562 61.041664 337.96875 60.77604Q337.5625 60.43229 336.76562 60.43229Q336.03125 60.43229 335.67188 60.697914Q335.3125 60.947914 335.14062 61.604164L334.10938 61.46354Q334.25 60.80729 334.57812 60.40104Q334.90625 59.99479 335.51562 59.77604Q336.125 59.55729 336.92188 59.55729Q337.71875 59.55729 338.21875 59.74479Q338.71875 59.93229 338.95312 60.21354Q339.1875 60.49479 339.28125 60.93229Q339.32812 61.197914 339.32812 61.90104L339.32812 63.30729Q339.32812 64.77604 339.39062 65.166664Q339.46875 65.55729 339.67188 65.916664L338.5625 65.916664Q338.40625 65.58854 338.35938 65.15104ZM338.26562 62.791664Q337.6875 63.02604 336.54688 63.197914Q335.89062 63.291664 335.625 63.416664Q335.35938 63.52604 335.20312 63.74479Q335.0625 63.96354 335.0625 64.24479Q335.0625 64.666664 335.375 64.947914Q335.70312 65.229164 336.3125 65.229164Q336.92188 65.229164 337.39062 64.96354Q337.875 64.697914 338.09375 64.229164Q338.26562 63.86979 338.26562 63.18229L338.26562 62.791664ZM350.5625 62.90104L351.6875 63.197914Q351.32812 64.58854 350.40625 65.322914Q349.48438 66.05729 348.14062 66.05729Q346.75 66.05729 345.875 65.49479Q345.0 64.93229 344.54688 63.86979Q344.09375 62.791664 344.09375 61.55729Q344.09375 60.21354 344.60938 59.21354Q345.125 58.21354 346.0625 57.697914Q347.01562 57.18229 348.15625 57.18229Q349.4375 57.18229 350.3125 57.83854Q351.20312 58.49479 351.54688 59.68229L350.42188 59.947914Q350.125 59.010414 349.54688 58.58854Q348.98438 58.15104 348.125 58.15104Q347.14062 58.15104 346.46875 58.635414Q345.8125 59.104164 345.53125 59.90104Q345.26562 60.697914 345.26562 61.55729Q345.26562 62.65104 345.57812 63.46354Q345.90625 64.27604 346.57812 64.68229Q347.25 65.08854 348.04688 65.08854Q349.0 65.08854 349.65625 64.541664Q350.32812 63.99479 350.5625 62.90104ZM352.90625 62.80729Q352.90625 61.072914 353.85938 60.24479Q354.65625 59.55729 355.8125 59.55729Q357.09375 59.55729 357.90625 60.40104Q358.73438 61.229164 358.73438 62.71354Q358.73438 63.916664 358.375 64.604164Q358.01562 65.291664 357.3125 65.68229Q356.625 66.05729 355.8125 66.05729Q354.51562 66.05729 353.70312 65.229164Q352.90625 64.385414 352.90625 62.80729ZM353.98438 62.80729Q353.98438 63.99479 354.5 64.58854Q355.03125 65.18229 355.8125 65.18229Q356.60938 65.18229 357.125 64.58854Q357.64062 63.99479 357.64062 62.77604Q357.64062 61.61979 357.10938 61.02604Q356.59375 60.43229 355.8125 60.43229Q355.03125 60.43229 354.5 61.02604Q353.98438 61.604164 353.98438 62.80729ZM360.29688 65.916664L360.29688 59.697914L361.23438 59.697914L361.23438 60.572914Q361.92188 59.55729 363.21875 59.55729Q363.78125 59.55729 364.25 59.760414Q364.73438 59.96354 364.96875 60.291664Q365.20312 60.61979 365.29688 61.05729Q365.34375 61.354164 365.34375 62.08854L365.34375 65.916664L364.29688 65.916664L364.29688 62.135414Q364.29688 61.479164 364.17188 61.166664Q364.04688 60.854164 363.73438 60.666664Q363.42188 60.46354 363.0 60.46354Q362.32812 60.46354 361.82812 60.90104Q361.34375 61.322914 361.34375 62.510414L361.34375 65.916664L360.29688 65.916664ZM367.29688 65.916664L367.29688 59.697914L368.23438 59.697914L368.23438 60.572914Q368.92188 59.55729 370.21875 59.55729Q370.78125 59.55729 371.25 59.760414Q371.73438 59.96354 371.96875 60.291664Q372.20312 60.61979 372.29688 61.05729Q372.34375 61.354164 372.34375 62.08854L372.34375 65.916664L371.29688 65.916664L371.29688 62.135414Q371.29688 61.479164 371.17188 61.166664Q371.04688 60.854164 370.73438 60.666664Q370.42188 60.46354 370.0 60.46354Q369.32812 60.46354 368.82812 60.90104Q368.34375 61.322914 368.34375 62.510414L368.34375 65.916664L367.29688 65.916664ZM378.54688 63.916664L379.64062 64.041664Q379.39062 64.99479 378.6875 65.52604Q377.98438 66.05729 376.90625 66.05729Q375.54688 66.05729 374.73438 65.21354Q373.9375 64.36979 373.9375 62.854164Q373.9375 61.291664 374.75 60.43229Q375.5625 59.55729 376.84375 59.55729Q378.09375 59.55729 378.875 60.40104Q379.67188 61.24479 379.67188 62.791664Q379.67188 62.885414 379.67188 63.072914L375.03125 63.072914Q375.09375 64.104164 375.60938 64.65104Q376.125 65.18229 376.90625 65.18229Q377.48438 65.18229 377.89062 64.885414Q378.3125 64.572914 378.54688 63.916664ZM375.09375 62.21354L378.5625 62.21354Q378.5 61.416664 378.17188 61.02604Q377.65625 60.416664 376.85938 60.416664Q376.125 60.416664 375.625 60.90104Q375.14062 61.385414 375.09375 62.21354ZM385.35938 63.635414L386.39062 63.77604Q386.21875 64.83854 385.51562 65.447914Q384.8125 66.05729 383.79688 66.05729Q382.51562 66.05729 381.73438 65.229164Q380.96875 64.385414 380.96875 62.822914Q380.96875 61.822914 381.29688 61.072914Q381.64062 60.30729 382.3125 59.93229Q383.0 59.55729 383.8125 59.55729Q384.8125 59.55729 385.45312 60.072914Q386.10938 60.572914 386.29688 61.52604L385.26562 61.68229Q385.125 61.05729 384.75 60.74479Q384.375 60.416664 383.84375 60.416664Q383.04688 60.416664 382.54688 60.99479Q382.04688 61.55729 382.04688 62.791664Q382.04688 64.05729 382.53125 64.61979Q383.01562 65.18229 383.78125 65.18229Q384.40625 65.18229 384.8125 64.80729Q385.23438 64.43229 385.35938 63.635414ZM389.59375 64.979164L389.75 65.90104Q389.29688 65.99479 388.95312 65.99479Q388.375 65.99479 388.0625 65.822914Q387.75 65.635414 387.60938 65.33854Q387.48438 65.041664 387.48438 64.08854L387.48438 60.510414L386.71875 60.510414L386.71875 59.697914L387.48438 59.697914L387.48438 58.15104L388.53125 57.52604L388.53125 59.697914L389.59375 59.697914L389.59375 60.510414L388.53125 60.510414L388.53125 64.15104Q388.53125 64.604164 388.57812 64.729164Q388.64062 64.854164 388.76562 64.93229Q388.89062 65.010414 389.125 65.010414Q389.3125 65.010414 389.59375 64.979164Z" fill-rule="nonzero"/><path fill="#757575" d="M262.26562 32.534374L264.15625 33.003124Q263.5625 35.346874 262.01562 36.58125Q260.46875 37.8 258.21875 37.8Q255.90625 37.8 254.45312 36.8625Q253.01562 35.909374 252.25 34.128124Q251.5 32.33125 251.5 30.284374Q251.5 28.05 252.34375 26.39375Q253.20312 24.721874 254.78125 23.8625Q256.35938 22.9875 258.25 22.9875Q260.40625 22.9875 261.85938 24.08125Q263.32812 25.175 263.90625 27.159374L262.04688 27.596874Q261.54688 26.034374 260.59375 25.33125Q259.65625 24.6125 258.21875 24.6125Q256.5625 24.6125 255.45312 25.409374Q254.34375 26.190624 253.89062 27.534374Q253.45312 28.8625 253.45312 30.26875Q253.45312 32.096874 253.98438 33.471874Q254.51562 34.83125 255.64062 35.503124Q256.76562 36.175 258.0625 36.175Q259.65625 36.175 260.76562 35.253124Q261.875 34.33125 262.26562 32.534374ZM266.04688 37.55L266.04688 23.2375L271.4375 23.2375Q272.875 23.2375 273.625 23.3625Q274.67188 23.55 275.39062 24.05Q276.10938 24.534374 276.53125 25.425Q276.96875 26.315624 276.96875 27.378124Q276.96875 29.20625 275.79688 30.471874Q274.64062 31.721874 271.60938 31.721874L267.9375 31.721874L267.9375 37.55L266.04688 37.55ZM267.9375 30.034374L271.64062 30.034374Q273.46875 30.034374 274.23438 29.3625Q275.01562 28.675 275.01562 27.425Q275.01562 26.534374 274.5625 25.89375Q274.10938 25.253124 273.375 25.05Q272.89062 24.925 271.59375 24.925L267.9375 24.925L267.9375 30.034374ZM288.4375 23.2375L290.32812 23.2375L290.32812 31.503124Q290.32812 33.659374 289.84375 34.940624Q289.35938 36.20625 288.07812 37.003124Q286.8125 37.8 284.73438 37.8Q282.71875 37.8 281.4375 37.1125Q280.17188 36.409374 279.625 35.096874Q279.07812 33.784374 279.07812 31.503124L279.07812 23.2375L280.96875 23.2375L280.96875 31.4875Q280.96875 33.3625 281.3125 34.253124Q281.65625 35.128124 282.5 35.6125Q283.34375 36.08125 284.57812 36.08125Q286.65625 36.08125 287.54688 35.14375Q288.4375 34.190624 288.4375 31.4875L288.4375 23.2375ZM304.60938 37.55L304.60938 36.01875Q303.40625 37.784374 301.32812 37.784374Q300.40625 37.784374 299.60938 37.440624Q298.8125 37.08125 298.42188 36.55Q298.04688 36.01875 297.89062 35.2375Q297.78125 34.721874 297.78125 33.596874L297.78125 27.175L299.53125 27.175L299.53125 32.925Q299.53125 34.3 299.64062 34.784374Q299.8125 35.471874 300.34375 35.878124Q300.89062 36.26875 301.67188 36.26875Q302.46875 36.26875 303.15625 35.8625Q303.85938 35.45625 304.14062 34.76875Q304.4375 34.065624 304.4375 32.7375L304.4375 27.175L306.1875 27.175L306.1875 37.55L304.60938 37.55ZM307.10938 34.45625L308.85938 34.175Q309.0 35.221874 309.67188 35.784374Q310.34375 36.33125 311.54688 36.33125Q312.75 36.33125 313.32812 35.846874Q313.92188 35.346874 313.92188 34.690624Q313.92188 34.096874 313.40625 33.753124Q313.04688 33.51875 311.60938 33.159374Q309.67188 32.659374 308.92188 32.315624Q308.1875 31.95625 307.79688 31.33125Q307.40625 30.690624 307.40625 29.925Q307.40625 29.2375 307.71875 28.64375Q308.04688 28.05 308.59375 27.659374Q309.0 27.3625 309.70312 27.159374Q310.42188 26.940624 311.23438 26.940624Q312.45312 26.940624 313.375 27.3Q314.29688 27.64375 314.73438 28.253124Q315.17188 28.846874 315.34375 29.846874L313.625 30.08125Q313.5 29.284374 312.9375 28.846874Q312.375 28.39375 311.35938 28.39375Q310.14062 28.39375 309.625 28.8Q309.10938 29.190624 309.10938 29.721874Q309.10938 30.065624 309.32812 30.346874Q309.53125 30.628124 310.0 30.815624Q310.26562 30.909374 311.54688 31.253124Q313.42188 31.753124 314.15625 32.08125Q314.89062 32.39375 315.3125 33.003124Q315.73438 33.596874 315.73438 34.503124Q315.73438 35.378124 315.21875 36.159374Q314.70312 36.940624 313.73438 37.3625Q312.76562 37.784374 311.54688 37.784374Q309.53125 37.784374 308.46875 36.940624Q307.40625 36.096874 307.10938 34.45625ZM324.59375 36.26875Q323.60938 37.096874 322.70312 37.440624Q321.79688 37.784374 320.76562 37.784374Q319.0625 37.784374 318.14062 36.95625Q317.21875 36.1125 317.21875 34.815624Q317.21875 34.05 317.5625 33.425Q317.92188 32.8 318.48438 32.425Q319.04688 32.034374 319.75 31.83125Q320.26562 31.70625 321.3125 31.565624Q323.4375 31.315624 324.4375 30.971874Q324.45312 30.6125 324.45312 30.503124Q324.45312 29.440624 323.95312 28.9875Q323.28125 28.39375 321.95312 28.39375Q320.70312 28.39375 320.10938 28.83125Q319.53125 29.26875 319.25 30.378124L317.53125 30.14375Q317.76562 29.034374 318.29688 28.3625Q318.82812 27.675 319.84375 27.315624Q320.85938 26.940624 322.20312 26.940624Q323.53125 26.940624 324.35938 27.253124Q325.1875 27.565624 325.57812 28.05Q325.96875 28.51875 326.125 29.2375Q326.21875 29.690624 326.21875 30.8625L326.21875 33.20625Q326.21875 35.659374 326.32812 36.315624Q326.4375 36.95625 326.78125 37.55L324.9375 37.55Q324.67188 37.003124 324.59375 36.26875ZM324.4375 32.346874Q323.48438 32.7375 321.5625 33.003124Q320.48438 33.159374 320.03125 33.3625Q319.59375 33.55 319.34375 33.925Q319.09375 34.3 319.09375 34.76875Q319.09375 35.471874 319.625 35.940624Q320.15625 36.409374 321.1875 36.409374Q322.20312 36.409374 322.98438 35.971874Q323.78125 35.51875 324.15625 34.753124Q324.4375 34.14375 324.4375 32.9875L324.4375 32.346874ZM328.5 38.409374L330.20312 38.659374Q330.3125 39.45625 330.79688 39.815624Q331.45312 40.3 332.59375 40.3Q333.8125 40.3 334.46875 39.815624Q335.14062 39.33125 335.375 38.45625Q335.51562 37.909374 335.5 36.190624Q334.34375 37.55 332.625 37.55Q330.48438 37.55 329.3125 36.003124Q328.14062 34.45625 328.14062 32.3Q328.14062 30.815624 328.67188 29.565624Q329.21875 28.315624 330.23438 27.628124Q331.26562 26.940624 332.64062 26.940624Q334.46875 26.940624 335.67188 28.425L335.67188 27.175L337.28125 27.175L337.28125 36.14375Q337.28125 38.565624 336.78125 39.565624Q336.29688 40.58125 335.21875 41.159374Q334.15625 41.753124 332.59375 41.753124Q330.75 41.753124 329.59375 40.925Q328.45312 40.096874 328.5 38.409374ZM329.95312 32.175Q329.95312 34.221874 330.76562 35.159374Q331.57812 36.096874 332.79688 36.096874Q334.0 36.096874 334.8125 35.159374Q335.64062 34.221874 335.64062 32.2375Q335.64062 30.33125 334.79688 29.3625Q333.95312 28.39375 332.76562 28.39375Q331.59375 28.39375 330.76562 29.346874Q329.95312 30.3 329.95312 32.175ZM346.92188 34.20625L348.73438 34.440624Q348.3125 36.01875 347.14062 36.909374Q345.98438 37.784374 344.17188 37.784374Q341.90625 37.784374 340.5625 36.39375Q339.23438 34.9875 339.23438 32.45625Q339.23438 29.83125 340.57812 28.39375Q341.92188 26.940624 344.07812 26.940624Q346.15625 26.940624 347.46875 28.3625Q348.79688 29.76875 348.79688 32.346874Q348.79688 32.503124 348.78125 32.815624L341.04688 32.815624Q341.14062 34.51875 342.01562 35.425Q342.89062 36.33125 344.1875 36.33125Q345.15625 36.33125 345.82812 35.83125Q346.51562 35.315624 346.92188 34.20625ZM341.14062 31.3625L346.9375 31.3625Q346.82812 30.065624 346.28125 29.409374Q345.4375 28.39375 344.09375 28.39375Q342.89062 28.39375 342.0625 29.20625Q341.23438 30.003124 341.14062 31.3625Z" fill-rule="nonzero"/></svg>