<svg version="1.1" viewBox="0.0 0.0 600.0 371.0" fill="none" stroke="none" stroke-linecap="square" stroke-miterlimit="10" width="600" height="371" xmlns:xlink="http://www.w3.org/1999/xlink" xmlns="http://www.w3.org/2000/svg"><path fill="#ffffff" d="M0 0L600.0 0L600.0 371.0L0 371.0L0 0Z" fill-rule="nonzero"/><path stroke="#333333" stroke-width="1.0" stroke-linecap="butt" d="M84.5 332.5L581.5 332.5" fill-rule="nonzero"/><path stroke="#cccccc" stroke-width="1.0" stroke-linecap="butt" d="M84.5 271.5L581.5 271.5" fill-rule="nonzero"/><path stroke="#cccccc" stroke-width="1.0" stroke-linecap="butt" d="M84.5 210.5L581.5 210.5" fill-rule="nonzero"/><path stroke="#cccccc" stroke-width="1.0" stroke-linecap="butt" d="M84.5 149.5L581.5 149.5" fill-rule="nonzero"/><path stroke="#cccccc" stroke-width="1.0" stroke-linecap="butt" d="M84.5 88.5L581.5 88.5" fill-rule="nonzero"/><clipPath id="id_0"><path d="M84.55 88.28333L581.45 88.28333L581.45 332.45L84.55 332.45L84.55 88.28333Z" clip-rule="nonzero"/></clipPath><path stroke="#000000" stroke-width="2.0" stroke-linecap="butt" stroke-opacity="0.0" clip-path="url(#id_0)" d="M332.0 332.0L214.0 332.0L214.0 324.0C214.0 322.89542 214.89543 322.0 216.0 322.0L330.0 322.0C331.10458 322.0 332.0 322.89542 332.0 324.0Z" fill-rule="nonzero"/><path fill="#4285f4" clip-path="url(#id_0)" d="M332.0 332.0L214.0 332.0L214.0 324.0C214.0 322.89542 214.89543 322.0 216.0 322.0L330.0 322.0C331.10458 322.0 332.0 322.89542 332.0 324.0Z" fill-rule="nonzero"/><path stroke="#000000" stroke-width="2.0" stroke-linecap="butt" stroke-opacity="0.0" clip-path="url(#id_0)" d="M452.0 332.0L334.0 332.0L334.0 104.0C334.0 102.89543 334.89542 102.0 336.0 102.0L450.0 102.0C451.10458 102.0 452.0 102.89543 452.0 104.0Z" fill-rule="nonzero"/><path fill="#ea4335" clip-path="url(#id_0)" d="M452.0 332.0L334.0 332.0L334.0 104.0C334.0 102.89543 334.89542 102.0 336.0 102.0L450.0 102.0C451.10458 102.0 452.0 102.89543 452.0 104.0Z" fill-rule="nonzero"/><path fill="#000000" d="M29.550013 238.47604L20.956263 238.47604L20.956263 236.7573L27.034388 234.72604Q27.893763 234.4448 28.315638 234.3198Q27.846888 234.17917 26.940638 233.86667L20.956263 231.80417L20.956263 230.27292L29.550013 230.27292L29.550013 231.36667L22.362513 231.36667L29.550013 233.86667L29.550013 234.89792L22.237513 237.3823L29.550013 237.3823L29.550013 238.47604ZM29.550013 229.49167L20.956263 229.49167L20.956263 226.2573Q20.956263 225.27292 21.221888 224.67917Q21.487513 224.08542 22.034388 223.7573Q22.565638 223.41354 23.159388 223.41354Q23.706263 223.41354 24.190638 223.71042Q24.675013 224.0073 24.971888 224.61667Q25.206263 223.83542 25.768763 223.42917Q26.315638 223.0073 27.065638 223.0073Q27.659388 223.0073 28.190638 223.2573Q28.706263 223.5073 28.987513 223.8823Q29.268763 224.2573 29.409388 224.83542Q29.550013 225.39792 29.550013 226.21042L29.550013 229.49167ZM24.565638 228.35104L24.565638 226.49167Q24.565638 225.74167 24.471888 225.41354Q24.346888 224.97604 24.050013 224.7573Q23.737513 224.53854 23.284388 224.53854Q22.862513 224.53854 22.534388 224.74167Q22.206263 224.9448 22.096888 225.33542Q21.971888 225.71042 21.971888 226.6323L21.971888 228.35104L24.565638 228.35104ZM28.534388 228.35104L28.534388 226.21042Q28.534388 225.66354 28.487513 225.4448Q28.425013 225.03854 28.268763 224.78854Q28.096888 224.52292 27.784388 224.35104Q27.471888 224.17917 27.065638 224.17917Q26.581263 224.17917 26.221888 224.42917Q25.862513 224.66354 25.721888 225.10104Q25.581263 225.53854 25.581263 226.36667L25.581263 228.35104L28.534388 228.35104ZM29.550013 218.42917L20.956263 218.42917L20.956263 214.61667Q20.956263 213.46042 21.190638 212.86667Q21.425013 212.27292 22.018763 211.91354Q22.596888 211.55417 23.300013 211.55417Q24.221888 211.55417 24.846888 212.14792Q25.471888 212.74167 25.643763 213.97604Q25.862513 213.52292 26.065638 213.28854Q26.518763 212.78854 27.206263 212.35104L29.550013 210.85104L29.550013 212.28854L27.768763 213.41354Q26.987513 213.91354 26.581263 214.24167Q26.175013 214.55417 26.018763 214.8198Q25.846888 215.0698 25.768763 215.33542Q25.737513 215.52292 25.737513 215.96042L25.737513 217.28854L29.550013 217.28854L29.550013 218.42917ZM24.753138 217.28854L24.753138 214.83542Q24.753138 214.0698 24.596888 213.6323Q24.425013 213.17917 24.081263 212.96042Q23.721888 212.72604 23.300013 212.72604Q22.690638 212.72604 22.300013 213.17917Q21.909388 213.61667 21.909388 214.5698L21.909388 217.28854L24.753138 217.28854ZM29.550013 210.3823L20.956263 207.08542L20.956263 205.86667L29.550013 202.35104L29.550013 203.6323L26.940638 204.64792L26.940638 208.22604L29.550013 209.17917L29.550013 210.3823ZM26.018763 207.89792L26.018763 204.99167L23.643763 205.8823Q22.565638 206.30417 21.862513 206.49167Q22.690638 206.66354 23.503138 206.96042L26.018763 207.89792ZM29.550013 202.47604L20.956263 202.47604L20.956263 200.7573L27.034388 198.72604Q27.893763 198.4448 28.315638 198.3198Q27.846888 198.17917 26.940638 197.86667L20.956263 195.80417L20.956263 194.27292L29.550013 194.27292L29.550013 195.36667L22.362513 195.36667L29.550013 197.86667L29.550013 198.89792L22.237513 201.3823L29.550013 201.3823L29.550013 202.47604Z" fill-rule="nonzero"/><path fill="#000000" d="M72.05 332.21564Q72.05 330.6844 72.3625 329.7625Q72.675 328.825 73.28438 328.325Q73.90938 327.825 74.84688 327.825Q75.53438 327.825 76.05 328.10626Q76.58125 328.3875 76.925 328.91876Q77.26875 329.4344 77.45625 330.1844Q77.64375 330.9344 77.64375 332.21564Q77.64375 333.73126 77.33125 334.65314Q77.03438 335.575 76.40938 336.09064Q75.8 336.59064 74.84688 336.59064Q73.6125 336.59064 72.89375 335.7Q72.05 334.6375 72.05 332.21564ZM73.12813 332.21564Q73.12813 334.325 73.62813 335.02814Q74.12813 335.73126 74.84688 335.73126Q75.58125 335.73126 76.06563 335.02814Q76.56563 334.325 76.56563 332.21564Q76.56563 330.09064 76.06563 329.40314Q75.58125 328.7 74.83125 328.7Q74.1125 328.7 73.675 329.3094Q73.12813 330.09064 73.12813 332.21564Z" fill-rule="nonzero"/><path fill="#000000" d="M56.596874 274.3927L56.596874 275.40833L50.909374 275.40833Q50.909374 275.03333 51.034374 274.67395Q51.253124 274.09583 51.721874 273.53333Q52.20625 272.97083 53.1125 272.23645Q54.51875 271.0802 55.003124 270.40833Q55.503124 269.73645 55.503124 269.1427Q55.503124 268.5177 55.05 268.09583Q54.596874 267.65833 53.878124 267.65833Q53.1125 267.65833 52.659374 268.11145Q52.20625 268.56458 52.190624 269.37708L51.1125 269.2677Q51.221874 268.04895 51.940624 267.42395Q52.675 266.78333 53.909374 266.78333Q55.14375 266.78333 55.8625 267.47083Q56.58125 268.15833 56.58125 269.17395Q56.58125 269.68958 56.3625 270.18958Q56.159374 270.67395 55.659374 271.23645Q55.175 271.78333 54.05 272.73645Q53.096874 273.53333 52.815624 273.8302Q52.55 274.11145 52.378124 274.3927L56.596874 274.3927ZM58.05 271.17395Q58.05 269.6427 58.3625 268.72083Q58.675 267.78333 59.284374 267.28333Q59.909374 266.78333 60.846874 266.78333Q61.534374 266.78333 62.05 267.06458Q62.58125 267.34583 62.925 267.87708Q63.26875 268.3927 63.45625 269.1427Q63.64375 269.8927 63.64375 271.17395Q63.64375 272.68958 63.33125 273.61145Q63.034374 274.53333 62.409374 275.04895Q61.8 275.54895 60.846874 275.54895Q59.6125 275.54895 58.89375 274.65833Q58.05 273.59583 58.05 271.17395ZM59.128124 271.17395Q59.128124 273.28333 59.628124 273.98645Q60.128124 274.68958 60.846874 274.68958Q61.58125 274.68958 62.065624 273.98645Q62.565624 273.28333 62.565624 271.17395Q62.565624 269.04895 62.065624 268.36145Q61.58125 267.65833 60.83125 267.65833Q60.1125 267.65833 59.675 268.2677Q59.128124 269.04895 59.128124 271.17395ZM65.05 271.17395Q65.05 269.6427 65.3625 268.72083Q65.675 267.78333 66.28438 267.28333Q66.90938 266.78333 67.84688 266.78333Q68.53438 266.78333 69.05 267.06458Q69.58125 267.34583 69.925 267.87708Q70.26875 268.3927 70.45625 269.1427Q70.64375 269.8927 70.64375 271.17395Q70.64375 272.68958 70.33125 273.61145Q70.03438 274.53333 69.40938 275.04895Q68.8 275.54895 67.84688 275.54895Q66.6125 275.54895 65.89375 274.65833Q65.05 273.59583 65.05 271.17395ZM66.12813 271.17395Q66.12813 273.28333 66.62813 273.98645Q67.12813 274.68958 67.84688 274.68958Q68.58125 274.68958 69.06563 273.98645Q69.56563 273.28333 69.56563 271.17395Q69.56563 269.04895 69.06563 268.36145Q68.58125 267.65833 67.83125 267.65833Q67.1125 267.65833 66.675 268.2677Q66.12813 269.04895 66.12813 271.17395ZM72.05 271.17395Q72.05 269.6427 72.3625 268.72083Q72.675 267.78333 73.28438 267.28333Q73.90938 266.78333 74.84688 266.78333Q75.53438 266.78333 76.05 267.06458Q76.58125 267.34583 76.925 267.87708Q77.26875 268.3927 77.45625 269.1427Q77.64375 269.8927 77.64375 271.17395Q77.64375 272.68958 77.33125 273.61145Q77.03438 274.53333 76.40938 275.04895Q75.8 275.54895 74.84688 275.54895Q73.6125 275.54895 72.89375 274.65833Q72.05 273.59583 72.05 271.17395ZM73.12813 271.17395Q73.12813 273.28333 73.62813 273.98645Q74.12813 274.68958 74.84688 274.68958Q75.58125 274.68958 76.06563 273.98645Q76.56563 273.28333 76.56563 271.17395Q76.56563 269.04895 76.06563 268.36145Q75.58125 267.65833 74.83125 267.65833Q74.1125 267.65833 73.675 268.2677Q73.12813 269.04895 73.12813 271.17395Z" fill-rule="nonzero"/><path fill="#000000" d="M54.425 214.36667L54.425 212.30417L50.70625 212.30417L50.70625 211.33542L54.628124 205.77292L55.4875 205.77292L55.4875 211.33542L56.64375 211.33542L56.64375 212.30417L55.4875 212.30417L55.4875 214.36667L54.425 214.36667ZM54.425 211.33542L54.425 207.47604L51.7375 211.33542L54.425 211.33542ZM58.05 210.1323Q58.05 208.60104 58.3625 207.67917Q58.675 206.74167 59.284374 206.24167Q59.909374 205.74167 60.846874 205.74167Q61.534374 205.74167 62.05 206.02292Q62.58125 206.30417 62.925 206.83542Q63.26875 207.35104 63.45625 208.10104Q63.64375 208.85104 63.64375 210.1323Q63.64375 211.64792 63.33125 212.5698Q63.034374 213.49167 62.409374 214.0073Q61.8 214.5073 60.846874 214.5073Q59.6125 214.5073 58.89375 213.61667Q58.05 212.55417 58.05 210.1323ZM59.128124 210.1323Q59.128124 212.24167 59.628124 212.9448Q60.128124 213.64792 60.846874 213.64792Q61.58125 213.64792 62.065624 212.9448Q62.565624 212.24167 62.565624 210.1323Q62.565624 208.0073 62.065624 207.3198Q61.58125 206.61667 60.83125 206.61667Q60.1125 206.61667 59.675 207.22604Q59.128124 208.0073 59.128124 210.1323ZM65.05 210.1323Q65.05 208.60104 65.3625 207.67917Q65.675 206.74167 66.28438 206.24167Q66.90938 205.74167 67.84688 205.74167Q68.53438 205.74167 69.05 206.02292Q69.58125 206.30417 69.925 206.83542Q70.26875 207.35104 70.45625 208.10104Q70.64375 208.85104 70.64375 210.1323Q70.64375 211.64792 70.33125 212.5698Q70.03438 213.49167 69.40938 214.0073Q68.8 214.5073 67.84688 214.5073Q66.6125 214.5073 65.89375 213.61667Q65.05 212.55417 65.05 210.1323ZM66.12813 210.1323Q66.12813 212.24167 66.62813 212.9448Q67.12813 213.64792 67.84688 213.64792Q68.58125 213.64792 69.06563 212.9448Q69.56563 212.24167 69.56563 210.1323Q69.56563 208.0073 69.06563 207.3198Q68.58125 206.61667 67.83125 206.61667Q67.1125 206.61667 66.675 207.22604Q66.12813 208.0073 66.12813 210.1323ZM72.05 210.1323Q72.05 208.60104 72.3625 207.67917Q72.675 206.74167 73.28438 206.24167Q73.90938 205.74167 74.84688 205.74167Q75.53438 205.74167 76.05 206.02292Q76.58125 206.30417 76.925 206.83542Q77.26875 207.35104 77.45625 208.10104Q77.64375 208.85104 77.64375 210.1323Q77.64375 211.64792 77.33125 212.5698Q77.03438 213.49167 76.40938 214.0073Q75.8 214.5073 74.84688 214.5073Q73.6125 214.5073 72.89375 213.61667Q72.05 212.55417 72.05 210.1323ZM73.12813 210.1323Q73.12813 212.24167 73.62813 212.9448Q74.12813 213.64792 74.84688 213.64792Q75.58125 213.64792 76.06563 212.9448Q76.56563 212.24167 76.56563 210.1323Q76.56563 208.0073 76.06563 207.3198Q75.58125 206.61667 74.83125 206.61667Q74.1125 206.61667 73.675 207.22604Q73.12813 208.0073 73.12813 210.1323Z" fill-rule="nonzero"/><path fill="#000000" d="M56.51875 146.84062L55.471874 146.91875Q55.33125 146.29375 55.08125 146.0125Q54.64375 145.55937 54.01875 145.55937Q53.51875 145.55937 53.128124 145.84062Q52.64375 146.21562 52.346874 146.91875Q52.065624 147.60625 52.05 148.8875Q52.425 148.30937 52.971874 148.02812Q53.534374 147.74687 54.14375 147.74687Q55.190624 147.74687 55.925 148.52812Q56.675 149.30937 56.675 150.52812Q56.675 151.34062 56.315624 152.04375Q55.971874 152.73125 55.3625 153.10625Q54.753124 153.46562 53.9875 153.46562Q52.659374 153.46562 51.83125 152.49687Q51.003124 151.52812 51.003124 149.30937Q51.003124 146.80937 51.925 145.68437Q52.721874 144.7 54.08125 144.7Q55.096874 144.7 55.7375 145.27812Q56.39375 145.84062 56.51875 146.84062ZM52.221874 150.54375Q52.221874 151.09062 52.440624 151.59062Q52.675 152.075 53.08125 152.34062Q53.503124 152.60625 53.971874 152.60625Q54.628124 152.60625 55.1125 152.075Q55.596874 151.52812 55.596874 150.60625Q55.596874 149.71562 55.1125 149.2Q54.64375 148.68437 53.925 148.68437Q53.20625 148.68437 52.70625 149.2Q52.221874 149.71562 52.221874 150.54375ZM58.05 149.09062Q58.05 147.55937 58.3625 146.6375Q58.675 145.7 59.284374 145.2Q59.909374 144.7 60.846874 144.7Q61.534374 144.7 62.05 144.98125Q62.58125 145.2625 62.925 145.79375Q63.26875 146.30937 63.45625 147.05937Q63.64375 147.80937 63.64375 149.09062Q63.64375 150.60625 63.33125 151.52812Q63.034374 152.45 62.409374 152.96562Q61.8 153.46562 60.846874 153.46562Q59.6125 153.46562 58.89375 152.575Q58.05 151.5125 58.05 149.09062ZM59.128124 149.09062Q59.128124 151.2 59.628124 151.90312Q60.128124 152.60625 60.846874 152.60625Q61.58125 152.60625 62.065624 151.90312Q62.565624 151.2 62.565624 149.09062Q62.565624 146.96562 62.065624 146.27812Q61.58125 145.575 60.83125 145.575Q60.1125 145.575 59.675 146.18437Q59.128124 146.96562 59.128124 149.09062ZM65.05 149.09062Q65.05 147.55937 65.3625 146.6375Q65.675 145.7 66.28438 145.2Q66.90938 144.7 67.84688 144.7Q68.53438 144.7 69.05 144.98125Q69.58125 145.2625 69.925 145.79375Q70.26875 146.30937 70.45625 147.05937Q70.64375 147.80937 70.64375 149.09062Q70.64375 150.60625 70.33125 151.52812Q70.03438 152.45 69.40938 152.96562Q68.8 153.46562 67.84688 153.46562Q66.6125 153.46562 65.89375 152.575Q65.05 151.5125 65.05 149.09062ZM66.12813 149.09062Q66.12813 151.2 66.62813 151.90312Q67.12813 152.60625 67.84688 152.60625Q68.58125 152.60625 69.06563 151.90312Q69.56563 151.2 69.56563 149.09062Q69.56563 146.96562 69.06563 146.27812Q68.58125 145.575 67.83125 145.575Q67.1125 145.575 66.675 146.18437Q66.12813 146.96562 66.12813 149.09062ZM72.05 149.09062Q72.05 147.55937 72.3625 146.6375Q72.675 145.7 73.28438 145.2Q73.90938 144.7 74.84688 144.7Q75.53438 144.7 76.05 144.98125Q76.58125 145.2625 76.925 145.79375Q77.26875 146.30937 77.45625 147.05937Q77.64375 147.80937 77.64375 149.09062Q77.64375 150.60625 77.33125 151.52812Q77.03438 152.45 76.40938 152.96562Q75.8 153.46562 74.84688 153.46562Q73.6125 153.46562 72.89375 152.575Q72.05 151.5125 72.05 149.09062ZM73.12813 149.09062Q73.12813 151.2 73.62813 151.90312Q74.12813 152.60625 74.84688 152.60625Q75.58125 152.60625 76.06563 151.90312Q76.56563 151.2 76.56563 149.09062Q76.56563 146.96562 76.06563 146.27812Q75.58125 145.575 74.83125 145.575Q74.1125 145.575 73.675 146.18437Q73.12813 146.96562 73.12813 149.09062Z" fill-rule="nonzero"/><path fill="#000000" d="M52.675 87.62708Q52.01875 87.37708 51.690624 86.93958Q51.378124 86.48646 51.378124 85.87708Q51.378124 84.93958 52.05 84.29896Q52.7375 83.65833 53.846874 83.65833Q54.971874 83.65833 55.659374 84.31458Q56.346874 84.97083 56.346874 85.90833Q56.346874 86.50208 56.034374 86.93958Q55.721874 87.37708 55.08125 87.62708Q55.878124 87.87708 56.284374 88.45521Q56.690624 89.03333 56.690624 89.83021Q56.690624 90.92396 55.909374 91.67396Q55.14375 92.42396 53.8625 92.42396Q52.596874 92.42396 51.815624 91.67396Q51.034374 90.92396 51.034374 89.79896Q51.034374 88.95521 51.45625 88.39271Q51.89375 87.83021 52.675 87.62708ZM52.45625 85.83021Q52.45625 86.43958 52.846874 86.83021Q53.253124 87.22083 53.878124 87.22083Q54.4875 87.22083 54.878124 86.84583Q55.26875 86.45521 55.26875 85.89271Q55.26875 85.31458 54.8625 84.92396Q54.45625 84.51771 53.8625 84.51771Q53.253124 84.51771 52.846874 84.90833Q52.45625 85.29896 52.45625 85.83021ZM52.128124 89.79896Q52.128124 90.25208 52.33125 90.67396Q52.55 91.09583 52.971874 91.33021Q53.39375 91.56458 53.878124 91.56458Q54.628124 91.56458 55.1125 91.08021Q55.6125 90.59583 55.6125 89.84583Q55.6125 89.08021 55.1125 88.58021Q54.6125 88.08021 53.846874 88.08021Q53.096874 88.08021 52.6125 88.58021Q52.128124 89.06458 52.128124 89.79896ZM58.05 88.04896Q58.05 86.51771 58.3625 85.59583Q58.675 84.65833 59.284374 84.15833Q59.909374 83.65833 60.846874 83.65833Q61.534374 83.65833 62.05 83.93958Q62.58125 84.22083 62.925 84.75208Q63.26875 85.26771 63.45625 86.01771Q63.64375 86.76771 63.64375 88.04896Q63.64375 89.56458 63.33125 90.48646Q63.034374 91.40833 62.409374 91.92396Q61.8 92.42396 60.846874 92.42396Q59.6125 92.42396 58.89375 91.53333Q58.05 90.47083 58.05 88.04896ZM59.128124 88.04896Q59.128124 90.15833 59.628124 90.86146Q60.128124 91.56458 60.846874 91.56458Q61.58125 91.56458 62.065624 90.86146Q62.565624 90.15833 62.565624 88.04896Q62.565624 85.92396 62.065624 85.23646Q61.58125 84.53333 60.83125 84.53333Q60.1125 84.53333 59.675 85.14271Q59.128124 85.92396 59.128124 88.04896ZM65.05 88.04896Q65.05 86.51771 65.3625 85.59583Q65.675 84.65833 66.28438 84.15833Q66.90938 83.65833 67.84688 83.65833Q68.53438 83.65833 69.05 83.93958Q69.58125 84.22083 69.925 84.75208Q70.26875 85.26771 70.45625 86.01771Q70.64375 86.76771 70.64375 88.04896Q70.64375 89.56458 70.33125 90.48646Q70.03438 91.40833 69.40938 91.92396Q68.8 92.42396 67.84688 92.42396Q66.6125 92.42396 65.89375 91.53333Q65.05 90.47083 65.05 88.04896ZM66.12813 88.04896Q66.12813 90.15833 66.62813 90.86146Q67.12813 91.56458 67.84688 91.56458Q68.58125 91.56458 69.06563 90.86146Q69.56563 90.15833 69.56563 88.04896Q69.56563 85.92396 69.06563 85.23646Q68.58125 84.53333 67.83125 84.53333Q67.1125 84.53333 66.675 85.14271Q66.12813 85.92396 66.12813 88.04896ZM72.05 88.04896Q72.05 86.51771 72.3625 85.59583Q72.675 84.65833 73.28438 84.15833Q73.90938 83.65833 74.84688 83.65833Q75.53438 83.65833 76.05 83.93958Q76.58125 84.22083 76.925 84.75208Q77.26875 85.26771 77.45625 86.01771Q77.64375 86.76771 77.64375 88.04896Q77.64375 89.56458 77.33125 90.48646Q77.03438 91.40833 76.40938 91.92396Q75.8 92.42396 74.84688 92.42396Q73.6125 92.42396 72.89375 91.53333Q72.05 90.47083 72.05 88.04896ZM73.12813 88.04896Q73.12813 90.15833 73.62813 90.86146Q74.12813 91.56458 74.84688 91.56458Q75.58125 91.56458 76.06563 90.86146Q76.56563 90.15833 76.56563 88.04896Q76.56563 85.92396 76.06563 85.23646Q75.58125 84.53333 74.83125 84.53333Q74.1125 84.53333 73.675 85.14271Q73.12813 85.92396 73.12813 88.04896Z" fill-rule="nonzero"/><path fill="#000000" d="M326.5625 346.4344L327.6875 346.73126Q327.32812 348.1219 326.40625 348.85626Q325.48438 349.59064 324.14062 349.59064Q322.75 349.59064 321.875 349.02814Q321.0 348.46564 320.54688 347.40314Q320.09375 346.325 320.09375 345.09064Q320.09375 343.7469 320.60938 342.7469Q321.125 341.7469 322.0625 341.23126Q323.01562 340.71564 324.15625 340.71564Q325.4375 340.71564 326.3125 341.3719Q327.20312 342.02814 327.54688 343.21564L326.42188 343.48126Q326.125 342.54376 325.54688 342.1219Q324.98438 341.6844 324.125 341.6844Q323.14062 341.6844 322.46875 342.16876Q321.8125 342.6375 321.53125 343.4344Q321.26562 344.23126 321.26562 345.09064Q321.26562 346.1844 321.57812 346.9969Q321.90625 347.8094 322.57812 348.21564Q323.25 348.6219 324.04688 348.6219Q325.0 348.6219 325.65625 348.075Q326.32812 347.52814 326.5625 346.4344ZM329.42188 349.45L329.42188 340.85626L332.39062 340.85626Q333.39062 340.85626 333.92188 340.98126Q334.65625 341.15314 335.17188 341.59064Q335.85938 342.16876 336.1875 343.075Q336.53125 343.96564 336.53125 345.10626Q336.53125 346.09064 336.29688 346.84064Q336.07812 347.59064 335.71875 348.09064Q335.35938 348.59064 334.92188 348.8719Q334.5 349.15314 333.90625 349.3094Q333.3125 349.45 332.53125 349.45L329.42188 349.45ZM330.5625 348.4344L332.39062 348.4344Q333.25 348.4344 333.73438 348.27814Q334.21875 348.1219 334.5 347.825Q334.90625 347.4344 335.125 346.7469Q335.35938 346.0594 335.35938 345.09064Q335.35938 343.7469 334.90625 343.02814Q334.46875 342.29376 333.84375 342.04376Q333.375 341.8719 332.375 341.8719L330.5625 341.8719L330.5625 348.4344ZM344.5625 346.4344L345.6875 346.73126Q345.32812 348.1219 344.40625 348.85626Q343.48438 349.59064 342.14062 349.59064Q340.75 349.59064 339.875 349.02814Q339.0 348.46564 338.54688 347.40314Q338.09375 346.325 338.09375 345.09064Q338.09375 343.7469 338.60938 342.7469Q339.125 341.7469 340.0625 341.23126Q341.01562 340.71564 342.15625 340.71564Q343.4375 340.71564 344.3125 341.3719Q345.20312 342.02814 345.54688 343.21564L344.42188 343.48126Q344.125 342.54376 343.54688 342.1219Q342.98438 341.6844 342.125 341.6844Q341.14062 341.6844 340.46875 342.16876Q339.8125 342.6375 339.53125 343.4344Q339.26562 344.23126 339.26562 345.09064Q339.26562 346.1844 339.57812 346.9969Q339.90625 347.8094 340.57812 348.21564Q341.25 348.6219 342.04688 348.6219Q343.0 348.6219 343.65625 348.075Q344.32812 347.52814 344.5625 346.4344Z" fill-rule="nonzero"/><path fill="#4285f4" d="M210.5 56.916668C210.5 56.364384 210.94771 55.916668 211.5 55.916668L221.5 55.916668C222.05229 55.916668 222.5 56.364384 222.5 56.916668L222.5 66.916664C222.5 67.46895 222.05229 67.916664 221.5 67.916664L211.5 67.916664C210.94771 67.916664 210.5 67.46895 210.5 66.916664Z" fill-rule="nonzero"/><path fill="#1a1a1a" d="M237.5625 62.90104L238.6875 63.197914Q238.32812 64.58854 237.40625 65.322914Q236.48438 66.05729 235.14062 66.05729Q233.75 66.05729 232.875 65.49479Q232.0 64.93229 231.54688 63.86979Q231.09375 62.791664 231.09375 61.55729Q231.09375 60.21354 231.60938 59.21354Q232.125 58.21354 233.0625 57.697914Q234.01562 57.18229 235.15625 57.18229Q236.4375 57.18229 237.3125 57.83854Q238.20312 58.49479 238.54688 59.68229L237.42188 59.947914Q237.125 59.010414 236.54688 58.58854Q235.98438 58.15104 235.125 58.15104Q234.14062 58.15104 233.46875 58.635414Q232.8125 59.104164 232.53125 59.90104Q232.26562 60.697914 232.26562 61.55729Q232.26562 62.65104 232.57812 63.46354Q232.90625 64.27604 233.57812 64.68229Q234.25 65.08854 235.04688 65.08854Q236.0 65.08854 236.65625 64.541664Q237.32812 63.99479 237.5625 62.90104ZM239.90625 62.80729Q239.90625 61.072914 240.85938 60.24479Q241.65625 59.55729 242.8125 59.55729Q244.09375 59.55729 244.90625 60.40104Q245.73438 61.229164 245.73438 62.71354Q245.73438 63.916664 245.375 64.604164Q245.01562 65.291664 244.3125 65.68229Q243.625 66.05729 242.8125 66.05729Q241.51562 66.05729 240.70312 65.229164Q239.90625 64.385414 239.90625 62.80729ZM240.98438 62.80729Q240.98438 63.99479 241.5 64.58854Q242.03125 65.18229 242.8125 65.18229Q243.60938 65.18229 244.125 64.58854Q244.64062 63.99479 244.64062 62.77604Q244.64062 61.61979 244.10938 61.02604Q243.59375 60.43229 242.8125 60.43229Q242.03125 60.43229 241.5 61.02604Q240.98438 61.604164 240.98438 62.80729ZM247.29688 65.916664L247.29688 59.697914L248.23438 59.697914L248.23438 60.572914Q248.92188 59.55729 250.21875 59.55729Q250.78125 59.55729 251.25 59.760414Q251.73438 59.96354 251.96875 60.291664Q252.20312 60.61979 252.29688 61.05729Q252.34375 61.354164 252.34375 62.08854L252.34375 65.916664L251.29688 65.916664L251.29688 62.135414Q251.29688 61.479164 251.17188 61.166664Q251.04688 60.854164 250.73438 60.666664Q250.42188 60.46354 250.0 60.46354Q249.32812 60.46354 248.82812 60.90104Q248.34375 61.322914 248.34375 62.510414L248.34375 65.916664L247.29688 65.916664ZM258.32812 65.916664L258.32812 65.135414Q257.73438 66.05729 256.59375 66.05729Q255.84375 66.05729 255.21875 65.65104Q254.59375 65.229164 254.25 64.49479Q253.90625 63.760414 253.90625 62.80729Q253.90625 61.885414 254.21875 61.11979Q254.53125 60.354164 255.15625 59.96354Q255.78125 59.55729 256.54688 59.55729Q257.10938 59.55729 257.54688 59.791664Q257.98438 60.02604 258.26562 60.40104L258.26562 57.322914L259.3125 57.322914L259.3125 65.916664L258.32812 65.916664ZM255.0 62.80729Q255.0 64.010414 255.5 64.604164Q256.0 65.18229 256.6875 65.18229Q257.375 65.18229 257.85938 64.61979Q258.34375 64.05729 258.34375 62.90104Q258.34375 61.61979 257.84375 61.02604Q257.35938 60.43229 256.64062 60.43229Q255.9375 60.43229 255.46875 61.010414Q255.0 61.572914 255.0 62.80729ZM265.375 65.916664L265.375 64.99479Q264.64062 66.05729 263.39062 66.05729Q262.84375 66.05729 262.35938 65.854164Q261.89062 65.635414 261.65625 65.322914Q261.42188 64.99479 261.32812 64.52604Q261.26562 64.229164 261.26562 63.541664L261.26562 59.697914L262.32812 59.697914L262.32812 63.15104Q262.32812 63.96354 262.39062 64.260414Q262.48438 64.666664 262.79688 64.916664Q263.125 65.15104 263.60938 65.15104Q264.07812 65.15104 264.48438 64.916664Q264.90625 64.666664 265.07812 64.24479Q265.26562 63.822914 265.26562 63.02604L265.26562 59.697914L266.3125 59.697914L266.3125 65.916664L265.375 65.916664ZM268.29688 58.541664L268.29688 57.322914L269.35938 57.322914L269.35938 58.541664L268.29688 58.541664ZM268.29688 65.916664L268.29688 59.697914L269.35938 59.697914L269.35938 65.916664L268.29688 65.916664ZM273.59375 64.979164L273.75 65.90104Q273.29688 65.99479 272.95312 65.99479Q272.375 65.99479 272.0625 65.822914Q271.75 65.635414 271.60938 65.33854Q271.48438 65.041664 271.48438 64.08854L271.48438 60.510414L270.71875 60.510414L270.71875 59.697914L271.48438 59.697914L271.48438 58.15104L272.53125 57.52604L272.53125 59.697914L273.59375 59.697914L273.59375 60.510414L272.53125 60.510414L272.53125 64.15104Q272.53125 64.604164 272.57812 64.729164Q272.64062 64.854164 272.76562 64.93229Q272.89062 65.010414 273.125 65.010414Q273.3125 65.010414 273.59375 64.979164Z" fill-rule="nonzero"/><path fill="#ea4335" d="M289.5 56.916668C289.5 56.364384 289.94772 55.916668 290.5 55.916668L300.5 55.916668C301.05228 55.916668 301.5 56.364384 301.5 56.916668L301.5 66.916664C301.5 67.46895 301.05228 67.916664 300.5 67.916664L290.5 67.916664C289.94772 67.916664 289.5 67.46895 289.5 66.916664Z" fill-rule="nonzero"/><path fill="#1a1a1a" d="M310.375 65.916664L310.375 57.322914L311.51562 57.322914L311.51562 61.58854L315.78125 57.322914L317.32812 57.322914L313.71875 60.80729L317.48438 65.916664L315.98438 65.916664L312.92188 61.572914L311.51562 62.93229L311.51562 65.916664L310.375 65.916664ZM322.35938 65.15104Q321.76562 65.65104 321.21875 65.854164Q320.6875 66.05729 320.0625 66.05729Q319.03125 66.05729 318.48438 65.55729Q317.9375 65.05729 317.9375 64.27604Q317.9375 63.822914 318.14062 63.447914Q318.34375 63.05729 318.6875 62.83854Q319.03125 62.604164 319.45312 62.49479Q319.75 62.40104 320.39062 62.322914Q321.65625 62.18229 322.26562 61.96354Q322.26562 61.74479 322.26562 61.697914Q322.26562 61.041664 321.96875 60.77604Q321.5625 60.43229 320.76562 60.43229Q320.03125 60.43229 319.67188 60.697914Q319.3125 60.947914 319.14062 61.604164L318.10938 61.46354Q318.25 60.80729 318.57812 60.40104Q318.90625 59.99479 319.51562 59.77604Q320.125 59.55729 320.92188 59.55729Q321.71875 59.55729 322.21875 59.74479Q322.71875 59.93229 322.95312 60.21354Q323.1875 60.49479 323.28125 60.93229Q323.32812 61.197914 323.32812 61.90104L323.32812 63.30729Q323.32812 64.77604 323.39062 65.166664Q323.46875 65.55729 323.67188 65.916664L322.5625 65.916664Q322.40625 65.58854 322.35938 65.15104ZM322.26562 62.791664Q321.6875 63.02604 320.54688 63.197914Q319.89062 63.291664 319.625 63.416664Q319.35938 63.52604 319.20312 63.74479Q319.0625 63.96354 319.0625 64.24479Q319.0625 64.666664 319.375 64.947914Q319.70312 65.229164 320.3125 65.229164Q320.92188 65.229164 321.39062 64.96354Q321.875 64.697914 322.09375 64.229164Q322.26562 63.86979 322.26562 63.18229L322.26562 62.791664ZM325.54688 65.916664L325.54688 60.510414L324.60938 60.510414L324.60938 59.697914L325.54688 59.697914L325.54688 59.02604Q325.54688 58.40104 325.65625 58.104164Q325.8125 57.68229 326.1875 57.43229Q326.57812 57.18229 327.26562 57.18229Q327.71875 57.18229 328.25 57.291664L328.09375 58.197914Q327.76562 58.15104 327.46875 58.15104Q326.98438 58.15104 326.78125 58.354164Q326.59375 58.55729 326.59375 59.11979L326.59375 59.697914L327.8125 59.697914L327.8125 60.510414L326.59375 60.510414L326.59375 65.916664L325.54688 65.916664ZM328.29688 65.916664L328.29688 57.322914L329.35938 57.322914L329.35938 62.229164L331.84375 59.697914L333.21875 59.697914L330.82812 61.99479L333.45312 65.916664L332.15625 65.916664L330.09375 62.729164L329.35938 63.447914L329.35938 65.916664L328.29688 65.916664ZM338.35938 65.15104Q337.76562 65.65104 337.21875 65.854164Q336.6875 66.05729 336.0625 66.05729Q335.03125 66.05729 334.48438 65.55729Q333.9375 65.05729 333.9375 64.27604Q333.9375 63.822914 334.14062 63.447914Q334.34375 63.05729 334.6875 62.83854Q335.03125 62.604164 335.45312 62.49479Q335.75 62.40104 336.39062 62.322914Q337.65625 62.18229 338.26562 61.96354Q338.26562 61.74479 338.26562 61.697914Q338.26562 61.041664 337.96875 60.77604Q337.5625 60.43229 336.76562 60.43229Q336.03125 60.43229 335.67188 60.697914Q335.3125 60.947914 335.14062 61.604164L334.10938 61.46354Q334.25 60.80729 334.57812 60.40104Q334.90625 59.99479 335.51562 59.77604Q336.125 59.55729 336.92188 59.55729Q337.71875 59.55729 338.21875 59.74479Q338.71875 59.93229 338.95312 60.21354Q339.1875 60.49479 339.28125 60.93229Q339.32812 61.197914 339.32812 61.90104L339.32812 63.30729Q339.32812 64.77604 339.39062 65.166664Q339.46875 65.55729 339.67188 65.916664L338.5625 65.916664Q338.40625 65.58854 338.35938 65.15104ZM338.26562 62.791664Q337.6875 63.02604 336.54688 63.197914Q335.89062 63.291664 335.625 63.416664Q335.35938 63.52604 335.20312 63.74479Q335.0625 63.96354 335.0625 64.24479Q335.0625 64.666664 335.375 64.947914Q335.70312 65.229164 336.3125 65.229164Q336.92188 65.229164 337.39062 64.96354Q337.875 64.697914 338.09375 64.229164Q338.26562 63.86979 338.26562 63.18229L338.26562 62.791664ZM350.5625 62.90104L351.6875 63.197914Q351.32812 64.58854 350.40625 65.322914Q349.48438 66.05729 348.14062 66.05729Q346.75 66.05729 345.875 65.49479Q345.0 64.93229 344.54688 63.86979Q344.09375 62.791664 344.09375 61.55729Q344.09375 60.21354 344.60938 59.21354Q345.125 58.21354 346.0625 57.697914Q347.01562 57.18229 348.15625 57.18229Q349.4375 57.18229 350.3125 57.83854Q351.20312 58.49479 351.54688 59.68229L350.42188 59.947914Q350.125 59.010414 349.54688 58.58854Q348.98438 58.15104 348.125 58.15104Q347.14062 58.15104 346.46875 58.635414Q345.8125 59.104164 345.53125 59.90104Q345.26562 60.697914 345.26562 61.55729Q345.26562 62.65104 345.57812 63.46354Q345.90625 64.27604 346.57812 64.68229Q347.25 65.08854 348.04688 65.08854Q349.0 65.08854 349.65625 64.541664Q350.32812 63.99479 350.5625 62.90104ZM352.90625 62.80729Q352.90625 61.072914 353.85938 60.24479Q354.65625 59.55729 355.8125 59.55729Q357.09375 59.55729 357.90625 60.40104Q358.73438 61.229164 358.73438 62.71354Q358.73438 63.916664 358.375 64.604164Q358.01562 65.291664 357.3125 65.68229Q356.625 66.05729 355.8125 66.05729Q354.51562 66.05729 353.70312 65.229164Q352.90625 64.385414 352.90625 62.80729ZM353.98438 62.80729Q353.98438 63.99479 354.5 64.58854Q355.03125 65.18229 355.8125 65.18229Q356.60938 65.18229 357.125 64.58854Q357.64062 63.99479 357.64062 62.77604Q357.64062 61.61979 357.10938 61.02604Q356.59375 60.43229 355.8125 60.43229Q355.03125 60.43229 354.5 61.02604Q353.98438 61.604164 353.98438 62.80729ZM360.29688 65.916664L360.29688 59.697914L361.23438 59.697914L361.23438 60.572914Q361.92188 59.55729 363.21875 59.55729Q363.78125 59.55729 364.25 59.760414Q364.73438 59.96354 364.96875 60.291664Q365.20312 60.61979 365.29688 61.05729Q365.34375 61.354164 365.34375 62.08854L365.34375 65.916664L364.29688 65.916664L364.29688 62.135414Q364.29688 61.479164 364.17188 61.166664Q364.04688 60.854164 363.73438 60.666664Q363.42188 60.46354 363.0 60.46354Q362.32812 60.46354 361.82812 60.90104Q361.34375 61.322914 361.34375 62.510414L361.34375 65.916664L360.29688 65.916664ZM367.29688 65.916664L367.29688 59.697914L368.23438 59.697914L368.23438 60.572914Q368.92188 59.55729 370.21875 59.55729Q370.78125 59.55729 371.25 59.760414Q371.73438 59.96354 371.96875 60.291664Q372.20312 60.61979 372.29688 61.05729Q372.34375 61.354164 372.34375 62.08854L372.34375 65.916664L371.29688 65.916664L371.29688 62.135414Q371.29688 61.479164 371.17188 61.166664Q371.04688 60.854164 370.73438 60.666664Q370.42188 60.46354 370.0 60.46354Q369.32812 60.46354 368.82812 60.90104Q368.34375 61.322914 368.34375 62.510414L368.34375 65.916664L367.29688 65.916664ZM378.54688 63.916664L379.64062 64.041664Q379.39062 64.99479 378.6875 65.52604Q377.98438 66.05729 376.90625 66.05729Q375.54688 66.05729 374.73438 65.21354Q373.9375 64.36979 373.9375 62.854164Q373.9375 61.291664 374.75 60.43229Q375.5625 59.55729 376.84375 59.55729Q378.09375 59.55729 378.875 60.40104Q379.67188 61.24479 379.67188 62.791664Q379.67188 62.885414 379.67188 63.072914L375.03125 63.072914Q375.09375 64.104164 375.60938 64.65104Q376.125 65.18229 376.90625 65.18229Q377.48438 65.18229 377.89062 64.885414Q378.3125 64.572914 378.54688 63.916664ZM375.09375 62.21354L378.5625 62.21354Q378.5 61.416664 378.17188 61.02604Q377.65625 60.416664 376.85938 60.416664Q376.125 60.416664 375.625 60.90104Q375.14062 61.385414 375.09375 62.21354ZM385.35938 63.635414L386.39062 63.77604Q386.21875 64.83854 385.51562 65.447914Q384.8125 66.05729 383.79688 66.05729Q382.51562 66.05729 381.73438 65.229164Q380.96875 64.385414 380.96875 62.822914Q380.96875 61.822914 381.29688 61.072914Q381.64062 60.30729 382.3125 59.93229Q383.0 59.55729 383.8125 59.55729Q384.8125 59.55729 385.45312 60.072914Q386.10938 60.572914 386.29688 61.52604L385.26562 61.68229Q385.125 61.05729 384.75 60.74479Q384.375 60.416664 383.84375 60.416664Q383.04688 60.416664 382.54688 60.99479Q382.04688 61.55729 382.04688 62.791664Q382.04688 64.05729 382.53125 64.61979Q383.01562 65.18229 383.78125 65.18229Q384.40625 65.18229 384.8125 64.80729Q385.23438 64.43229 385.35938 63.635414ZM389.59375 64.979164L389.75 65.90104Q389.29688 65.99479 388.95312 65.99479Q388.375 65.99479 388.0625 65.822914Q387.75 65.635414 387.60938 65.33854Q387.48438 65.041664 387.48438 64.08854L387.48438 60.510414L386.71875 60.510414L386.71875 59.697914L387.48438 59.697914L387.48438 58.15104L388.53125 57.52604L388.53125 59.697914L389.59375 59.697914L389.59375 60.510414L388.53125 60.510414L388.53125 64.15104Q388.53125 64.604164 388.57812 64.729164Q388.64062 64.854164 388.76562 64.93229Q388.89062 65.010414 389.125 65.010414Q389.3125 65.010414 389.59375 64.979164Z" fill-rule="nonzero"/><path fill="#757575" d="M250.07812 37.55L250.07812 23.2375L256.42188 23.2375Q258.32812 23.2375 259.32812 23.628124Q260.32812 24.003124 260.92188 24.9875Q261.51562 25.95625 261.51562 27.14375Q261.51562 28.659374 260.53125 29.70625Q259.54688 30.753124 257.48438 31.034374Q258.23438 31.39375 258.625 31.753124Q259.45312 32.503124 260.20312 33.659374L262.6875 37.55L260.3125 37.55L258.40625 34.565624Q257.57812 33.284374 257.04688 32.596874Q256.51562 31.909374 256.07812 31.64375Q255.65625 31.3625 255.21875 31.253124Q254.89062 31.190624 254.17188 31.190624L251.96875 31.190624L251.96875 37.55L250.07812 37.55ZM251.96875 29.55L256.04688 29.55Q257.34375 29.55 258.0625 29.284374Q258.79688 29.01875 259.17188 28.425Q259.5625 27.83125 259.5625 27.14375Q259.5625 26.128124 258.82812 25.471874Q258.09375 24.815624 256.5 24.815624L251.96875 24.815624L251.96875 29.55ZM262.46875 37.55L267.96875 23.2375L270.01562 23.2375L275.875 37.55L273.71875 37.55L272.04688 33.20625L266.0625 33.20625L264.48438 37.55L262.46875 37.55ZM266.60938 31.675L271.45312 31.675L269.96875 27.70625Q269.28125 25.89375 268.95312 24.7375Q268.67188 26.1125 268.17188 27.471874L266.60938 31.675ZM276.98438 37.55L276.98438 23.2375L279.84375 23.2375L283.21875 33.3625Q283.6875 34.784374 283.90625 35.4875Q284.15625 34.70625 284.67188 33.190624L288.09375 23.2375L290.64062 23.2375L290.64062 37.55L288.82812 37.55L288.82812 25.565624L284.65625 37.55L282.95312 37.55L278.8125 25.3625L278.8125 37.55L276.98438 37.55ZM306.60938 37.55L306.60938 36.01875Q305.40625 37.784374 303.32812 37.784374Q302.40625 37.784374 301.60938 37.440624Q300.8125 37.08125 300.42188 36.55Q300.04688 36.01875 299.89062 35.2375Q299.78125 34.721874 299.78125 33.596874L299.78125 27.175L301.53125 27.175L301.53125 32.925Q301.53125 34.3 301.64062 34.784374Q301.8125 35.471874 302.34375 35.878124Q302.89062 36.26875 303.67188 36.26875Q304.46875 36.26875 305.15625 35.8625Q305.85938 35.45625 306.14062 34.76875Q306.4375 34.065624 306.4375 32.7375L306.4375 27.175L308.1875 27.175L308.1875 37.55L306.60938 37.55ZM309.10938 34.45625L310.85938 34.175Q311.0 35.221874 311.67188 35.784374Q312.34375 36.33125 313.54688 36.33125Q314.75 36.33125 315.32812 35.846874Q315.92188 35.346874 315.92188 34.690624Q315.92188 34.096874 315.40625 33.753124Q315.04688 33.51875 313.60938 33.159374Q311.67188 32.659374 310.92188 32.315624Q310.1875 31.95625 309.79688 31.33125Q309.40625 30.690624 309.40625 29.925Q309.40625 29.2375 309.71875 28.64375Q310.04688 28.05 310.59375 27.659374Q311.0 27.3625 311.70312 27.159374Q312.42188 26.940624 313.23438 26.940624Q314.45312 26.940624 315.375 27.3Q316.29688 27.64375 316.73438 28.253124Q317.17188 28.846874 317.34375 29.846874L315.625 30.08125Q315.5 29.284374 314.9375 28.846874Q314.375 28.39375 313.35938 28.39375Q312.14062 28.39375 311.625 28.8Q311.10938 29.190624 311.10938 29.721874Q311.10938 30.065624 311.32812 30.346874Q311.53125 30.628124 312.0 30.815624Q312.26562 30.909374 313.54688 31.253124Q315.42188 31.753124 316.15625 32.08125Q316.89062 32.39375 317.3125 33.003124Q317.73438 33.596874 317.73438 34.503124Q317.73438 35.378124 317.21875 36.159374Q316.70312 36.940624 315.73438 37.3625Q314.76562 37.784374 313.54688 37.784374Q311.53125 37.784374 310.46875 36.940624Q309.40625 36.096874 309.10938 34.45625ZM326.59375 36.26875Q325.60938 37.096874 324.70312 37.440624Q323.79688 37.784374 322.76562 37.784374Q321.0625 37.784374 320.14062 36.95625Q319.21875 36.1125 319.21875 34.815624Q319.21875 34.05 319.5625 33.425Q319.92188 32.8 320.48438 32.425Q321.04688 32.034374 321.75 31.83125Q322.26562 31.70625 323.3125 31.565624Q325.4375 31.315624 326.4375 30.971874Q326.45312 30.6125 326.45312 30.503124Q326.45312 29.440624 325.95312 28.9875Q325.28125 28.39375 323.95312 28.39375Q322.70312 28.39375 322.10938 28.83125Q321.53125 29.26875 321.25 30.378124L319.53125 30.14375Q319.76562 29.034374 320.29688 28.3625Q320.82812 27.675 321.84375 27.315624Q322.85938 26.940624 324.20312 26.940624Q325.53125 26.940624 326.35938 27.253124Q327.1875 27.565624 327.57812 28.05Q327.96875 28.51875 328.125 29.2375Q328.21875 29.690624 328.21875 30.8625L328.21875 33.20625Q328.21875 35.659374 328.32812 36.315624Q328.4375 36.95625 328.78125 37.55L326.9375 37.55Q326.67188 37.003124 326.59375 36.26875ZM326.4375 32.346874Q325.48438 32.7375 323.5625 33.003124Q322.48438 33.159374 322.03125 33.3625Q321.59375 33.55 321.34375 33.925Q321.09375 34.3 321.09375 34.76875Q321.09375 35.471874 321.625 35.940624Q322.15625 36.409374 323.1875 36.409374Q324.20312 36.409374 324.98438 35.971874Q325.78125 35.51875 326.15625 34.753124Q326.4375 34.14375 326.4375 32.9875L326.4375 32.346874ZM330.5 38.409374L332.20312 38.659374Q332.3125 39.45625 332.79688 39.815624Q333.45312 40.3 334.59375 40.3Q335.8125 40.3 336.46875 39.815624Q337.14062 39.33125 337.375 38.45625Q337.51562 37.909374 337.5 36.190624Q336.34375 37.55 334.625 37.55Q332.48438 37.55 331.3125 36.003124Q330.14062 34.45625 330.14062 32.3Q330.14062 30.815624 330.67188 29.565624Q331.21875 28.315624 332.23438 27.628124Q333.26562 26.940624 334.64062 26.940624Q336.46875 26.940624 337.67188 28.425L337.67188 27.175L339.28125 27.175L339.28125 36.14375Q339.28125 38.565624 338.78125 39.565624Q338.29688 40.58125 337.21875 41.159374Q336.15625 41.753124 334.59375 41.753124Q332.75 41.753124 331.59375 40.925Q330.45312 40.096874 330.5 38.409374ZM331.95312 32.175Q331.95312 34.221874 332.76562 35.159374Q333.57812 36.096874 334.79688 36.096874Q336.0 36.096874 336.8125 35.159374Q337.64062 34.221874 337.64062 32.2375Q337.64062 30.33125 336.79688 29.3625Q335.95312 28.39375 334.76562 28.39375Q333.59375 28.39375 332.76562 29.346874Q331.95312 30.3 331.95312 32.175ZM348.92188 34.20625L350.73438 34.440624Q350.3125 36.01875 349.14062 36.909374Q347.98438 37.784374 346.17188 37.784374Q343.90625 37.784374 342.5625 36.39375Q341.23438 34.9875 341.23438 32.45625Q341.23438 29.83125 342.57812 28.39375Q343.92188 26.940624 346.07812 26.940624Q348.15625 26.940624 349.46875 28.3625Q350.79688 29.76875 350.79688 32.346874Q350.79688 32.503124 350.78125 32.815624L343.04688 32.815624Q343.14062 34.51875 344.01562 35.425Q344.89062 36.33125 346.1875 36.33125Q347.15625 36.33125 347.82812 35.83125Q348.51562 35.315624 348.92188 34.20625ZM343.14062 31.3625L348.9375 31.3625Q348.82812 30.065624 348.28125 29.409374Q347.4375 28.39375 346.09375 28.39375Q344.89062 28.39375 344.0625 29.20625Q343.23438 30.003124 343.14062 31.3625Z" fill-rule="nonzero"/></svg>