<svg version="1.1" viewBox="0.0 0.0 600.0 371.0" fill="none" stroke="none" stroke-linecap="square" stroke-miterlimit="10" width="600" height="371" xmlns:xlink="http://www.w3.org/1999/xlink" xmlns="http://www.w3.org/2000/svg"><path fill="#ffffff" d="M0 0L600.0 0L600.0 371.0L0 371.0L0 0Z" fill-rule="nonzero"/><path stroke="#333333" stroke-width="1.0" stroke-linecap="butt" d="M91.5 332.5L581.5 332.5" fill-rule="nonzero"/><path stroke="#cccccc" stroke-width="1.0" stroke-linecap="butt" d="M91.5 271.5L581.5 271.5" fill-rule="nonzero"/><path stroke="#cccccc" stroke-width="1.0" stroke-linecap="butt" d="M91.5 210.5L581.5 210.5" fill-rule="nonzero"/><path stroke="#cccccc" stroke-width="1.0" stroke-linecap="butt" d="M91.5 149.5L581.5 149.5" fill-rule="nonzero"/><path stroke="#cccccc" stroke-width="1.0" stroke-linecap="butt" d="M91.5 88.5L581.5 88.5" fill-rule="nonzero"/><clipPath id="id_0"><path d="M91.55 88.28333L581.45 88.28333L581.45 332.45L91.55 332.45L91.55 88.28333Z" clip-rule="nonzero"/></clipPath><path stroke="#000000" stroke-width="2.0" stroke-linecap="butt" stroke-opacity="0.0" clip-path="url(#id_0)" d="M336.0 332.0L220.0 332.0L220.0 104.0C220.0 102.89543 220.89543 102.0 222.0 102.0L334.0 102.0C335.10458 102.0 336.0 102.89543 336.0 104.0Z" fill-rule="nonzero"/><path fill="#4285f4" clip-path="url(#id_0)" d="M336.0 332.0L220.0 332.0L220.0 104.0C220.0 102.89543 220.89543 102.0 222.0 102.0L334.0 102.0C335.10458 102.0 336.0 102.89543 336.0 104.0Z" fill-rule="nonzero"/><path stroke="#000000" stroke-width="2.0" stroke-linecap="butt" stroke-opacity="0.0" clip-path="url(#id_0)" d="M454.0 332.0L338.0 332.0L338.0 139.0C338.0 137.89543 338.89542 137.0 340.0 137.0L452.0 137.0C453.10458 137.0 454.0 137.89543 454.0 139.0Z" fill-rule="nonzero"/><path fill="#ea4335" clip-path="url(#id_0)" d="M454.0 332.0L338.0 332.0L338.0 139.0C338.0 137.89543 338.89542 137.0 340.0 137.0L452.0 137.0C453.10458 137.0 454.0 137.89543 454.0 139.0Z" fill-rule="nonzero"/><path fill="#000000" d="M29.550013 233.5698L23.331263 233.5698L23.331263 232.6323L24.206263 232.6323Q23.737513 232.33542 23.471888 231.85104Q23.190638 231.36667 23.190638 230.74167Q23.190638 230.05417 23.471888 229.61667Q23.753138 229.16354 24.268763 228.99167Q23.190638 228.24167 23.190638 227.0698Q23.190638 226.1323 23.706263 225.64792Q24.206263 225.14792 25.284388 225.14792L29.550013 225.14792L29.550013 226.1948L25.628138 226.1948Q25.003138 226.1948 24.721888 226.30417Q24.440638 226.39792 24.268763 226.66354Q24.096888 226.92917 24.096888 227.30417Q24.096888 227.96042 24.534388 228.39792Q24.971888 228.8198 25.940638 228.8198L29.550013 228.8198L29.550013 229.8823L25.503138 229.8823Q24.800013 229.8823 24.456263 230.14792Q24.096888 230.39792 24.096888 230.97604Q24.096888 231.42917 24.331263 231.80417Q24.565638 232.17917 25.018763 232.35104Q25.471888 232.52292 26.315638 232.52292L29.550013 232.52292L29.550013 233.5698ZM27.690638 222.99167L27.534388 221.96042Q28.159388 221.86667 28.487513 221.47604Q28.815638 221.0698 28.815638 220.33542Q28.815638 219.61667 28.534388 219.27292Q28.237513 218.91354 27.831263 218.91354Q27.471888 218.91354 27.268763 219.22604Q27.128138 219.4448 26.909388 220.30417Q26.612513 221.46042 26.409388 221.91354Q26.190638 222.35104 25.815638 222.58542Q25.440638 222.8198 24.971888 222.8198Q24.565638 222.8198 24.206263 222.6323Q23.846888 222.4448 23.612513 222.11667Q23.440638 221.86667 23.315638 221.4448Q23.190638 221.02292 23.190638 220.52292Q23.190638 219.80417 23.409388 219.2573Q23.612513 218.6948 23.971888 218.42917Q24.331263 218.16354 24.925013 218.0698L25.065638 219.10104Q24.596888 219.16354 24.331263 219.5073Q24.050013 219.83542 24.050013 220.46042Q24.050013 221.17917 24.300013 221.49167Q24.534388 221.80417 24.862513 221.80417Q25.065638 221.80417 25.221888 221.67917Q25.393763 221.53854 25.503138 221.27292Q25.565638 221.11667 25.768763 220.33542Q26.081263 219.21042 26.268763 218.77292Q26.456263 218.33542 26.815638 218.08542Q27.175013 217.83542 27.721888 217.83542Q28.253138 217.83542 28.721888 218.14792Q29.175013 218.4448 29.440638 219.02292Q29.690638 219.60104 29.690638 220.33542Q29.690638 221.55417 29.190638 222.1948Q28.675013 222.8198 27.690638 222.99167ZM30.065638 215.77292L30.221888 214.74167Q30.690638 214.67917 30.909388 214.3823Q31.206263 213.99167 31.206263 213.3198Q31.206263 212.58542 30.909388 212.1948Q30.612513 211.78854 30.096888 211.64792Q29.768763 211.55417 28.737513 211.5698Q29.550013 212.2573 29.550013 213.28854Q29.550013 214.5698 28.628138 215.27292Q27.690638 215.97604 26.409388 215.97604Q25.518763 215.97604 24.768763 215.66354Q24.003138 215.33542 23.596888 214.72604Q23.190638 214.11667 23.190638 213.28854Q23.190638 212.17917 24.081263 211.46042L23.331263 211.46042L23.331263 210.49167L28.706263 210.49167Q30.159388 210.49167 30.768763 210.78854Q31.378138 211.08542 31.721888 211.72604Q32.08126 212.36667 32.08126 213.30417Q32.08126 214.41354 31.581263 215.10104Q31.081263 215.78854 30.065638 215.77292ZM26.331263 214.89792Q27.550013 214.89792 28.112513 214.41354Q28.675013 213.92917 28.675013 213.1948Q28.675013 212.46042 28.112513 211.97604Q27.550013 211.47604 26.362513 211.47604Q25.221888 211.47604 24.643763 211.99167Q24.065638 212.49167 24.065638 213.21042Q24.065638 213.91354 24.643763 214.41354Q25.206263 214.89792 26.331263 214.89792ZM29.690638 209.36667L20.815638 206.8823L20.815638 206.03854L29.690638 208.52292L29.690638 209.36667ZM27.690638 205.99167L27.534388 204.96042Q28.159388 204.86667 28.487513 204.47604Q28.815638 204.0698 28.815638 203.33542Q28.815638 202.61667 28.534388 202.27292Q28.237513 201.91354 27.831263 201.91354Q27.471888 201.91354 27.268763 202.22604Q27.128138 202.4448 26.909388 203.30417Q26.612513 204.46042 26.409388 204.91354Q26.190638 205.35104 25.815638 205.58542Q25.440638 205.8198 24.971888 205.8198Q24.565638 205.8198 24.206263 205.6323Q23.846888 205.4448 23.612513 205.11667Q23.440638 204.86667 23.315638 204.4448Q23.190638 204.02292 23.190638 203.52292Q23.190638 202.80417 23.409388 202.2573Q23.612513 201.6948 23.971888 201.42917Q24.331263 201.16354 24.925013 201.0698L25.065638 202.10104Q24.596888 202.16354 24.331263 202.5073Q24.050013 202.83542 24.050013 203.46042Q24.050013 204.17917 24.300013 204.49167Q24.534388 204.80417 24.862513 204.80417Q25.065638 204.80417 25.221888 204.67917Q25.393763 204.53854 25.503138 204.27292Q25.565638 204.11667 25.768763 203.33542Q26.081263 202.21042 26.268763 201.77292Q26.456263 201.33542 26.815638 201.08542Q27.175013 200.83542 27.721888 200.83542Q28.253138 200.83542 28.721888 201.14792Q29.175013 201.4448 29.440638 202.02292Q29.690638 202.60104 29.690638 203.33542Q29.690638 204.55417 29.190638 205.1948Q28.675013 205.8198 27.690638 205.99167Z" fill-rule="nonzero"/><path fill="#000000" d="M79.05 332.21564Q79.05 330.6844 79.3625 329.7625Q79.675 328.825 80.28438 328.325Q80.90938 327.825 81.84688 327.825Q82.53438 327.825 83.05 328.10626Q83.58125 328.3875 83.925 328.91876Q84.26875 329.4344 84.45625 330.1844Q84.64375 330.9344 84.64375 332.21564Q84.64375 333.73126 84.33125 334.65314Q84.03438 335.575 83.40938 336.09064Q82.8 336.59064 81.84688 336.59064Q80.6125 336.59064 79.89375 335.7Q79.05 334.6375 79.05 332.21564ZM80.12813 332.21564Q80.12813 334.325 80.62813 335.02814Q81.12813 335.73126 81.84688 335.73126Q82.58125 335.73126 83.06563 335.02814Q83.56563 334.325 83.56563 332.21564Q83.56563 330.09064 83.06563 329.40314Q82.58125 328.7 81.83125 328.7Q81.1125 328.7 80.675 329.3094Q80.12813 330.09064 80.12813 332.21564Z" fill-rule="nonzero"/><path fill="#000000" d="M55.01875 275.40833L53.971874 275.40833L53.971874 268.68958Q53.58125 269.04895 52.95625 269.42395Q52.346874 269.78333 51.8625 269.9552L51.8625 268.93958Q52.7375 268.5177 53.39375 267.93958Q54.065624 267.34583 54.346874 266.78333L55.01875 266.78333L55.01875 275.40833ZM58.05 271.17395Q58.05 269.6427 58.3625 268.72083Q58.675 267.78333 59.284374 267.28333Q59.909374 266.78333 60.846874 266.78333Q61.534374 266.78333 62.05 267.06458Q62.58125 267.34583 62.925 267.87708Q63.26875 268.3927 63.45625 269.1427Q63.64375 269.8927 63.64375 271.17395Q63.64375 272.68958 63.33125 273.61145Q63.034374 274.53333 62.409374 275.04895Q61.8 275.54895 60.846874 275.54895Q59.6125 275.54895 58.89375 274.65833Q58.05 273.59583 58.05 271.17395ZM59.128124 271.17395Q59.128124 273.28333 59.628124 273.98645Q60.128124 274.68958 60.846874 274.68958Q61.58125 274.68958 62.065624 273.98645Q62.565624 273.28333 62.565624 271.17395Q62.565624 269.04895 62.065624 268.36145Q61.58125 267.65833 60.83125 267.65833Q60.1125 267.65833 59.675 268.2677Q59.128124 269.04895 59.128124 271.17395ZM65.05 271.17395Q65.05 269.6427 65.3625 268.72083Q65.675 267.78333 66.28438 267.28333Q66.90938 266.78333 67.84688 266.78333Q68.53438 266.78333 69.05 267.06458Q69.58125 267.34583 69.925 267.87708Q70.26875 268.3927 70.45625 269.1427Q70.64375 269.8927 70.64375 271.17395Q70.64375 272.68958 70.33125 273.61145Q70.03438 274.53333 69.40938 275.04895Q68.8 275.54895 67.84688 275.54895Q66.6125 275.54895 65.89375 274.65833Q65.05 273.59583 65.05 271.17395ZM66.12813 271.17395Q66.12813 273.28333 66.62813 273.98645Q67.12813 274.68958 67.84688 274.68958Q68.58125 274.68958 69.06563 273.98645Q69.56563 273.28333 69.56563 271.17395Q69.56563 269.04895 69.06563 268.36145Q68.58125 267.65833 67.83125 267.65833Q67.1125 267.65833 66.675 268.2677Q66.12813 269.04895 66.12813 271.17395ZM72.05 271.17395Q72.05 269.6427 72.3625 268.72083Q72.675 267.78333 73.28438 267.28333Q73.90938 266.78333 74.84688 266.78333Q75.53438 266.78333 76.05 267.06458Q76.58125 267.34583 76.925 267.87708Q77.26875 268.3927 77.45625 269.1427Q77.64375 269.8927 77.64375 271.17395Q77.64375 272.68958 77.33125 273.61145Q77.03438 274.53333 76.40938 275.04895Q75.8 275.54895 74.84688 275.54895Q73.6125 275.54895 72.89375 274.65833Q72.05 273.59583 72.05 271.17395ZM73.12813 271.17395Q73.12813 273.28333 73.62813 273.98645Q74.12813 274.68958 74.84688 274.68958Q75.58125 274.68958 76.06563 273.98645Q76.56563 273.28333 76.56563 271.17395Q76.56563 269.04895 76.06563 268.36145Q75.58125 267.65833 74.83125 267.65833Q74.1125 267.65833 73.675 268.2677Q73.12813 269.04895 73.12813 271.17395ZM79.05 271.17395Q79.05 269.6427 79.3625 268.72083Q79.675 267.78333 80.28438 267.28333Q80.90938 266.78333 81.84688 266.78333Q82.53438 266.78333 83.05 267.06458Q83.58125 267.34583 83.925 267.87708Q84.26875 268.3927 84.45625 269.1427Q84.64375 269.8927 84.64375 271.17395Q84.64375 272.68958 84.33125 273.61145Q84.03438 274.53333 83.40938 275.04895Q82.8 275.54895 81.84688 275.54895Q80.6125 275.54895 79.89375 274.65833Q79.05 273.59583 79.05 271.17395ZM80.12813 271.17395Q80.12813 273.28333 80.62813 273.98645Q81.12813 274.68958 81.84688 274.68958Q82.58125 274.68958 83.06563 273.98645Q83.56563 273.28333 83.56563 271.17395Q83.56563 269.04895 83.06563 268.36145Q82.58125 267.65833 81.83125 267.65833Q81.1125 267.65833 80.675 268.2677Q80.12813 269.04895 80.12813 271.17395Z" fill-rule="nonzero"/><path fill="#000000" d="M56.596874 213.35104L56.596874 214.36667L50.909374 214.36667Q50.909374 213.99167 51.034374 213.6323Q51.253124 213.05417 51.721874 212.49167Q52.20625 211.92917 53.1125 211.1948Q54.51875 210.03854 55.003124 209.36667Q55.503124 208.6948 55.503124 208.10104Q55.503124 207.47604 55.05 207.05417Q54.596874 206.61667 53.878124 206.61667Q53.1125 206.61667 52.659374 207.0698Q52.20625 207.52292 52.190624 208.33542L51.1125 208.22604Q51.221874 207.0073 51.940624 206.3823Q52.675 205.74167 53.909374 205.74167Q55.14375 205.74167 55.8625 206.42917Q56.58125 207.11667 56.58125 208.1323Q56.58125 208.64792 56.3625 209.14792Q56.159374 209.6323 55.659374 210.1948Q55.175 210.74167 54.05 211.6948Q53.096874 212.49167 52.815624 212.78854Q52.55 213.0698 52.378124 213.35104L56.596874 213.35104ZM58.05 210.1323Q58.05 208.60104 58.3625 207.67917Q58.675 206.74167 59.284374 206.24167Q59.909374 205.74167 60.846874 205.74167Q61.534374 205.74167 62.05 206.02292Q62.58125 206.30417 62.925 206.83542Q63.26875 207.35104 63.45625 208.10104Q63.64375 208.85104 63.64375 210.1323Q63.64375 211.64792 63.33125 212.5698Q63.034374 213.49167 62.409374 214.0073Q61.8 214.5073 60.846874 214.5073Q59.6125 214.5073 58.89375 213.61667Q58.05 212.55417 58.05 210.1323ZM59.128124 210.1323Q59.128124 212.24167 59.628124 212.9448Q60.128124 213.64792 60.846874 213.64792Q61.58125 213.64792 62.065624 212.9448Q62.565624 212.24167 62.565624 210.1323Q62.565624 208.0073 62.065624 207.3198Q61.58125 206.61667 60.83125 206.61667Q60.1125 206.61667 59.675 207.22604Q59.128124 208.0073 59.128124 210.1323ZM65.05 210.1323Q65.05 208.60104 65.3625 207.67917Q65.675 206.74167 66.28438 206.24167Q66.90938 205.74167 67.84688 205.74167Q68.53438 205.74167 69.05 206.02292Q69.58125 206.30417 69.925 206.83542Q70.26875 207.35104 70.45625 208.10104Q70.64375 208.85104 70.64375 210.1323Q70.64375 211.64792 70.33125 212.5698Q70.03438 213.49167 69.40938 214.0073Q68.8 214.5073 67.84688 214.5073Q66.6125 214.5073 65.89375 213.61667Q65.05 212.55417 65.05 210.1323ZM66.12813 210.1323Q66.12813 212.24167 66.62813 212.9448Q67.12813 213.64792 67.84688 213.64792Q68.58125 213.64792 69.06563 212.9448Q69.56563 212.24167 69.56563 210.1323Q69.56563 208.0073 69.06563 207.3198Q68.58125 206.61667 67.83125 206.61667Q67.1125 206.61667 66.675 207.22604Q66.12813 208.0073 66.12813 210.1323ZM72.05 210.1323Q72.05 208.60104 72.3625 207.67917Q72.675 206.74167 73.28438 206.24167Q73.90938 205.74167 74.84688 205.74167Q75.53438 205.74167 76.05 206.02292Q76.58125 206.30417 76.925 206.83542Q77.26875 207.35104 77.45625 208.10104Q77.64375 208.85104 77.64375 210.1323Q77.64375 211.64792 77.33125 212.5698Q77.03438 213.49167 76.40938 214.0073Q75.8 214.5073 74.84688 214.5073Q73.6125 214.5073 72.89375 213.61667Q72.05 212.55417 72.05 210.1323ZM73.12813 210.1323Q73.12813 212.24167 73.62813 212.9448Q74.12813 213.64792 74.84688 213.64792Q75.58125 213.64792 76.06563 212.9448Q76.56563 212.24167 76.56563 210.1323Q76.56563 208.0073 76.06563 207.3198Q75.58125 206.61667 74.83125 206.61667Q74.1125 206.61667 73.675 207.22604Q73.12813 208.0073 73.12813 210.1323ZM79.05 210.1323Q79.05 208.60104 79.3625 207.67917Q79.675 206.74167 80.28438 206.24167Q80.90938 205.74167 81.84688 205.74167Q82.53438 205.74167 83.05 206.02292Q83.58125 206.30417 83.925 206.83542Q84.26875 207.35104 84.45625 208.10104Q84.64375 208.85104 84.64375 210.1323Q84.64375 211.64792 84.33125 212.5698Q84.03438 213.49167 83.40938 214.0073Q82.8 214.5073 81.84688 214.5073Q80.6125 214.5073 79.89375 213.61667Q79.05 212.55417 79.05 210.1323ZM80.12813 210.1323Q80.12813 212.24167 80.62813 212.9448Q81.12813 213.64792 81.84688 213.64792Q82.58125 213.64792 83.06563 212.9448Q83.56563 212.24167 83.56563 210.1323Q83.56563 208.0073 83.06563 207.3198Q82.58125 206.61667 81.83125 206.61667Q81.1125 206.61667 80.675 207.22604Q80.12813 208.0073 80.12813 210.1323Z" fill-rule="nonzero"/><path fill="#000000" d="M51.05 151.05937L52.1125 150.91875Q52.284374 151.80937 52.721874 152.21562Q53.159374 152.60625 53.784374 152.60625Q54.534374 152.60625 55.05 152.09062Q55.565624 151.575 55.565624 150.80937Q55.565624 150.09062 55.08125 149.62187Q54.6125 149.1375 53.878124 149.1375Q53.58125 149.1375 53.128124 149.2625L53.253124 148.325Q53.3625 148.34062 53.425 148.34062Q54.096874 148.34062 54.628124 147.99687Q55.175 147.6375 55.175 146.90312Q55.175 146.325 54.784374 145.95Q54.39375 145.55937 53.76875 145.55937Q53.159374 145.55937 52.7375 145.95Q52.33125 146.34062 52.221874 147.10625L51.159374 146.91875Q51.346874 145.87187 52.034374 145.29375Q52.721874 144.7 53.7375 144.7Q54.440624 144.7 55.034374 145.0125Q55.628124 145.30937 55.940624 145.825Q56.253124 146.34062 56.253124 146.93437Q56.253124 147.48125 55.95625 147.95Q55.659374 148.40312 55.08125 148.66875Q55.83125 148.84062 56.253124 149.40312Q56.675 149.95 56.675 150.79375Q56.675 151.91875 55.846874 152.7Q55.034374 153.48125 53.784374 153.48125Q52.659374 153.48125 51.909374 152.80937Q51.159374 152.12187 51.05 151.05937ZM58.05 149.09062Q58.05 147.55937 58.3625 146.6375Q58.675 145.7 59.284374 145.2Q59.909374 144.7 60.846874 144.7Q61.534374 144.7 62.05 144.98125Q62.58125 145.2625 62.925 145.79375Q63.26875 146.30937 63.45625 147.05937Q63.64375 147.80937 63.64375 149.09062Q63.64375 150.60625 63.33125 151.52812Q63.034374 152.45 62.409374 152.96562Q61.8 153.46562 60.846874 153.46562Q59.6125 153.46562 58.89375 152.575Q58.05 151.5125 58.05 149.09062ZM59.128124 149.09062Q59.128124 151.2 59.628124 151.90312Q60.128124 152.60625 60.846874 152.60625Q61.58125 152.60625 62.065624 151.90312Q62.565624 151.2 62.565624 149.09062Q62.565624 146.96562 62.065624 146.27812Q61.58125 145.575 60.83125 145.575Q60.1125 145.575 59.675 146.18437Q59.128124 146.96562 59.128124 149.09062ZM65.05 149.09062Q65.05 147.55937 65.3625 146.6375Q65.675 145.7 66.28438 145.2Q66.90938 144.7 67.84688 144.7Q68.53438 144.7 69.05 144.98125Q69.58125 145.2625 69.925 145.79375Q70.26875 146.30937 70.45625 147.05937Q70.64375 147.80937 70.64375 149.09062Q70.64375 150.60625 70.33125 151.52812Q70.03438 152.45 69.40938 152.96562Q68.8 153.46562 67.84688 153.46562Q66.6125 153.46562 65.89375 152.575Q65.05 151.5125 65.05 149.09062ZM66.12813 149.09062Q66.12813 151.2 66.62813 151.90312Q67.12813 152.60625 67.84688 152.60625Q68.58125 152.60625 69.06563 151.90312Q69.56563 151.2 69.56563 149.09062Q69.56563 146.96562 69.06563 146.27812Q68.58125 145.575 67.83125 145.575Q67.1125 145.575 66.675 146.18437Q66.12813 146.96562 66.12813 149.09062ZM72.05 149.09062Q72.05 147.55937 72.3625 146.6375Q72.675 145.7 73.28438 145.2Q73.90938 144.7 74.84688 144.7Q75.53438 144.7 76.05 144.98125Q76.58125 145.2625 76.925 145.79375Q77.26875 146.30937 77.45625 147.05937Q77.64375 147.80937 77.64375 149.09062Q77.64375 150.60625 77.33125 151.52812Q77.03438 152.45 76.40938 152.96562Q75.8 153.46562 74.84688 153.46562Q73.6125 153.46562 72.89375 152.575Q72.05 151.5125 72.05 149.09062ZM73.12813 149.09062Q73.12813 151.2 73.62813 151.90312Q74.12813 152.60625 74.84688 152.60625Q75.58125 152.60625 76.06563 151.90312Q76.56563 151.2 76.56563 149.09062Q76.56563 146.96562 76.06563 146.27812Q75.58125 145.575 74.83125 145.575Q74.1125 145.575 73.675 146.18437Q73.12813 146.96562 73.12813 149.09062ZM79.05 149.09062Q79.05 147.55937 79.3625 146.6375Q79.675 145.7 80.28438 145.2Q80.90938 144.7 81.84688 144.7Q82.53438 144.7 83.05 144.98125Q83.58125 145.2625 83.925 145.79375Q84.26875 146.30937 84.45625 147.05937Q84.64375 147.80937 84.64375 149.09062Q84.64375 150.60625 84.33125 151.52812Q84.03438 152.45 83.40938 152.96562Q82.8 153.46562 81.84688 153.46562Q80.6125 153.46562 79.89375 152.575Q79.05 151.5125 79.05 149.09062ZM80.12813 149.09062Q80.12813 151.2 80.62813 151.90312Q81.12813 152.60625 81.84688 152.60625Q82.58125 152.60625 83.06563 151.90312Q83.56563 151.2 83.56563 149.09062Q83.56563 146.96562 83.06563 146.27812Q82.58125 145.575 81.83125 145.575Q81.1125 145.575 80.675 146.18437Q80.12813 146.96562 80.12813 149.09062Z" fill-rule="nonzero"/><path fill="#000000" d="M54.425 92.28333L54.425 90.22083L50.70625 90.22083L50.70625 89.25208L54.628124 83.68958L55.4875 83.68958L55.4875 89.25208L56.64375 89.25208L56.64375 90.22083L55.4875 90.22083L55.4875 92.28333L54.425 92.28333ZM54.425 89.25208L54.425 85.39271L51.7375 89.25208L54.425 89.25208ZM58.05 88.04896Q58.05 86.51771 58.3625 85.59583Q58.675 84.65833 59.284374 84.15833Q59.909374 83.65833 60.846874 83.65833Q61.534374 83.65833 62.05 83.93958Q62.58125 84.22083 62.925 84.75208Q63.26875 85.26771 63.45625 86.01771Q63.64375 86.76771 63.64375 88.04896Q63.64375 89.56458 63.33125 90.48646Q63.034374 91.40833 62.409374 91.92396Q61.8 92.42396 60.846874 92.42396Q59.6125 92.42396 58.89375 91.53333Q58.05 90.47083 58.05 88.04896ZM59.128124 88.04896Q59.128124 90.15833 59.628124 90.86146Q60.128124 91.56458 60.846874 91.56458Q61.58125 91.56458 62.065624 90.86146Q62.565624 90.15833 62.565624 88.04896Q62.565624 85.92396 62.065624 85.23646Q61.58125 84.53333 60.83125 84.53333Q60.1125 84.53333 59.675 85.14271Q59.128124 85.92396 59.128124 88.04896ZM65.05 88.04896Q65.05 86.51771 65.3625 85.59583Q65.675 84.65833 66.28438 84.15833Q66.90938 83.65833 67.84688 83.65833Q68.53438 83.65833 69.05 83.93958Q69.58125 84.22083 69.925 84.75208Q70.26875 85.26771 70.45625 86.01771Q70.64375 86.76771 70.64375 88.04896Q70.64375 89.56458 70.33125 90.48646Q70.03438 91.40833 69.40938 91.92396Q68.8 92.42396 67.84688 92.42396Q66.6125 92.42396 65.89375 91.53333Q65.05 90.47083 65.05 88.04896ZM66.12813 88.04896Q66.12813 90.15833 66.62813 90.86146Q67.12813 91.56458 67.84688 91.56458Q68.58125 91.56458 69.06563 90.86146Q69.56563 90.15833 69.56563 88.04896Q69.56563 85.92396 69.06563 85.23646Q68.58125 84.53333 67.83125 84.53333Q67.1125 84.53333 66.675 85.14271Q66.12813 85.92396 66.12813 88.04896ZM72.05 88.04896Q72.05 86.51771 72.3625 85.59583Q72.675 84.65833 73.28438 84.15833Q73.90938 83.65833 74.84688 83.65833Q75.53438 83.65833 76.05 83.93958Q76.58125 84.22083 76.925 84.75208Q77.26875 85.26771 77.45625 86.01771Q77.64375 86.76771 77.64375 88.04896Q77.64375 89.56458 77.33125 90.48646Q77.03438 91.40833 76.40938 91.92396Q75.8 92.42396 74.84688 92.42396Q73.6125 92.42396 72.89375 91.53333Q72.05 90.47083 72.05 88.04896ZM73.12813 88.04896Q73.12813 90.15833 73.62813 90.86146Q74.12813 91.56458 74.84688 91.56458Q75.58125 91.56458 76.06563 90.86146Q76.56563 90.15833 76.56563 88.04896Q76.56563 85.92396 76.06563 85.23646Q75.58125 84.53333 74.83125 84.53333Q74.1125 84.53333 73.675 85.14271Q73.12813 85.92396 73.12813 88.04896ZM79.05 88.04896Q79.05 86.51771 79.3625 85.59583Q79.675 84.65833 80.28438 84.15833Q80.90938 83.65833 81.84688 83.65833Q82.53438 83.65833 83.05 83.93958Q83.58125 84.22083 83.925 84.75208Q84.26875 85.26771 84.45625 86.01771Q84.64375 86.76771 84.64375 88.04896Q84.64375 89.56458 84.33125 90.48646Q84.03438 91.40833 83.40938 91.92396Q82.8 92.42396 81.84688 92.42396Q80.6125 92.42396 79.89375 91.53333Q79.05 90.47083 79.05 88.04896ZM80.12813 88.04896Q80.12813 90.15833 80.62813 90.86146Q81.12813 91.56458 81.84688 91.56458Q82.58125 91.56458 83.06563 90.86146Q83.56563 90.15833 83.56563 88.04896Q83.56563 85.92396 83.06563 85.23646Q82.58125 84.53333 81.83125 84.53333Q81.1125 84.53333 80.675 85.14271Q80.12813 85.92396 80.12813 88.04896Z" fill-rule="nonzero"/><path fill="#000000" d="M330.0625 346.4344L331.1875 346.73126Q330.82812 348.1219 329.90625 348.85626Q328.98438 349.59064 327.64062 349.59064Q326.25 349.59064 325.375 349.02814Q324.5 348.46564 324.04688 347.40314Q323.59375 346.325 323.59375 345.09064Q323.59375 343.7469 324.10938 342.7469Q324.625 341.7469 325.5625 341.23126Q326.51562 340.71564 327.65625 340.71564Q328.9375 340.71564 329.8125 341.3719Q330.70312 342.02814 331.04688 343.21564L329.92188 343.48126Q329.625 342.54376 329.04688 342.1219Q328.48438 341.6844 327.625 341.6844Q326.64062 341.6844 325.96875 342.16876Q325.3125 342.6375 325.03125 343.4344Q324.76562 344.23126 324.76562 345.09064Q324.76562 346.1844 325.07812 346.9969Q325.40625 347.8094 326.07812 348.21564Q326.75 348.6219 327.54688 348.6219Q328.5 348.6219 329.15625 348.075Q329.82812 347.52814 330.0625 346.4344ZM332.92188 349.45L332.92188 340.85626L335.89062 340.85626Q336.89062 340.85626 337.42188 340.98126Q338.15625 341.15314 338.67188 341.59064Q339.35938 342.16876 339.6875 343.075Q340.03125 343.96564 340.03125 345.10626Q340.03125 346.09064 339.79688 346.84064Q339.57812 347.59064 339.21875 348.09064Q338.85938 348.59064 338.42188 348.8719Q338.0 349.15314 337.40625 349.3094Q336.8125 349.45 336.03125 349.45L332.92188 349.45ZM334.0625 348.4344L335.89062 348.4344Q336.75 348.4344 337.23438 348.27814Q337.71875 348.1219 338.0 347.825Q338.40625 347.4344 338.625 346.7469Q338.85938 346.0594 338.85938 345.09064Q338.85938 343.7469 338.40625 343.02814Q337.96875 342.29376 337.34375 342.04376Q336.875 341.8719 335.875 341.8719L334.0625 341.8719L334.0625 348.4344ZM348.0625 346.4344L349.1875 346.73126Q348.82812 348.1219 347.90625 348.85626Q346.98438 349.59064 345.64062 349.59064Q344.25 349.59064 343.375 349.02814Q342.5 348.46564 342.04688 347.40314Q341.59375 346.325 341.59375 345.09064Q341.59375 343.7469 342.10938 342.7469Q342.625 341.7469 343.5625 341.23126Q344.51562 340.71564 345.65625 340.71564Q346.9375 340.71564 347.8125 341.3719Q348.70312 342.02814 349.04688 343.21564L347.92188 343.48126Q347.625 342.54376 347.04688 342.1219Q346.48438 341.6844 345.625 341.6844Q344.64062 341.6844 343.96875 342.16876Q343.3125 342.6375 343.03125 343.4344Q342.76562 344.23126 342.76562 345.09064Q342.76562 346.1844 343.07812 346.9969Q343.40625 347.8094 344.07812 348.21564Q344.75 348.6219 345.54688 348.6219Q346.5 348.6219 347.15625 348.075Q347.82812 347.52814 348.0625 346.4344Z" fill-rule="nonzero"/><path fill="#4285f4" d="M164.5 56.916668C164.5 56.364384 164.94771 55.916668 165.5 55.916668L175.5 55.916668C176.05229 55.916668 176.5 56.364384 176.5 56.916668L176.5 66.916664C176.5 67.46895 176.05229 67.916664 175.5 67.916664L165.5 67.916664C164.94771 67.916664 164.5 67.46895 164.5 66.916664Z" fill-rule="nonzero"/><path fill="#1a1a1a" d="M191.5625 62.90104L192.6875 63.197914Q192.32812 64.58854 191.40625 65.322914Q190.48438 66.05729 189.14062 66.05729Q187.75 66.05729 186.875 65.49479Q186.0 64.93229 185.54688 63.86979Q185.09375 62.791664 185.09375 61.55729Q185.09375 60.21354 185.60938 59.21354Q186.125 58.21354 187.0625 57.697914Q188.01562 57.18229 189.15625 57.18229Q190.4375 57.18229 191.3125 57.83854Q192.20312 58.49479 192.54688 59.68229L191.42188 59.947914Q191.125 59.010414 190.54688 58.58854Q189.98438 58.15104 189.125 58.15104Q188.14062 58.15104 187.46875 58.635414Q186.8125 59.104164 186.53125 59.90104Q186.26562 60.697914 186.26562 61.55729Q186.26562 62.65104 186.57812 63.46354Q186.90625 64.27604 187.57812 64.68229Q188.25 65.08854 189.04688 65.08854Q190.0 65.08854 190.65625 64.541664Q191.32812 63.99479 191.5625 62.90104ZM193.90625 62.80729Q193.90625 61.072914 194.85938 60.24479Q195.65625 59.55729 196.8125 59.55729Q198.09375 59.55729 198.90625 60.40104Q199.73438 61.229164 199.73438 62.71354Q199.73438 63.916664 199.375 64.604164Q199.01562 65.291664 198.3125 65.68229Q197.625 66.05729 196.8125 66.05729Q195.51562 66.05729 194.70312 65.229164Q193.90625 64.385414 193.90625 62.80729ZM194.98438 62.80729Q194.98438 63.99479 195.5 64.58854Q196.03125 65.18229 196.8125 65.18229Q197.60938 65.18229 198.125 64.58854Q198.64062 63.99479 198.64062 62.77604Q198.64062 61.61979 198.10938 61.02604Q197.59375 60.43229 196.8125 60.43229Q196.03125 60.43229 195.5 61.02604Q194.98438 61.604164 194.98438 62.80729ZM201.29688 65.916664L201.29688 59.697914L202.23438 59.697914L202.23438 60.572914Q202.92188 59.55729 204.21875 59.55729Q204.78125 59.55729 205.25 59.760414Q205.73438 59.96354 205.96875 60.291664Q206.20312 60.61979 206.29688 61.05729Q206.34375 61.354164 206.34375 62.08854L206.34375 65.916664L205.29688 65.916664L205.29688 62.135414Q205.29688 61.479164 205.17188 61.166664Q205.04688 60.854164 204.73438 60.666664Q204.42188 60.46354 204.0 60.46354Q203.32812 60.46354 202.82812 60.90104Q202.34375 61.322914 202.34375 62.510414L202.34375 65.916664L201.29688 65.916664ZM212.32812 65.916664L212.32812 65.135414Q211.73438 66.05729 210.59375 66.05729Q209.84375 66.05729 209.21875 65.65104Q208.59375 65.229164 208.25 64.49479Q207.90625 63.760414 207.90625 62.80729Q207.90625 61.885414 208.21875 61.11979Q208.53125 60.354164 209.15625 59.96354Q209.78125 59.55729 210.54688 59.55729Q211.10938 59.55729 211.54688 59.791664Q211.98438 60.02604 212.26562 60.40104L212.26562 57.322914L213.3125 57.322914L213.3125 65.916664L212.32812 65.916664ZM209.0 62.80729Q209.0 64.010414 209.5 64.604164Q210.0 65.18229 210.6875 65.18229Q211.375 65.18229 211.85938 64.61979Q212.34375 64.05729 212.34375 62.90104Q212.34375 61.61979 211.84375 61.02604Q211.35938 60.43229 210.64062 60.43229Q209.9375 60.43229 209.46875 61.010414Q209.0 61.572914 209.0 62.80729ZM219.375 65.916664L219.375 64.99479Q218.64062 66.05729 217.39062 66.05729Q216.84375 66.05729 216.35938 65.854164Q215.89062 65.635414 215.65625 65.322914Q215.42188 64.99479 215.32812 64.52604Q215.26562 64.229164 215.26562 63.541664L215.26562 59.697914L216.32812 59.697914L216.32812 63.15104Q216.32812 63.96354 216.39062 64.260414Q216.48438 64.666664 216.79688 64.916664Q217.125 65.15104 217.60938 65.15104Q218.07812 65.15104 218.48438 64.916664Q218.90625 64.666664 219.07812 64.24479Q219.26562 63.822914 219.26562 63.02604L219.26562 59.697914L220.3125 59.697914L220.3125 65.916664L219.375 65.916664ZM222.29688 58.541664L222.29688 57.322914L223.35938 57.322914L223.35938 58.541664L222.29688 58.541664ZM222.29688 65.916664L222.29688 59.697914L223.35938 59.697914L223.35938 65.916664L222.29688 65.916664ZM227.59375 64.979164L227.75 65.90104Q227.29688 65.99479 226.95312 65.99479Q226.375 65.99479 226.0625 65.822914Q225.75 65.635414 225.60938 65.33854Q225.48438 65.041664 225.48438 64.08854L225.48438 60.510414L224.71875 60.510414L224.71875 59.697914L225.48438 59.697914L225.48438 58.15104L226.53125 57.52604L226.53125 59.697914L227.59375 59.697914L227.59375 60.510414L226.53125 60.510414L226.53125 64.15104Q226.53125 64.604164 226.57812 64.729164Q226.64062 64.854164 226.76562 64.93229Q226.89062 65.010414 227.125 65.010414Q227.3125 65.010414 227.59375 64.979164Z" fill-rule="nonzero"/><path fill="#ea4335" d="M243.5 56.916668C243.5 56.364384 243.94771 55.916668 244.5 55.916668L254.5 55.916668C255.05229 55.916668 255.5 56.364384 255.5 56.916668L255.5 66.916664C255.5 67.46895 255.05229 67.916664 254.5 67.916664L244.5 67.916664C243.94771 67.916664 243.5 67.46895 243.5 66.916664Z" fill-rule="nonzero"/><path fill="#1a1a1a" d="M264.375 65.916664L264.375 57.322914L265.51562 57.322914L265.51562 61.58854L269.78125 57.322914L271.32812 57.322914L267.71875 60.80729L271.48438 65.916664L269.98438 65.916664L266.92188 61.572914L265.51562 62.93229L265.51562 65.916664L264.375 65.916664ZM276.35938 65.15104Q275.76562 65.65104 275.21875 65.854164Q274.6875 66.05729 274.0625 66.05729Q273.03125 66.05729 272.48438 65.55729Q271.9375 65.05729 271.9375 64.27604Q271.9375 63.822914 272.14062 63.447914Q272.34375 63.05729 272.6875 62.83854Q273.03125 62.604164 273.45312 62.49479Q273.75 62.40104 274.39062 62.322914Q275.65625 62.18229 276.26562 61.96354Q276.26562 61.74479 276.26562 61.697914Q276.26562 61.041664 275.96875 60.77604Q275.5625 60.43229 274.76562 60.43229Q274.03125 60.43229 273.67188 60.697914Q273.3125 60.947914 273.14062 61.604164L272.10938 61.46354Q272.25 60.80729 272.57812 60.40104Q272.90625 59.99479 273.51562 59.77604Q274.125 59.55729 274.92188 59.55729Q275.71875 59.55729 276.21875 59.74479Q276.71875 59.93229 276.95312 60.21354Q277.1875 60.49479 277.28125 60.93229Q277.32812 61.197914 277.32812 61.90104L277.32812 63.30729Q277.32812 64.77604 277.39062 65.166664Q277.46875 65.55729 277.67188 65.916664L276.5625 65.916664Q276.40625 65.58854 276.35938 65.15104ZM276.26562 62.791664Q275.6875 63.02604 274.54688 63.197914Q273.89062 63.291664 273.625 63.416664Q273.35938 63.52604 273.20312 63.74479Q273.0625 63.96354 273.0625 64.24479Q273.0625 64.666664 273.375 64.947914Q273.70312 65.229164 274.3125 65.229164Q274.92188 65.229164 275.39062 64.96354Q275.875 64.697914 276.09375 64.229164Q276.26562 63.86979 276.26562 63.18229L276.26562 62.791664ZM279.54688 65.916664L279.54688 60.510414L278.60938 60.510414L278.60938 59.697914L279.54688 59.697914L279.54688 59.02604Q279.54688 58.40104 279.65625 58.104164Q279.8125 57.68229 280.1875 57.43229Q280.57812 57.18229 281.26562 57.18229Q281.71875 57.18229 282.25 57.291664L282.09375 58.197914Q281.76562 58.15104 281.46875 58.15104Q280.98438 58.15104 280.78125 58.354164Q280.59375 58.55729 280.59375 59.11979L280.59375 59.697914L281.8125 59.697914L281.8125 60.510414L280.59375 60.510414L280.59375 65.916664L279.54688 65.916664ZM282.29688 65.916664L282.29688 57.322914L283.35938 57.322914L283.35938 62.229164L285.84375 59.697914L287.21875 59.697914L284.82812 61.99479L287.45312 65.916664L286.15625 65.916664L284.09375 62.729164L283.35938 63.447914L283.35938 65.916664L282.29688 65.916664ZM292.35938 65.15104Q291.76562 65.65104 291.21875 65.854164Q290.6875 66.05729 290.0625 66.05729Q289.03125 66.05729 288.48438 65.55729Q287.9375 65.05729 287.9375 64.27604Q287.9375 63.822914 288.14062 63.447914Q288.34375 63.05729 288.6875 62.83854Q289.03125 62.604164 289.45312 62.49479Q289.75 62.40104 290.39062 62.322914Q291.65625 62.18229 292.26562 61.96354Q292.26562 61.74479 292.26562 61.697914Q292.26562 61.041664 291.96875 60.77604Q291.5625 60.43229 290.76562 60.43229Q290.03125 60.43229 289.67188 60.697914Q289.3125 60.947914 289.14062 61.604164L288.10938 61.46354Q288.25 60.80729 288.57812 60.40104Q288.90625 59.99479 289.51562 59.77604Q290.125 59.55729 290.92188 59.55729Q291.71875 59.55729 292.21875 59.74479Q292.71875 59.93229 292.95312 60.21354Q293.1875 60.49479 293.28125 60.93229Q293.32812 61.197914 293.32812 61.90104L293.32812 63.30729Q293.32812 64.77604 293.39062 65.166664Q293.46875 65.55729 293.67188 65.916664L292.5625 65.916664Q292.40625 65.58854 292.35938 65.15104ZM292.26562 62.791664Q291.6875 63.02604 290.54688 63.197914Q289.89062 63.291664 289.625 63.416664Q289.35938 63.52604 289.20312 63.74479Q289.0625 63.96354 289.0625 64.24479Q289.0625 64.666664 289.375 64.947914Q289.70312 65.229164 290.3125 65.229164Q290.92188 65.229164 291.39062 64.96354Q291.875 64.697914 292.09375 64.229164Q292.26562 63.86979 292.26562 63.18229L292.26562 62.791664ZM304.5625 62.90104L305.6875 63.197914Q305.32812 64.58854 304.40625 65.322914Q303.48438 66.05729 302.14062 66.05729Q300.75 66.05729 299.875 65.49479Q299.0 64.93229 298.54688 63.86979Q298.09375 62.791664 298.09375 61.55729Q298.09375 60.21354 298.60938 59.21354Q299.125 58.21354 300.0625 57.697914Q301.01562 57.18229 302.15625 57.18229Q303.4375 57.18229 304.3125 57.83854Q305.20312 58.49479 305.54688 59.68229L304.42188 59.947914Q304.125 59.010414 303.54688 58.58854Q302.98438 58.15104 302.125 58.15104Q301.14062 58.15104 300.46875 58.635414Q299.8125 59.104164 299.53125 59.90104Q299.26562 60.697914 299.26562 61.55729Q299.26562 62.65104 299.57812 63.46354Q299.90625 64.27604 300.57812 64.68229Q301.25 65.08854 302.04688 65.08854Q303.0 65.08854 303.65625 64.541664Q304.32812 63.99479 304.5625 62.90104ZM306.90625 62.80729Q306.90625 61.072914 307.85938 60.24479Q308.65625 59.55729 309.8125 59.55729Q311.09375 59.55729 311.90625 60.40104Q312.73438 61.229164 312.73438 62.71354Q312.73438 63.916664 312.375 64.604164Q312.01562 65.291664 311.3125 65.68229Q310.625 66.05729 309.8125 66.05729Q308.51562 66.05729 307.70312 65.229164Q306.90625 64.385414 306.90625 62.80729ZM307.98438 62.80729Q307.98438 63.99479 308.5 64.58854Q309.03125 65.18229 309.8125 65.18229Q310.60938 65.18229 311.125 64.58854Q311.64062 63.99479 311.64062 62.77604Q311.64062 61.61979 311.10938 61.02604Q310.59375 60.43229 309.8125 60.43229Q309.03125 60.43229 308.5 61.02604Q307.98438 61.604164 307.98438 62.80729ZM314.29688 65.916664L314.29688 59.697914L315.23438 59.697914L315.23438 60.572914Q315.92188 59.55729 317.21875 59.55729Q317.78125 59.55729 318.25 59.760414Q318.73438 59.96354 318.96875 60.291664Q319.20312 60.61979 319.29688 61.05729Q319.34375 61.354164 319.34375 62.08854L319.34375 65.916664L318.29688 65.916664L318.29688 62.135414Q318.29688 61.479164 318.17188 61.166664Q318.04688 60.854164 317.73438 60.666664Q317.42188 60.46354 317.0 60.46354Q316.32812 60.46354 315.82812 60.90104Q315.34375 61.322914 315.34375 62.510414L315.34375 65.916664L314.29688 65.916664ZM321.29688 65.916664L321.29688 59.697914L322.23438 59.697914L322.23438 60.572914Q322.92188 59.55729 324.21875 59.55729Q324.78125 59.55729 325.25 59.760414Q325.73438 59.96354 325.96875 60.291664Q326.20312 60.61979 326.29688 61.05729Q326.34375 61.354164 326.34375 62.08854L326.34375 65.916664L325.29688 65.916664L325.29688 62.135414Q325.29688 61.479164 325.17188 61.166664Q325.04688 60.854164 324.73438 60.666664Q324.42188 60.46354 324.0 60.46354Q323.32812 60.46354 322.82812 60.90104Q322.34375 61.322914 322.34375 62.510414L322.34375 65.916664L321.29688 65.916664ZM332.54688 63.916664L333.64062 64.041664Q333.39062 64.99479 332.6875 65.52604Q331.98438 66.05729 330.90625 66.05729Q329.54688 66.05729 328.73438 65.21354Q327.9375 64.36979 327.9375 62.854164Q327.9375 61.291664 328.75 60.43229Q329.5625 59.55729 330.84375 59.55729Q332.09375 59.55729 332.875 60.40104Q333.67188 61.24479 333.67188 62.791664Q333.67188 62.885414 333.67188 63.072914L329.03125 63.072914Q329.09375 64.104164 329.60938 64.65104Q330.125 65.18229 330.90625 65.18229Q331.48438 65.18229 331.89062 64.885414Q332.3125 64.572914 332.54688 63.916664ZM329.09375 62.21354L332.5625 62.21354Q332.5 61.416664 332.17188 61.02604Q331.65625 60.416664 330.85938 60.416664Q330.125 60.416664 329.625 60.90104Q329.14062 61.385414 329.09375 62.21354ZM339.35938 63.635414L340.39062 63.77604Q340.21875 64.83854 339.51562 65.447914Q338.8125 66.05729 337.79688 66.05729Q336.51562 66.05729 335.73438 65.229164Q334.96875 64.385414 334.96875 62.822914Q334.96875 61.822914 335.29688 61.072914Q335.64062 60.30729 336.3125 59.93229Q337.0 59.55729 337.8125 59.55729Q338.8125 59.55729 339.45312 60.072914Q340.10938 60.572914 340.29688 61.52604L339.26562 61.68229Q339.125 61.05729 338.75 60.74479Q338.375 60.416664 337.84375 60.416664Q337.04688 60.416664 336.54688 60.99479Q336.04688 61.55729 336.04688 62.791664Q336.04688 64.05729 336.53125 64.61979Q337.01562 65.18229 337.78125 65.18229Q338.40625 65.18229 338.8125 64.80729Q339.23438 64.43229 339.35938 63.635414ZM343.59375 64.979164L343.75 65.90104Q343.29688 65.99479 342.95312 65.99479Q342.375 65.99479 342.0625 65.822914Q341.75 65.635414 341.60938 65.33854Q341.48438 65.041664 341.48438 64.08854L341.48438 60.510414L340.71875 60.510414L340.71875 59.697914L341.48438 59.697914L341.48438 58.15104L342.53125 57.52604L342.53125 59.697914L343.59375 59.697914L343.59375 60.510414L342.53125 60.510414L342.53125 64.15104Q342.53125 64.604164 342.57812 64.729164Q342.64062 64.854164 342.76562 64.93229Q342.89062 65.010414 343.125 65.010414Q343.3125 65.010414 343.59375 64.979164ZM349.3125 68.447914Q348.4375 67.33854 347.82812 65.86979Q347.23438 64.385414 347.23438 62.80729Q347.23438 61.416664 347.67188 60.135414Q348.20312 58.65104 349.3125 57.18229L350.0625 57.18229Q349.35938 58.40104 349.125 58.916664Q348.76562 59.729164 348.5625 60.604164Q348.3125 61.697914 348.3125 62.80729Q348.3125 65.635414 350.0625 68.447914L349.3125 68.447914ZM352.4375 65.916664L350.53125 59.697914L351.625 59.697914L352.60938 63.291664L352.98438 64.61979Q353.01562 64.52604 353.3125 63.33854L354.29688 59.697914L355.375 59.697914L356.3125 63.30729L356.625 64.49479L356.98438 63.291664L358.04688 59.697914L359.07812 59.697914L357.125 65.916664L356.03125 65.916664L355.04688 62.18229L354.79688 61.135414L353.54688 65.916664L352.4375 65.916664ZM360.29688 58.541664L360.29688 57.322914L361.35938 57.322914L361.35938 58.541664L360.29688 58.541664ZM360.29688 65.916664L360.29688 59.697914L361.35938 59.697914L361.35938 65.916664L360.29688 65.916664ZM365.59375 64.979164L365.75 65.90104Q365.29688 65.99479 364.95312 65.99479Q364.375 65.99479 364.0625 65.822914Q363.75 65.635414 363.60938 65.33854Q363.48438 65.041664 363.48438 64.08854L363.48438 60.510414L362.71875 60.510414L362.71875 59.697914L363.48438 59.697914L363.48438 58.15104L364.53125 57.52604L364.53125 59.697914L365.59375 59.697914L365.59375 60.510414L364.53125 60.510414L364.53125 64.15104Q364.53125 64.604164 364.57812 64.729164Q364.64062 64.854164 364.76562 64.93229Q364.89062 65.010414 365.125 65.010414Q365.3125 65.010414 365.59375 64.979164ZM366.29688 65.916664L366.29688 57.322914L367.34375 57.322914L367.34375 60.40104Q368.07812 59.55729 369.20312 59.55729Q369.90625 59.55729 370.40625 59.83854Q370.92188 60.104164 371.14062 60.58854Q371.35938 61.05729 371.35938 61.979164L371.35938 65.916664L370.3125 65.916664L370.3125 61.979164Q370.3125 61.18229 369.96875 60.822914Q369.625 60.46354 369.0 60.46354Q368.53125 60.46354 368.10938 60.71354Q367.70312 60.947914 367.51562 61.36979Q367.34375 61.77604 367.34375 62.510414L367.34375 65.916664L366.29688 65.916664ZM376.42188 65.916664L376.42188 57.322914L379.39062 57.322914Q380.39062 57.322914 380.92188 57.447914Q381.65625 57.61979 382.17188 58.05729Q382.85938 58.635414 383.1875 59.541664Q383.53125 60.43229 383.53125 61.572914Q383.53125 62.55729 383.29688 63.30729Q383.07812 64.05729 382.71875 64.55729Q382.35938 65.05729 381.92188 65.33854Q381.5 65.61979 380.90625 65.77604Q380.3125 65.916664 379.53125 65.916664L376.42188 65.916664ZM377.5625 64.90104L379.39062 64.90104Q380.25 64.90104 380.73438 64.74479Q381.21875 64.58854 381.5 64.291664Q381.90625 63.90104 382.125 63.21354Q382.35938 62.52604 382.35938 61.55729Q382.35938 60.21354 381.90625 59.49479Q381.46875 58.760414 380.84375 58.510414Q380.375 58.33854 379.375 58.33854L377.5625 58.33854L377.5625 64.90104ZM389.54688 63.916664L390.64062 64.041664Q390.39062 64.99479 389.6875 65.52604Q388.98438 66.05729 387.90625 66.05729Q386.54688 66.05729 385.73438 65.21354Q384.9375 64.36979 384.9375 62.854164Q384.9375 61.291664 385.75 60.43229Q386.5625 59.55729 387.84375 59.55729Q389.09375 59.55729 389.875 60.40104Q390.67188 61.24479 390.67188 62.791664Q390.67188 62.885414 390.67188 63.072914L386.03125 63.072914Q386.09375 64.104164 386.60938 64.65104Q387.125 65.18229 387.90625 65.18229Q388.48438 65.18229 388.89062 64.885414Q389.3125 64.572914 389.54688 63.916664ZM386.09375 62.21354L389.5625 62.21354Q389.5 61.416664 389.17188 61.02604Q388.65625 60.416664 387.85938 60.416664Q387.125 60.416664 386.625 60.90104Q386.14062 61.385414 386.09375 62.21354ZM393.26562 65.916664L392.28125 65.916664L392.28125 57.322914L393.34375 57.322914L393.34375 60.385414Q394.01562 59.55729 395.04688 59.55729Q395.625 59.55729 396.125 59.791664Q396.64062 60.010414 396.96875 60.43229Q397.3125 60.854164 397.5 61.447914Q397.6875 62.041664 397.6875 62.71354Q397.6875 64.30729 396.89062 65.18229Q396.09375 66.05729 395.0 66.05729Q393.89062 66.05729 393.26562 65.135414L393.26562 65.916664ZM393.25 62.760414Q393.25 63.86979 393.5625 64.36979Q394.0625 65.18229 394.90625 65.18229Q395.59375 65.18229 396.09375 64.58854Q396.60938 63.99479 396.60938 62.791664Q396.60938 61.572914 396.125 60.99479Q395.64062 60.416664 394.95312 60.416664Q394.26562 60.416664 393.75 61.02604Q393.25 61.61979 393.25 62.760414ZM403.54688 63.916664L404.64062 64.041664Q404.39062 64.99479 403.6875 65.52604Q402.98438 66.05729 401.90625 66.05729Q400.54688 66.05729 399.73438 65.21354Q398.9375 64.36979 398.9375 62.854164Q398.9375 61.291664 399.75 60.43229Q400.5625 59.55729 401.84375 59.55729Q403.09375 59.55729 403.875 60.40104Q404.67188 61.24479 404.67188 62.791664Q404.67188 62.885414 404.67188 63.072914L400.03125 63.072914Q400.09375 64.104164 400.60938 64.65104Q401.125 65.18229 401.90625 65.18229Q402.48438 65.18229 402.89062 64.885414Q403.3125 64.572914 403.54688 63.916664ZM400.09375 62.21354L403.5625 62.21354Q403.5 61.416664 403.17188 61.02604Q402.65625 60.416664 401.85938 60.416664Q401.125 60.416664 400.625 60.90104Q400.14062 61.385414 400.09375 62.21354ZM405.73438 65.916664L405.73438 65.05729L409.70312 60.510414Q409.01562 60.541664 408.5 60.541664L405.96875 60.541664L405.96875 59.697914L411.0625 59.697914L411.0625 60.385414L407.6875 64.33854L407.03125 65.05729Q407.75 65.010414 408.35938 65.010414L411.25 65.010414L411.25 65.916664L405.73438 65.916664ZM411.29688 58.541664L411.29688 57.322914L412.35938 57.322914L412.35938 58.541664L411.29688 58.541664ZM411.29688 65.916664L411.29688 59.697914L412.35938 59.697914L412.35938 65.916664L411.29688 65.916664ZM418.375 65.916664L418.375 64.99479Q417.64062 66.05729 416.39062 66.05729Q415.84375 66.05729 415.35938 65.854164Q414.89062 65.635414 414.65625 65.322914Q414.42188 64.99479 414.32812 64.52604Q414.26562 64.229164 414.26562 63.541664L414.26562 59.697914L415.32812 59.697914L415.32812 63.15104Q415.32812 63.96354 415.39062 64.260414Q415.48438 64.666664 415.79688 64.916664Q416.125 65.15104 416.60938 65.15104Q417.07812 65.15104 417.48438 64.916664Q417.90625 64.666664 418.07812 64.24479Q418.26562 63.822914 418.26562 63.02604L418.26562 59.697914L419.3125 59.697914L419.3125 65.916664L418.375 65.916664ZM421.29688 65.916664L421.29688 59.697914L422.23438 59.697914L422.23438 60.572914Q422.53125 60.104164 423.01562 59.83854Q423.5 59.55729 424.125 59.55729Q424.8125 59.55729 425.25 59.83854Q425.70312 60.11979 425.875 60.635414Q426.625 59.55729 427.79688 59.55729Q428.73438 59.55729 429.21875 60.072914Q429.71875 60.572914 429.71875 61.65104L429.71875 65.916664L428.67188 65.916664L428.67188 61.99479Q428.67188 61.36979 428.5625 61.08854Q428.46875 60.80729 428.20312 60.635414Q427.9375 60.46354 427.5625 60.46354Q426.90625 60.46354 426.46875 60.90104Q426.04688 61.33854 426.04688 62.30729L426.04688 65.916664L424.98438 65.916664L424.98438 61.86979Q424.98438 61.166664 424.71875 60.822914Q424.46875 60.46354 423.89062 60.46354Q423.4375 60.46354 423.0625 60.697914Q422.6875 60.93229 422.51562 61.385414Q422.34375 61.83854 422.34375 62.68229L422.34375 65.916664L421.29688 65.916664ZM432.98438 68.447914L432.23438 68.447914Q433.98438 65.635414 433.98438 62.80729Q433.98438 61.71354 433.73438 60.61979Q433.53125 59.74479 433.17188 58.93229Q432.9375 58.416664 432.23438 57.18229L432.98438 57.18229Q434.07812 58.65104 434.60938 60.135414Q435.0625 61.416664 435.0625 62.80729Q435.0625 64.385414 434.45312 65.86979Q433.84375 67.33854 432.98438 68.447914Z" fill-rule="nonzero"/><path fill="#757575" d="M211.98438 37.55L211.98438 23.2375L214.84375 23.2375L218.21875 33.3625Q218.6875 34.784374 218.90625 35.4875Q219.15625 34.70625 219.67188 33.190624L223.09375 23.2375L225.64062 23.2375L225.64062 37.55L223.82812 37.55L223.82812 25.565624L219.65625 37.55L217.95312 37.55L213.8125 25.3625L213.8125 37.55L211.98438 37.55ZM235.92188 34.20625L237.73438 34.440624Q237.3125 36.01875 236.14062 36.909374Q234.98438 37.784374 233.17188 37.784374Q230.90625 37.784374 229.5625 36.39375Q228.23438 34.9875 228.23438 32.45625Q228.23438 29.83125 229.57812 28.39375Q230.92188 26.940624 233.07812 26.940624Q235.15625 26.940624 236.46875 28.3625Q237.79688 29.76875 237.79688 32.346874Q237.79688 32.503124 237.78125 32.815624L230.04688 32.815624Q230.14062 34.51875 231.01562 35.425Q231.89062 36.33125 233.1875 36.33125Q234.15625 36.33125 234.82812 35.83125Q235.51562 35.315624 235.92188 34.20625ZM230.14062 31.3625L235.9375 31.3625Q235.82812 30.065624 235.28125 29.409374Q234.4375 28.39375 233.09375 28.39375Q231.89062 28.39375 231.0625 29.20625Q230.23438 30.003124 230.14062 31.3625ZM239.10938 34.45625L240.85938 34.175Q241.0 35.221874 241.67188 35.784374Q242.34375 36.33125 243.54688 36.33125Q244.75 36.33125 245.32812 35.846874Q245.92188 35.346874 245.92188 34.690624Q245.92188 34.096874 245.40625 33.753124Q245.04688 33.51875 243.60938 33.159374Q241.67188 32.659374 240.92188 32.315624Q240.1875 31.95625 239.79688 31.33125Q239.40625 30.690624 239.40625 29.925Q239.40625 29.2375 239.71875 28.64375Q240.04688 28.05 240.59375 27.659374Q241.0 27.3625 241.70312 27.159374Q242.42188 26.940624 243.23438 26.940624Q244.45312 26.940624 245.375 27.3Q246.29688 27.64375 246.73438 28.253124Q247.17188 28.846874 247.34375 29.846874L245.625 30.08125Q245.5 29.284374 244.9375 28.846874Q244.375 28.39375 243.35938 28.39375Q242.14062 28.39375 241.625 28.8Q241.10938 29.190624 241.10938 29.721874Q241.10938 30.065624 241.32812 30.346874Q241.53125 30.628124 242.0 30.815624Q242.26562 30.909374 243.54688 31.253124Q245.42188 31.753124 246.15625 32.08125Q246.89062 32.39375 247.3125 33.003124Q247.73438 33.596874 247.73438 34.503124Q247.73438 35.378124 247.21875 36.159374Q246.70312 36.940624 245.73438 37.3625Q244.76562 37.784374 243.54688 37.784374Q241.53125 37.784374 240.46875 36.940624Q239.40625 36.096874 239.10938 34.45625ZM249.10938 34.45625L250.85938 34.175Q251.0 35.221874 251.67188 35.784374Q252.34375 36.33125 253.54688 36.33125Q254.75 36.33125 255.32812 35.846874Q255.92188 35.346874 255.92188 34.690624Q255.92188 34.096874 255.40625 33.753124Q255.04688 33.51875 253.60938 33.159374Q251.67188 32.659374 250.92188 32.315624Q250.1875 31.95625 249.79688 31.33125Q249.40625 30.690624 249.40625 29.925Q249.40625 29.2375 249.71875 28.64375Q250.04688 28.05 250.59375 27.659374Q251.0 27.3625 251.70312 27.159374Q252.42188 26.940624 253.23438 26.940624Q254.45312 26.940624 255.375 27.3Q256.29688 27.64375 256.73438 28.253124Q257.17188 28.846874 257.34375 29.846874L255.625 30.08125Q255.5 29.284374 254.9375 28.846874Q254.375 28.39375 253.35938 28.39375Q252.14062 28.39375 251.625 28.8Q251.10938 29.190624 251.10938 29.721874Q251.10938 30.065624 251.32812 30.346874Q251.53125 30.628124 252.0 30.815624Q252.26562 30.909374 253.54688 31.253124Q255.42188 31.753124 256.15625 32.08125Q256.89062 32.39375 257.3125 33.003124Q257.73438 33.596874 257.73438 34.503124Q257.73438 35.378124 257.21875 36.159374Q256.70312 36.940624 255.73438 37.3625Q254.76562 37.784374 253.54688 37.784374Q251.53125 37.784374 250.46875 36.940624Q249.40625 36.096874 249.10938 34.45625ZM266.59375 36.26875Q265.60938 37.096874 264.70312 37.440624Q263.79688 37.784374 262.76562 37.784374Q261.0625 37.784374 260.14062 36.95625Q259.21875 36.1125 259.21875 34.815624Q259.21875 34.05 259.5625 33.425Q259.92188 32.8 260.48438 32.425Q261.04688 32.034374 261.75 31.83125Q262.26562 31.70625 263.3125 31.565624Q265.4375 31.315624 266.4375 30.971874Q266.45312 30.6125 266.45312 30.503124Q266.45312 29.440624 265.95312 28.9875Q265.28125 28.39375 263.95312 28.39375Q262.70312 28.39375 262.10938 28.83125Q261.53125 29.26875 261.25 30.378124L259.53125 30.14375Q259.76562 29.034374 260.29688 28.3625Q260.82812 27.675 261.84375 27.315624Q262.85938 26.940624 264.20312 26.940624Q265.53125 26.940624 266.35938 27.253124Q267.1875 27.565624 267.57812 28.05Q267.96875 28.51875 268.125 29.2375Q268.21875 29.690624 268.21875 30.8625L268.21875 33.20625Q268.21875 35.659374 268.32812 36.315624Q268.4375 36.95625 268.78125 37.55L266.9375 37.55Q266.67188 37.003124 266.59375 36.26875ZM266.4375 32.346874Q265.48438 32.7375 263.5625 33.003124Q262.48438 33.159374 262.03125 33.3625Q261.59375 33.55 261.34375 33.925Q261.09375 34.3 261.09375 34.76875Q261.09375 35.471874 261.625 35.940624Q262.15625 36.409374 263.1875 36.409374Q264.20312 36.409374 264.98438 35.971874Q265.78125 35.51875 266.15625 34.753124Q266.4375 34.14375 266.4375 32.9875L266.4375 32.346874ZM270.5 38.409374L272.20312 38.659374Q272.3125 39.45625 272.79688 39.815624Q273.45312 40.3 274.59375 40.3Q275.8125 40.3 276.46875 39.815624Q277.14062 39.33125 277.375 38.45625Q277.51562 37.909374 277.5 36.190624Q276.34375 37.55 274.625 37.55Q272.48438 37.55 271.3125 36.003124Q270.14062 34.45625 270.14062 32.3Q270.14062 30.815624 270.67188 29.565624Q271.21875 28.315624 272.23438 27.628124Q273.26562 26.940624 274.64062 26.940624Q276.46875 26.940624 277.67188 28.425L277.67188 27.175L279.28125 27.175L279.28125 36.14375Q279.28125 38.565624 278.78125 39.565624Q278.29688 40.58125 277.21875 41.159374Q276.15625 41.753124 274.59375 41.753124Q272.75 41.753124 271.59375 40.925Q270.45312 40.096874 270.5 38.409374ZM271.95312 32.175Q271.95312 34.221874 272.76562 35.159374Q273.57812 36.096874 274.79688 36.096874Q276.0 36.096874 276.8125 35.159374Q277.64062 34.221874 277.64062 32.2375Q277.64062 30.33125 276.79688 29.3625Q275.95312 28.39375 274.76562 28.39375Q273.59375 28.39375 272.76562 29.346874Q271.95312 30.3 271.95312 32.175ZM288.92188 34.20625L290.73438 34.440624Q290.3125 36.01875 289.14062 36.909374Q287.98438 37.784374 286.17188 37.784374Q283.90625 37.784374 282.5625 36.39375Q281.23438 34.9875 281.23438 32.45625Q281.23438 29.83125 282.57812 28.39375Q283.92188 26.940624 286.07812 26.940624Q288.15625 26.940624 289.46875 28.3625Q290.79688 29.76875 290.79688 32.346874Q290.79688 32.503124 290.78125 32.815624L283.04688 32.815624Q283.14062 34.51875 284.01562 35.425Q284.89062 36.33125 286.1875 36.33125Q287.15625 36.33125 287.82812 35.83125Q288.51562 35.315624 288.92188 34.20625ZM283.14062 31.3625L288.9375 31.3625Q288.82812 30.065624 288.28125 29.409374Q287.4375 28.39375 286.09375 28.39375Q284.89062 28.39375 284.0625 29.20625Q283.23438 30.003124 283.14062 31.3625ZM302.65625 35.971874L302.90625 37.534374Q302.17188 37.690624 301.57812 37.690624Q300.625 37.690624 300.09375 37.39375Q299.57812 37.08125 299.35938 36.596874Q299.14062 36.096874 299.14062 34.51875L299.14062 28.55L297.85938 28.55L297.85938 27.175L299.14062 27.175L299.14062 24.6125L300.89062 23.55L300.89062 27.175L302.65625 27.175L302.65625 28.55L300.89062 28.55L300.89062 34.6125Q300.89062 35.3625 300.98438 35.58125Q301.07812 35.784374 301.28125 35.925Q301.5 36.05 301.89062 36.05Q302.17188 36.05 302.65625 35.971874ZM304.8125 37.55L304.8125 23.2375L306.57812 23.2375L306.57812 28.3625Q307.8125 26.940624 309.6875 26.940624Q310.82812 26.940624 311.67188 27.39375Q312.53125 27.846874 312.89062 28.659374Q313.26562 29.45625 313.26562 30.971874L313.26562 37.55L311.51562 37.55L311.51562 30.971874Q311.51562 29.659374 310.9375 29.065624Q310.35938 28.45625 309.32812 28.45625Q308.54688 28.45625 307.84375 28.8625Q307.15625 29.26875 306.85938 29.971874Q306.57812 30.659374 306.57812 31.878124L306.57812 37.55L304.8125 37.55ZM314.79688 37.55L314.79688 27.175L316.375 27.175L316.375 28.753124Q316.98438 27.64375 317.5 27.3Q318.01562 26.940624 318.625 26.940624Q319.51562 26.940624 320.4375 27.503124L319.82812 29.14375Q319.1875 28.753124 318.54688 28.753124Q317.96875 28.753124 317.5 29.1125Q317.04688 29.45625 316.84375 30.065624Q316.5625 31.003124 316.5625 32.1125L316.5625 37.55L314.79688 37.55ZM321.17188 32.3625Q321.17188 29.4875 322.76562 28.096874Q324.10938 26.940624 326.03125 26.940624Q328.17188 26.940624 329.51562 28.346874Q330.875 29.753124 330.875 32.221874Q330.875 34.221874 330.28125 35.378124Q329.6875 36.51875 328.53125 37.159374Q327.39062 37.784374 326.03125 37.784374Q323.84375 37.784374 322.5 36.39375Q321.17188 34.9875 321.17188 32.3625ZM322.96875 32.3625Q322.96875 34.3625 323.82812 35.346874Q324.70312 36.33125 326.03125 36.33125Q327.34375 36.33125 328.20312 35.346874Q329.07812 34.346874 329.07812 32.3Q329.07812 30.378124 328.20312 29.39375Q327.32812 28.39375 326.03125 28.39375Q324.70312 28.39375 323.82812 29.39375Q322.96875 30.378124 322.96875 32.3625ZM339.60938 37.55L339.60938 36.01875Q338.40625 37.784374 336.32812 37.784374Q335.40625 37.784374 334.60938 37.440624Q333.8125 37.08125 333.42188 36.55Q333.04688 36.01875 332.89062 35.2375Q332.78125 34.721874 332.78125 33.596874L332.78125 27.175L334.53125 27.175L334.53125 32.925Q334.53125 34.3 334.64062 34.784374Q334.8125 35.471874 335.34375 35.878124Q335.89062 36.26875 336.67188 36.26875Q337.46875 36.26875 338.15625 35.8625Q338.85938 35.45625 339.14062 34.76875Q339.4375 34.065624 339.4375 32.7375L339.4375 27.175L341.1875 27.175L341.1875 37.55L339.60938 37.55ZM342.5 38.409374L344.20312 38.659374Q344.3125 39.45625 344.79688 39.815624Q345.45312 40.3 346.59375 40.3Q347.8125 40.3 348.46875 39.815624Q349.14062 39.33125 349.375 38.45625Q349.51562 37.909374 349.5 36.190624Q348.34375 37.55 346.625 37.55Q344.48438 37.55 343.3125 36.003124Q342.14062 34.45625 342.14062 32.3Q342.14062 30.815624 342.67188 29.565624Q343.21875 28.315624 344.23438 27.628124Q345.26562 26.940624 346.64062 26.940624Q348.46875 26.940624 349.67188 28.425L349.67188 27.175L351.28125 27.175L351.28125 36.14375Q351.28125 38.565624 350.78125 39.565624Q350.29688 40.58125 349.21875 41.159374Q348.15625 41.753124 346.59375 41.753124Q344.75 41.753124 343.59375 40.925Q342.45312 40.096874 342.5 38.409374ZM343.95312 32.175Q343.95312 34.221874 344.76562 35.159374Q345.57812 36.096874 346.79688 36.096874Q348.0 36.096874 348.8125 35.159374Q349.64062 34.221874 349.64062 32.2375Q349.64062 30.33125 348.79688 29.3625Q347.95312 28.39375 346.76562 28.39375Q345.59375 28.39375 344.76562 29.346874Q343.95312 30.3 343.95312 32.175ZM353.8125 37.55L353.8125 23.2375L355.57812 23.2375L355.57812 28.3625Q356.8125 26.940624 358.6875 26.940624Q359.82812 26.940624 360.67188 27.39375Q361.53125 27.846874 361.89062 28.659374Q362.26562 29.45625 362.26562 30.971874L362.26562 37.55L360.51562 37.55L360.51562 30.971874Q360.51562 29.659374 359.9375 29.065624Q359.35938 28.45625 358.32812 28.45625Q357.54688 28.45625 356.84375 28.8625Q356.15625 29.26875 355.85938 29.971874Q355.57812 30.659374 355.57812 31.878124L355.57812 37.55L353.8125 37.55ZM363.8125 41.51875L363.8125 27.175L365.42188 27.175L365.42188 28.51875Q365.98438 27.7375 366.6875 27.346874Q367.40625 26.940624 368.42188 26.940624Q369.75 26.940624 370.76562 27.628124Q371.78125 28.315624 372.29688 29.565624Q372.82812 30.8 372.82812 32.284374Q372.82812 33.878124 372.25 35.159374Q371.6875 36.425 370.59375 37.1125Q369.5 37.784374 368.29688 37.784374Q367.42188 37.784374 366.71875 37.409374Q366.03125 37.034374 365.57812 36.471874L365.57812 41.51875L363.8125 41.51875ZM365.40625 32.425Q365.40625 34.425 366.21875 35.378124Q367.03125 36.33125 368.1875 36.33125Q369.35938 36.33125 370.1875 35.346874Q371.03125 34.3625 371.03125 32.26875Q371.03125 30.3 370.20312 29.315624Q369.39062 28.315624 368.26562 28.315624Q367.14062 28.315624 366.26562 29.378124Q365.40625 30.425 365.40625 32.425ZM381.60938 37.55L381.60938 36.01875Q380.40625 37.784374 378.32812 37.784374Q377.40625 37.784374 376.60938 37.440624Q375.8125 37.08125 375.42188 36.55Q375.04688 36.01875 374.89062 35.2375Q374.78125 34.721874 374.78125 33.596874L374.78125 27.175L376.53125 27.175L376.53125 32.925Q376.53125 34.3 376.64062 34.784374Q376.8125 35.471874 377.34375 35.878124Q377.89062 36.26875 378.67188 36.26875Q379.46875 36.26875 380.15625 35.8625Q380.85938 35.45625 381.14062 34.76875Q381.4375 34.065624 381.4375 32.7375L381.4375 27.175L383.1875 27.175L383.1875 37.55L381.60938 37.55ZM388.65625 35.971874L388.90625 37.534374Q388.17188 37.690624 387.57812 37.690624Q386.625 37.690624 386.09375 37.39375Q385.57812 37.08125 385.35938 36.596874Q385.14062 36.096874 385.14062 34.51875L385.14062 28.55L383.85938 28.55L383.85938 27.175L385.14062 27.175L385.14062 24.6125L386.89062 23.55L386.89062 27.175L388.65625 27.175L388.65625 28.55L386.89062 28.55L386.89062 34.6125Q386.89062 35.3625 386.98438 35.58125Q387.07812 35.784374 387.28125 35.925Q387.5 36.05 387.89062 36.05Q388.17188 36.05 388.65625 35.971874Z" fill-rule="nonzero"/></svg>