<svg version="1.1" viewBox="0.0 0.0 600.0 371.0" fill="none" stroke="none" stroke-linecap="square" stroke-miterlimit="10" width="600" height="371" xmlns:xlink="http://www.w3.org/1999/xlink" xmlns="http://www.w3.org/2000/svg"><path fill="#ffffff" d="M0 0L600.0 0L600.0 371.0L0 371.0L0 0Z" fill-rule="nonzero"/><path stroke="#333333" stroke-width="1.0" stroke-linecap="butt" d="M77.5 332.5L581.5 332.5" fill-rule="nonzero"/><path stroke="#cccccc" stroke-width="1.0" stroke-linecap="butt" d="M77.5 283.5L581.5 283.5" fill-rule="nonzero"/><path stroke="#cccccc" stroke-width="1.0" stroke-linecap="butt" d="M77.5 234.5L581.5 234.5" fill-rule="nonzero"/><path stroke="#cccccc" stroke-width="1.0" stroke-linecap="butt" d="M77.5 185.5L581.5 185.5" fill-rule="nonzero"/><path stroke="#cccccc" stroke-width="1.0" stroke-linecap="butt" d="M77.5 137.5L581.5 137.5" fill-rule="nonzero"/><path stroke="#cccccc" stroke-width="1.0" stroke-linecap="butt" d="M77.5 88.5L581.5 88.5" fill-rule="nonzero"/><clipPath id="id_0"><path d="M77.55 88.28333L581.45 88.28333L581.45 332.45L77.55 332.45L77.55 88.28333Z" clip-rule="nonzero"/></clipPath><path stroke="#000000" stroke-width="2.0" stroke-linecap="butt" stroke-opacity="0.0" clip-path="url(#id_0)" d="M221.0 332.0L153.0 332.0L153.0 198.0C153.0 196.89543 153.89543 196.0 155.0 196.0L219.0 196.0C220.10457 196.0 221.0 196.89543 221.0 198.0Z" fill-rule="nonzero"/><path fill="#4285f4" clip-path="url(#id_0)" d="M221.0 332.0L153.0 332.0L153.0 198.0C153.0 196.89543 153.89543 196.0 155.0 196.0L219.0 196.0C220.10457 196.0 221.0 196.89543 221.0 198.0Z" fill-rule="nonzero"/><path stroke="#000000" stroke-width="2.0" stroke-linecap="butt" stroke-opacity="0.0" clip-path="url(#id_0)" d="M436.0 332.0L368.0 332.0L368.0 120.0C368.0 118.89543 368.89542 118.0 370.0 118.0L434.0 118.0C435.10458 118.0 436.0 118.89543 436.0 120.0Z" fill-rule="nonzero"/><path fill="#4285f4" clip-path="url(#id_0)" d="M436.0 332.0L368.0 332.0L368.0 120.0C368.0 118.89543 368.89542 118.0 370.0 118.0L434.0 118.0C435.10458 118.0 436.0 118.89543 436.0 120.0Z" fill-rule="nonzero"/><path stroke="#000000" stroke-width="2.0" stroke-linecap="butt" stroke-opacity="0.0" clip-path="url(#id_0)" d="M291.0 332.0L223.0 332.0L223.0 227.0C223.0 225.89543 223.89543 225.0 225.0 225.0L289.0 225.0C290.10458 225.0 291.0 225.89543 291.0 227.0Z" fill-rule="nonzero"/><path fill="#ea4335" clip-path="url(#id_0)" d="M291.0 332.0L223.0 332.0L223.0 227.0C223.0 225.89543 223.89543 225.0 225.0 225.0L289.0 225.0C290.10458 225.0 291.0 225.89543 291.0 227.0Z" fill-rule="nonzero"/><path stroke="#000000" stroke-width="2.0" stroke-linecap="butt" stroke-opacity="0.0" clip-path="url(#id_0)" d="M506.0 332.0L438.0 332.0L438.0 198.0C438.0 196.89543 438.89542 196.0 440.0 196.0L504.0 196.0C505.10458 196.0 506.0 196.89543 506.0 198.0Z" fill-rule="nonzero"/><path fill="#ea4335" clip-path="url(#id_0)" d="M506.0 332.0L438.0 332.0L438.0 198.0C438.0 196.89543 438.89542 196.0 440.0 196.0L504.0 196.0C505.10458 196.0 506.0 196.89543 506.0 198.0Z" fill-rule="nonzero"/><path fill="#000000" d="M26.534388 248.80417L26.831263 247.67917Q28.221888 248.03854 28.956263 248.96042Q29.690638 249.8823 29.690638 251.22604Q29.690638 252.61667 29.128138 253.49167Q28.565638 254.36667 27.503138 254.8198Q26.425013 255.27292 25.190638 255.27292Q23.846888 255.27292 22.846888 254.7573Q21.846888 254.24167 21.331263 253.30417Q20.815638 252.35104 20.815638 251.21042Q20.815638 249.92917 21.471888 249.05417Q22.128138 248.16354 23.315638 247.8198L23.581263 248.9448Q22.643763 249.24167 22.221888 249.8198Q21.784388 250.3823 21.784388 251.24167Q21.784388 252.22604 22.268763 252.89792Q22.737513 253.55417 23.534388 253.83542Q24.331263 254.10104 25.190638 254.10104Q26.284388 254.10104 27.096888 253.78854Q27.909388 253.46042 28.315638 252.78854Q28.721888 252.11667 28.721888 251.3198Q28.721888 250.36667 28.175013 249.71042Q27.628138 249.03854 26.534388 248.80417ZM29.550013 245.9448L20.956263 245.9448L20.956263 242.6948Q20.956263 241.85104 21.034388 241.39792Q21.143763 240.7573 21.440638 240.33542Q21.737513 239.89792 22.268763 239.64792Q22.800013 239.3823 23.440638 239.3823Q24.534388 239.3823 25.300013 240.08542Q26.050013 240.77292 26.050013 242.60104L26.050013 244.80417L29.550013 244.80417L29.550013 245.9448ZM25.050013 244.80417L25.050013 242.58542Q25.050013 241.47604 24.643763 241.02292Q24.221888 240.55417 23.471888 240.55417Q22.940638 240.55417 22.565638 240.83542Q22.175013 241.10104 22.050013 241.53854Q21.971888 241.83542 21.971888 242.60104L21.971888 244.80417L25.050013 244.80417ZM20.956263 232.30417L20.956263 231.16354L25.925013 231.16354Q27.221888 231.16354 27.987513 231.46042Q28.737513 231.7573 29.221888 232.52292Q29.690638 233.28854 29.690638 234.52292Q29.690638 235.72604 29.284388 236.5073Q28.862513 237.27292 28.081263 237.60104Q27.284388 237.92917 25.925013 237.92917L20.956263 237.92917L20.956263 236.78854L25.909388 236.78854Q27.034388 236.78854 27.565638 236.58542Q28.096888 236.36667 28.393763 235.86667Q28.675013 235.35104 28.675013 234.61667Q28.675013 233.36667 28.112513 232.83542Q27.534388 232.30417 25.909388 232.30417L20.956263 232.30417ZM29.550013 221.99167L28.628138 221.99167Q29.690638 222.72604 29.690638 223.97604Q29.690638 224.52292 29.487513 225.0073Q29.268763 225.47604 28.956263 225.71042Q28.628138 225.9448 28.159388 226.03854Q27.862513 226.10104 27.175013 226.10104L23.331263 226.10104L23.331263 225.03854L26.784388 225.03854Q27.596888 225.03854 27.893763 224.97604Q28.300013 224.8823 28.550013 224.5698Q28.784388 224.24167 28.784388 223.7573Q28.784388 223.28854 28.550013 222.8823Q28.300013 222.46042 27.878138 222.28854Q27.456263 222.10104 26.659388 222.10104L23.331263 222.10104L23.331263 221.05417L29.550013 221.05417L29.550013 221.99167ZM27.690638 219.49167L27.534388 218.46042Q28.159388 218.36667 28.487513 217.97604Q28.815638 217.5698 28.815638 216.83542Q28.815638 216.11667 28.534388 215.77292Q28.237513 215.41354 27.831263 215.41354Q27.471888 215.41354 27.268763 215.72604Q27.128138 215.9448 26.909388 216.80417Q26.612513 217.96042 26.409388 218.41354Q26.190638 218.85104 25.815638 219.08542Q25.440638 219.3198 24.971888 219.3198Q24.565638 219.3198 24.206263 219.1323Q23.846888 218.9448 23.612513 218.61667Q23.440638 218.36667 23.315638 217.9448Q23.190638 217.52292 23.190638 217.02292Q23.190638 216.30417 23.409388 215.7573Q23.612513 215.1948 23.971888 214.92917Q24.331263 214.66354 24.925013 214.5698L25.065638 215.60104Q24.596888 215.66354 24.331263 216.0073Q24.050013 216.33542 24.050013 216.96042Q24.050013 217.67917 24.300013 217.99167Q24.534388 218.30417 24.862513 218.30417Q25.065638 218.30417 25.221888 218.17917Q25.393763 218.03854 25.503138 217.77292Q25.565638 217.61667 25.768763 216.83542Q26.081263 215.71042 26.268763 215.27292Q26.456263 214.83542 26.815638 214.58542Q27.175013 214.33542 27.721888 214.33542Q28.253138 214.33542 28.721888 214.64792Q29.175013 214.9448 29.440638 215.52292Q29.690638 216.10104 29.690638 216.83542Q29.690638 218.05417 29.190638 218.6948Q28.675013 219.3198 27.690638 219.49167ZM28.784388 208.0073Q29.284388 208.60104 29.487513 209.14792Q29.690638 209.67917 29.690638 210.30417Q29.690638 211.33542 29.190638 211.8823Q28.690638 212.42917 27.909388 212.42917Q27.456263 212.42917 27.081263 212.22604Q26.690638 212.02292 26.471888 211.67917Q26.237513 211.33542 26.128138 210.91354Q26.034388 210.61667 25.956263 209.97604Q25.815638 208.71042 25.596888 208.10104Q25.378138 208.10104 25.331263 208.10104Q24.675013 208.10104 24.409388 208.39792Q24.065638 208.80417 24.065638 209.60104Q24.065638 210.33542 24.331263 210.6948Q24.581263 211.05417 25.237513 211.22604L25.096888 212.2573Q24.440638 212.11667 24.034388 211.78854Q23.628138 211.46042 23.409388 210.85104Q23.190638 210.24167 23.190638 209.4448Q23.190638 208.64792 23.378138 208.14792Q23.565638 207.64792 23.846888 207.41354Q24.128138 207.17917 24.565638 207.08542Q24.831263 207.03854 25.534388 207.03854L26.940638 207.03854Q28.409388 207.03854 28.800013 206.97604Q29.190638 206.89792 29.550013 206.6948L29.550013 207.80417Q29.221888 207.96042 28.784388 208.0073ZM26.425013 208.10104Q26.659388 208.67917 26.831263 209.8198Q26.925013 210.47604 27.050013 210.74167Q27.159388 211.0073 27.378138 211.16354Q27.596888 211.30417 27.878138 211.30417Q28.300013 211.30417 28.581263 210.99167Q28.862513 210.66354 28.862513 210.05417Q28.862513 209.4448 28.596888 208.97604Q28.331263 208.49167 27.862513 208.27292Q27.503138 208.10104 26.815638 208.10104L26.425013 208.10104ZM30.065638 205.27292L30.221888 204.24167Q30.690638 204.17917 30.909388 203.8823Q31.206263 203.49167 31.206263 202.8198Q31.206263 202.08542 30.909388 201.6948Q30.612513 201.28854 30.096888 201.14792Q29.768763 201.05417 28.737513 201.0698Q29.550013 201.7573 29.550013 202.78854Q29.550013 204.0698 28.628138 204.77292Q27.690638 205.47604 26.409388 205.47604Q25.518763 205.47604 24.768763 205.16354Q24.003138 204.83542 23.596888 204.22604Q23.190638 203.61667 23.190638 202.78854Q23.190638 201.67917 24.081263 200.96042L23.331263 200.96042L23.331263 199.99167L28.706263 199.99167Q30.159388 199.99167 30.768763 200.28854Q31.378138 200.58542 31.721888 201.22604Q32.08126 201.86667 32.08126 202.80417Q32.08126 203.91354 31.581263 204.60104Q31.081263 205.28854 30.065638 205.27292ZM26.331263 204.39792Q27.550013 204.39792 28.112513 203.91354Q28.675013 203.42917 28.675013 202.6948Q28.675013 201.96042 28.112513 201.47604Q27.550013 200.97604 26.362513 200.97604Q25.221888 200.97604 24.643763 201.49167Q24.065638 201.99167 24.065638 202.71042Q24.065638 203.41354 24.643763 203.91354Q25.206263 204.39792 26.331263 204.39792ZM27.550013 193.8198L27.675013 192.72604Q28.628138 192.97604 29.159388 193.67917Q29.690638 194.3823 29.690638 195.46042Q29.690638 196.8198 28.846888 197.6323Q28.003138 198.42917 26.487513 198.42917Q24.925013 198.42917 24.065638 197.61667Q23.190638 196.80417 23.190638 195.52292Q23.190638 194.27292 24.034388 193.49167Q24.878138 192.6948 26.425013 192.6948Q26.518763 192.6948 26.706263 192.6948L26.706263 197.33542Q27.737513 197.27292 28.284388 196.7573Q28.815638 196.24167 28.815638 195.46042Q28.815638 194.8823 28.518763 194.47604Q28.206263 194.05417 27.550013 193.8198ZM25.846888 197.27292L25.846888 193.80417Q25.050013 193.86667 24.659388 194.1948Q24.050013 194.71042 24.050013 195.5073Q24.050013 196.24167 24.534388 196.74167Q25.018763 197.22604 25.846888 197.27292ZM23.018763 188.16354Q22.096888 188.16354 21.456263 187.71042Q20.815638 187.24167 20.815638 186.36667Q20.815638 185.55417 21.393763 185.02292Q21.971888 184.49167 23.081263 184.49167Q24.175013 184.49167 24.768763 185.03854Q25.346888 185.5698 25.346888 186.35104Q25.346888 187.1323 24.768763 187.64792Q24.190638 188.16354 23.018763 188.16354ZM21.534388 186.33542Q21.534388 186.72604 21.878138 186.99167Q22.221888 187.24167 23.128138 187.24167Q23.956263 187.24167 24.300013 186.99167Q24.628138 186.72604 24.628138 186.33542Q24.628138 185.92917 24.284388 185.67917Q23.940638 185.41354 23.050013 185.41354Q22.206263 185.41354 21.878138 185.67917Q21.534388 185.9448 21.534388 186.33542ZM29.862513 186.33542L20.815638 181.6323L20.815638 180.77292L29.862513 185.46042L29.862513 186.33542ZM27.534388 182.61667Q26.612513 182.61667 25.971888 182.16354Q25.331263 181.6948 25.331263 180.80417Q25.331263 179.99167 25.909388 179.46042Q26.471888 178.92917 27.596888 178.92917Q28.690638 178.92917 29.284388 179.47604Q29.862513 180.0073 29.862513 180.80417Q29.862513 181.5698 29.284388 182.10104Q28.706263 182.61667 27.534388 182.61667ZM26.050013 180.77292Q26.050013 181.17917 26.393763 181.4448Q26.737513 181.6948 27.643763 181.6948Q28.456263 181.6948 28.800013 181.42917Q29.143763 181.16354 29.143763 180.77292Q29.143763 180.3823 28.800013 180.11667Q28.456263 179.85104 27.550013 179.85104Q26.721888 179.85104 26.393763 180.11667Q26.050013 180.3823 26.050013 180.77292Z" fill-rule="nonzero"/><path fill="#000000" d="M65.05 332.21564Q65.05 330.6844 65.3625 329.7625Q65.675 328.825 66.28438 328.325Q66.90938 327.825 67.84688 327.825Q68.53438 327.825 69.05 328.10626Q69.58125 328.3875 69.925 328.91876Q70.26875 329.4344 70.45625 330.1844Q70.64375 330.9344 70.64375 332.21564Q70.64375 333.73126 70.33125 334.65314Q70.03438 335.575 69.40938 336.09064Q68.8 336.59064 67.84688 336.59064Q66.6125 336.59064 65.89375 335.7Q65.05 334.6375 65.05 332.21564ZM66.12813 332.21564Q66.12813 334.325 66.62813 335.02814Q67.12813 335.73126 67.84688 335.73126Q68.58125 335.73126 69.06563 335.02814Q69.56563 334.325 69.56563 332.21564Q69.56563 330.09064 69.06563 329.40314Q68.58125 328.7 67.83125 328.7Q67.1125 328.7 66.675 329.3094Q66.12813 330.09064 66.12813 332.21564Z" fill-rule="nonzero"/><path fill="#000000" d="M63.596874 286.60104L63.596874 287.61667L57.909374 287.61667Q57.909374 287.24167 58.034374 286.8823Q58.253124 286.30417 58.721874 285.74167Q59.20625 285.17917 60.1125 284.4448Q61.51875 283.28854 62.003124 282.61667Q62.503124 281.9448 62.503124 281.35104Q62.503124 280.72604 62.05 280.30417Q61.596874 279.86667 60.878124 279.86667Q60.1125 279.86667 59.659374 280.3198Q59.20625 280.77292 59.190624 281.58542L58.1125 281.47604Q58.221874 280.2573 58.940624 279.6323Q59.675 278.99167 60.909374 278.99167Q62.14375 278.99167 62.8625 279.67917Q63.58125 280.36667 63.58125 281.3823Q63.58125 281.89792 63.3625 282.39792Q63.159374 282.8823 62.659374 283.4448Q62.175 283.99167 61.05 284.9448Q60.096874 285.74167 59.815624 286.03854Q59.55 286.3198 59.378124 286.60104L63.596874 286.60104ZM65.05 285.36667L66.15938 285.27292Q66.28438 286.08542 66.72188 286.49167Q67.175 286.89792 67.81563 286.89792Q68.56563 286.89792 69.09688 286.3198Q69.62813 285.74167 69.62813 284.80417Q69.62813 283.89792 69.1125 283.3823Q68.6125 282.85104 67.78438 282.85104Q67.28438 282.85104 66.8625 283.08542Q66.45625 283.3198 66.22188 283.67917L65.2375 283.55417L66.06563 279.14792L70.34688 279.14792L70.34688 280.14792L66.90938 280.14792L66.45625 282.46042Q67.22188 281.91354 68.06563 281.91354Q69.19063 281.91354 69.95625 282.6948Q70.7375 283.47604 70.7375 284.71042Q70.7375 285.86667 70.06563 286.72604Q69.2375 287.7573 67.81563 287.7573Q66.64375 287.7573 65.89375 287.10104Q65.15938 286.4448 65.05 285.36667Z" fill-rule="nonzero"/><path fill="#000000" d="M58.05 236.53334L59.159374 236.43959Q59.284374 237.25209 59.721874 237.65834Q60.175 238.06459 60.815624 238.06459Q61.565624 238.06459 62.096874 237.48647Q62.628124 236.90834 62.628124 235.97084Q62.628124 235.06459 62.1125 234.54897Q61.6125 234.01772 60.784374 234.01772Q60.284374 234.01772 59.8625 234.25209Q59.45625 234.48647 59.221874 234.84584L58.2375 234.72084L59.065624 230.31459L63.346874 230.31459L63.346874 231.31459L59.909374 231.31459L59.45625 233.62709Q60.221874 233.08022 61.065624 233.08022Q62.190624 233.08022 62.95625 233.86147Q63.7375 234.64272 63.7375 235.87709Q63.7375 237.03334 63.065624 237.89272Q62.2375 238.92397 60.815624 238.92397Q59.64375 238.92397 58.89375 238.26772Q58.159374 237.61147 58.05 236.53334ZM65.05 234.54897Q65.05 233.01772 65.3625 232.09584Q65.675 231.15834 66.28438 230.65834Q66.90938 230.15834 67.84688 230.15834Q68.53438 230.15834 69.05 230.43959Q69.58125 230.72084 69.925 231.25209Q70.26875 231.76772 70.45625 232.51772Q70.64375 233.26772 70.64375 234.54897Q70.64375 236.06459 70.33125 236.98647Q70.03438 237.90834 69.40938 238.42397Q68.8 238.92397 67.84688 238.92397Q66.6125 238.92397 65.89375 238.03334Q65.05 236.97084 65.05 234.54897ZM66.12813 234.54897Q66.12813 236.65834 66.62813 237.36147Q67.12813 238.06459 67.84688 238.06459Q68.58125 238.06459 69.06563 237.36147Q69.56563 236.65834 69.56563 234.54897Q69.56563 232.42397 69.06563 231.73647Q68.58125 231.03334 67.83125 231.03334Q67.1125 231.03334 66.675 231.64272Q66.12813 232.42397 66.12813 234.54897Z" fill-rule="nonzero"/><path fill="#000000" d="M58.1125 182.48125L58.1125 181.46562L63.675 181.46562L63.675 182.29375Q62.8625 183.16875 62.05 184.62187Q61.253124 186.05937 60.815624 187.59062Q60.4875 188.66875 60.409374 189.95L59.315624 189.95Q59.33125 188.93437 59.70625 187.49687Q60.096874 186.05937 60.8 184.73125Q61.51875 183.40312 62.33125 182.48125L58.1125 182.48125ZM65.05 187.7L66.15938 187.60625Q66.28438 188.41875 66.72188 188.825Q67.175 189.23125 67.81563 189.23125Q68.56563 189.23125 69.09688 188.65312Q69.62813 188.075 69.62813 187.1375Q69.62813 186.23125 69.1125 185.71562Q68.6125 185.18437 67.78438 185.18437Q67.28438 185.18437 66.8625 185.41875Q66.45625 185.65312 66.22188 186.0125L65.2375 185.8875L66.06563 181.48125L70.34688 181.48125L70.34688 182.48125L66.90938 182.48125L66.45625 184.79375Q67.22188 184.24687 68.06563 184.24687Q69.19063 184.24687 69.95625 185.02812Q70.7375 185.80937 70.7375 187.04375Q70.7375 188.2 70.06563 189.05937Q69.2375 190.09062 67.81563 190.09062Q66.64375 190.09062 65.89375 189.43437Q65.15938 188.77812 65.05 187.7Z" fill-rule="nonzero"/><path fill="#000000" d="M55.01875 141.11667L53.971874 141.11667L53.971874 134.39792Q53.58125 134.7573 52.95625 135.1323Q52.346874 135.49167 51.8625 135.66354L51.8625 134.64792Q52.7375 134.22604 53.39375 133.64792Q54.065624 133.05417 54.346874 132.49167L55.01875 132.49167L55.01875 141.11667ZM58.05 136.8823Q58.05 135.35104 58.3625 134.42917Q58.675 133.49167 59.284374 132.99167Q59.909374 132.49167 60.846874 132.49167Q61.534374 132.49167 62.05 132.77292Q62.58125 133.05417 62.925 133.58542Q63.26875 134.10104 63.45625 134.85104Q63.64375 135.60104 63.64375 136.8823Q63.64375 138.39792 63.33125 139.3198Q63.034374 140.24167 62.409374 140.7573Q61.8 141.2573 60.846874 141.2573Q59.6125 141.2573 58.89375 140.36667Q58.05 139.30417 58.05 136.8823ZM59.128124 136.8823Q59.128124 138.99167 59.628124 139.6948Q60.128124 140.39792 60.846874 140.39792Q61.58125 140.39792 62.065624 139.6948Q62.565624 138.99167 62.565624 136.8823Q62.565624 134.7573 62.065624 134.0698Q61.58125 133.36667 60.83125 133.36667Q60.1125 133.36667 59.675 133.97604Q59.128124 134.7573 59.128124 136.8823ZM65.05 136.8823Q65.05 135.35104 65.3625 134.42917Q65.675 133.49167 66.28438 132.99167Q66.90938 132.49167 67.84688 132.49167Q68.53438 132.49167 69.05 132.77292Q69.58125 133.05417 69.925 133.58542Q70.26875 134.10104 70.45625 134.85104Q70.64375 135.60104 70.64375 136.8823Q70.64375 138.39792 70.33125 139.3198Q70.03438 140.24167 69.40938 140.7573Q68.8 141.2573 67.84688 141.2573Q66.6125 141.2573 65.89375 140.36667Q65.05 139.30417 65.05 136.8823ZM66.12813 136.8823Q66.12813 138.99167 66.62813 139.6948Q67.12813 140.39792 67.84688 140.39792Q68.58125 140.39792 69.06563 139.6948Q69.56563 138.99167 69.56563 136.8823Q69.56563 134.7573 69.06563 134.0698Q68.58125 133.36667 67.83125 133.36667Q67.1125 133.36667 66.675 133.97604Q66.12813 134.7573 66.12813 136.8823Z" fill-rule="nonzero"/><path fill="#000000" d="M55.01875 92.28333L53.971874 92.28333L53.971874 85.56458Q53.58125 85.92396 52.95625 86.29896Q52.346874 86.65833 51.8625 86.83021L51.8625 85.81458Q52.7375 85.39271 53.39375 84.81458Q54.065624 84.22083 54.346874 83.65833L55.01875 83.65833L55.01875 92.28333ZM63.596874 91.26771L63.596874 92.28333L57.909374 92.28333Q57.909374 91.90833 58.034374 91.54896Q58.253124 90.97083 58.721874 90.40833Q59.20625 89.84583 60.1125 89.11146Q61.51875 87.95521 62.003124 87.28333Q62.503124 86.61146 62.503124 86.01771Q62.503124 85.39271 62.05 84.97083Q61.596874 84.53333 60.878124 84.53333Q60.1125 84.53333 59.659374 84.98646Q59.20625 85.43958 59.190624 86.25208L58.1125 86.14271Q58.221874 84.92396 58.940624 84.29896Q59.675 83.65833 60.909374 83.65833Q62.14375 83.65833 62.8625 84.34583Q63.58125 85.03333 63.58125 86.04896Q63.58125 86.56458 63.3625 87.06458Q63.159374 87.54896 62.659374 88.11146Q62.175 88.65833 61.05 89.61146Q60.096874 90.40833 59.815624 90.70521Q59.55 90.98646 59.378124 91.26771L63.596874 91.26771ZM65.05 90.03333L66.15938 89.93958Q66.28438 90.75208 66.72188 91.15833Q67.175 91.56458 67.81563 91.56458Q68.56563 91.56458 69.09688 90.98646Q69.62813 90.40833 69.62813 89.47083Q69.62813 88.56458 69.1125 88.04896Q68.6125 87.51771 67.78438 87.51771Q67.28438 87.51771 66.8625 87.75208Q66.45625 87.98646 66.22188 88.34583L65.2375 88.22083L66.06563 83.81458L70.34688 83.81458L70.34688 84.81458L66.90938 84.81458L66.45625 87.12708Q67.22188 86.58021 68.06563 86.58021Q69.19063 86.58021 69.95625 87.36146Q70.7375 88.14271 70.7375 89.37708Q70.7375 90.53333 70.06563 91.39271Q69.2375 92.42396 67.81563 92.42396Q66.64375 92.42396 65.89375 91.76771Q65.15938 91.11146 65.05 90.03333Z" fill-rule="nonzero"/><path fill="#000000" d="M215.84973 346.4344L216.97473 346.73126Q216.61536 348.1219 215.69348 348.85626Q214.7716 349.59064 213.42786 349.59064Q212.03723 349.59064 211.16223 349.02814Q210.28723 348.46564 209.8341 347.40314Q209.38098 346.325 209.38098 345.09064Q209.38098 343.7469 209.8966 342.7469Q210.41223 341.7469 211.34973 341.23126Q212.30286 340.71564 213.44348 340.71564Q214.72473 340.71564 215.59973 341.3719Q216.49036 342.02814 216.8341 343.21564L215.7091 343.48126Q215.41223 342.54376 214.8341 342.1219Q214.2716 341.6844 213.41223 341.6844Q212.42786 341.6844 211.75598 342.16876Q211.09973 342.6375 210.81848 343.4344Q210.55286 344.23126 210.55286 345.09064Q210.55286 346.1844 210.86536 346.9969Q211.19348 347.8094 211.86536 348.21564Q212.53723 348.6219 213.3341 348.6219Q214.28723 348.6219 214.94348 348.075Q215.61536 347.52814 215.84973 346.4344ZM218.7091 349.45L218.7091 340.85626L221.67786 340.85626Q222.67786 340.85626 223.2091 340.98126Q223.94348 341.15314 224.4591 341.59064Q225.1466 342.16876 225.47473 343.075Q225.81848 343.96564 225.81848 345.10626Q225.81848 346.09064 225.5841 346.84064Q225.36536 347.59064 225.00598 348.09064Q224.6466 348.59064 224.2091 348.8719Q223.78723 349.15314 223.19348 349.3094Q222.59973 349.45 221.81848 349.45L218.7091 349.45ZM219.84973 348.4344L221.67786 348.4344Q222.53723 348.4344 223.0216 348.27814Q223.50598 348.1219 223.78723 347.825Q224.19348 347.4344 224.41223 346.7469Q224.6466 346.0594 224.6466 345.09064Q224.6466 343.7469 224.19348 343.02814Q223.75598 342.29376 223.13098 342.04376Q222.66223 341.8719 221.66223 341.8719L219.84973 341.8719L219.84973 348.4344ZM233.84973 346.4344L234.97473 346.73126Q234.61536 348.1219 233.69348 348.85626Q232.7716 349.59064 231.42786 349.59064Q230.03723 349.59064 229.16223 349.02814Q228.28723 348.46564 227.8341 347.40314Q227.38098 346.325 227.38098 345.09064Q227.38098 343.7469 227.8966 342.7469Q228.41223 341.7469 229.34973 341.23126Q230.30286 340.71564 231.44348 340.71564Q232.72473 340.71564 233.59973 341.3719Q234.49036 342.02814 234.8341 343.21564L233.7091 343.48126Q233.41223 342.54376 232.8341 342.1219Q232.2716 341.6844 231.41223 341.6844Q230.42786 341.6844 229.75598 342.16876Q229.09973 342.6375 228.81848 343.4344Q228.55286 344.23126 228.55286 345.09064Q228.55286 346.1844 228.86536 346.9969Q229.19348 347.8094 229.86536 348.21564Q230.53723 348.6219 231.3341 348.6219Q232.28723 348.6219 232.94348 348.075Q233.61536 347.52814 233.84973 346.4344Z" fill-rule="nonzero"/><path fill="#000000" d="M410.75964 346.6844L411.82214 346.59064Q411.90027 347.2469 412.18152 347.65314Q412.46277 348.0594 413.0409 348.325Q413.63464 348.575 414.36902 348.575Q415.00964 348.575 415.50964 348.3875Q416.00964 348.1844 416.24402 347.85626Q416.49402 347.5125 416.49402 347.1219Q416.49402 346.71564 416.25964 346.41876Q416.02527 346.10626 415.49402 345.90314Q415.13464 345.7625 413.94714 345.48126Q412.77527 345.2 412.30652 344.95Q411.68152 344.6219 411.38464 344.15314Q411.08777 343.66876 411.08777 343.075Q411.08777 342.4344 411.44714 341.8719Q411.82214 341.29376 412.52527 341.0125Q413.24402 340.71564 414.1034 340.71564Q415.05652 340.71564 415.7909 341.02814Q416.52527 341.325 416.9159 341.9344Q417.30652 342.52814 417.33777 343.27814L416.24402 343.35626Q416.15027 342.54376 415.63464 342.1375Q415.13464 341.71564 414.15027 341.71564Q413.11902 341.71564 412.65027 342.09064Q412.18152 342.46564 412.18152 342.9969Q412.18152 343.46564 412.50964 343.7625Q412.83777 344.0594 414.21277 344.3719Q415.6034 344.6844 416.11902 344.91876Q416.86902 345.27814 417.2284 345.8094Q417.58777 346.325 417.58777 347.02814Q417.58777 347.71564 417.19714 348.325Q416.80652 348.91876 416.07214 349.2625Q415.33777 349.59064 414.4159 349.59064Q413.24402 349.59064 412.44714 349.2625Q411.6659 348.91876 411.21277 348.23126Q410.77527 347.54376 410.75964 346.6844ZM419.00964 349.45L419.00964 343.23126L419.94714 343.23126L419.94714 344.10626Q420.63464 343.09064 421.93152 343.09064Q422.49402 343.09064 422.96277 343.29376Q423.44714 343.4969 423.68152 343.825Q423.9159 344.15314 424.00964 344.59064Q424.05652 344.8875 424.05652 345.6219L424.05652 349.45L423.00964 349.45L423.00964 345.66876Q423.00964 345.0125 422.88464 344.7Q422.75964 344.3875 422.44714 344.2Q422.13464 343.9969 421.71277 343.9969Q421.0409 343.9969 420.5409 344.4344Q420.05652 344.85626 420.05652 346.04376L420.05652 349.45L419.00964 349.45ZM430.07214 348.6844Q429.4784 349.1844 428.93152 349.3875Q428.40027 349.59064 427.77527 349.59064Q426.74402 349.59064 426.19714 349.09064Q425.65027 348.59064 425.65027 347.8094Q425.65027 347.35626 425.8534 346.98126Q426.05652 346.59064 426.40027 346.3719Q426.74402 346.1375 427.1659 346.02814Q427.46277 345.9344 428.1034 345.85626Q429.36902 345.71564 429.9784 345.4969Q429.9784 345.27814 429.9784 345.23126Q429.9784 344.575 429.68152 344.3094Q429.27527 343.96564 428.4784 343.96564Q427.74402 343.96564 427.38464 344.23126Q427.02527 344.48126 426.8534 345.1375L425.82214 344.9969Q425.96277 344.34064 426.2909 343.9344Q426.61902 343.52814 427.2284 343.3094Q427.83777 343.09064 428.63464 343.09064Q429.43152 343.09064 429.93152 343.27814Q430.43152 343.46564 430.6659 343.7469Q430.90027 344.02814 430.99402 344.46564Q431.0409 344.73126 431.0409 345.4344L431.0409 346.84064Q431.0409 348.3094 431.1034 348.7Q431.18152 349.09064 431.38464 349.45L430.27527 349.45Q430.11902 349.1219 430.07214 348.6844ZM429.9784 346.325Q429.40027 346.5594 428.25964 346.73126Q427.6034 346.825 427.33777 346.95Q427.07214 347.0594 426.9159 347.27814Q426.77527 347.4969 426.77527 347.77814Q426.77527 348.2 427.08777 348.48126Q427.4159 348.7625 428.02527 348.7625Q428.63464 348.7625 429.1034 348.4969Q429.58777 348.23126 429.80652 347.7625Q429.9784 347.40314 429.9784 346.71564L429.9784 346.325ZM433.00964 351.84064L433.00964 343.23126L433.96277 343.23126L433.96277 344.02814Q434.30652 343.5594 434.7284 343.325Q435.1659 343.09064 435.77527 343.09064Q436.57214 343.09064 437.18152 343.4969Q437.7909 343.90314 438.08777 344.65314Q438.40027 345.40314 438.40027 346.29376Q438.40027 347.2469 438.05652 348.0125Q437.7284 348.77814 437.07214 349.1844Q436.4159 349.59064 435.69714 349.59064Q435.1659 349.59064 434.74402 349.3719Q434.32214 349.1375 434.05652 348.8094L434.05652 351.84064L433.00964 351.84064ZM433.96277 346.3719Q433.96277 347.575 434.44714 348.15314Q434.93152 348.71564 435.61902 348.71564Q436.32214 348.71564 436.82214 348.1219Q437.32214 347.52814 437.32214 346.27814Q437.32214 345.09064 436.83777 344.5125Q436.3534 343.91876 435.6659 343.91876Q434.99402 343.91876 434.4784 344.54376Q433.96277 345.16876 433.96277 346.3719ZM439.58777 347.59064L440.61902 347.4344Q440.71277 348.0594 441.1034 348.3875Q441.50964 348.71564 442.24402 348.71564Q442.96277 348.71564 443.30652 348.4344Q443.6659 348.1375 443.6659 347.73126Q443.6659 347.3719 443.3534 347.16876Q443.13464 347.02814 442.27527 346.8094Q441.11902 346.5125 440.6659 346.3094Q440.2284 346.09064 439.99402 345.71564Q439.75964 345.34064 439.75964 344.8719Q439.75964 344.46564 439.94714 344.10626Q440.13464 343.7469 440.46277 343.5125Q440.71277 343.34064 441.13464 343.21564Q441.55652 343.09064 442.05652 343.09064Q442.77527 343.09064 443.32214 343.3094Q443.88464 343.5125 444.15027 343.8719Q444.4159 344.23126 444.50964 344.825L443.4784 344.96564Q443.4159 344.4969 443.07214 344.23126Q442.74402 343.95 442.11902 343.95Q441.40027 343.95 441.08777 344.2Q440.77527 344.4344 440.77527 344.7625Q440.77527 344.96564 440.90027 345.1219Q441.0409 345.29376 441.30652 345.40314Q441.46277 345.46564 442.24402 345.66876Q443.36902 345.98126 443.80652 346.16876Q444.24402 346.35626 444.49402 346.71564Q444.74402 347.075 444.74402 347.6219Q444.74402 348.15314 444.43152 348.6219Q444.13464 349.075 443.55652 349.34064Q442.9784 349.59064 442.24402 349.59064Q441.02527 349.59064 440.38464 349.09064Q439.75964 348.575 439.58777 347.59064ZM447.00964 349.45L447.00964 340.85626L448.05652 340.85626L448.05652 343.9344Q448.7909 343.09064 449.9159 343.09064Q450.61902 343.09064 451.11902 343.3719Q451.63464 343.6375 451.8534 344.1219Q452.07214 344.59064 452.07214 345.5125L452.07214 349.45L451.02527 349.45L451.02527 345.5125Q451.02527 344.71564 450.68152 344.35626Q450.33777 343.9969 449.71277 343.9969Q449.24402 343.9969 448.82214 344.2469Q448.4159 344.48126 448.2284 344.90314Q448.05652 345.3094 448.05652 346.04376L448.05652 349.45L447.00964 349.45ZM453.61902 346.34064Q453.61902 344.60626 454.57214 343.77814Q455.36902 343.09064 456.52527 343.09064Q457.80652 343.09064 458.61902 343.9344Q459.44714 344.7625 459.44714 346.2469Q459.44714 347.45 459.08777 348.1375Q458.7284 348.825 458.02527 349.21564Q457.33777 349.59064 456.52527 349.59064Q455.2284 349.59064 454.4159 348.7625Q453.61902 347.91876 453.61902 346.34064ZM454.69714 346.34064Q454.69714 347.52814 455.21277 348.1219Q455.74402 348.71564 456.52527 348.71564Q457.32214 348.71564 457.83777 348.1219Q458.3534 347.52814 458.3534 346.3094Q458.3534 345.15314 457.82214 344.5594Q457.30652 343.96564 456.52527 343.96564Q455.74402 343.96564 455.21277 344.5594Q454.69714 345.1375 454.69714 346.34064ZM463.30652 348.5125L463.46277 349.4344Q463.00964 349.52814 462.6659 349.52814Q462.08777 349.52814 461.77527 349.35626Q461.46277 349.16876 461.32214 348.8719Q461.19714 348.575 461.19714 347.6219L461.19714 344.04376L460.43152 344.04376L460.43152 343.23126L461.19714 343.23126L461.19714 341.6844L462.24402 341.0594L462.24402 343.23126L463.30652 343.23126L463.30652 344.04376L462.24402 344.04376L462.24402 347.6844Q462.24402 348.1375 462.2909 348.2625Q462.3534 348.3875 462.4784 348.46564Q462.6034 348.54376 462.83777 348.54376Q463.02527 348.54376 463.30652 348.5125Z" fill-rule="nonzero"/><path fill="#4285f4" d="M210.5 56.916668C210.5 56.364384 210.94771 55.916668 211.5 55.916668L221.5 55.916668C222.05229 55.916668 222.5 56.364384 222.5 56.916668L222.5 66.916664C222.5 67.46895 222.05229 67.916664 221.5 67.916664L211.5 67.916664C210.94771 67.916664 210.5 67.46895 210.5 66.916664Z" fill-rule="nonzero"/><path fill="#1a1a1a" d="M237.5625 62.90104L238.6875 63.197914Q238.32812 64.58854 237.40625 65.322914Q236.48438 66.05729 235.14062 66.05729Q233.75 66.05729 232.875 65.49479Q232.0 64.93229 231.54688 63.86979Q231.09375 62.791664 231.09375 61.55729Q231.09375 60.21354 231.60938 59.21354Q232.125 58.21354 233.0625 57.697914Q234.01562 57.18229 235.15625 57.18229Q236.4375 57.18229 237.3125 57.83854Q238.20312 58.49479 238.54688 59.68229L237.42188 59.947914Q237.125 59.010414 236.54688 58.58854Q235.98438 58.15104 235.125 58.15104Q234.14062 58.15104 233.46875 58.635414Q232.8125 59.104164 232.53125 59.90104Q232.26562 60.697914 232.26562 61.55729Q232.26562 62.65104 232.57812 63.46354Q232.90625 64.27604 233.57812 64.68229Q234.25 65.08854 235.04688 65.08854Q236.0 65.08854 236.65625 64.541664Q237.32812 63.99479 237.5625 62.90104ZM239.90625 62.80729Q239.90625 61.072914 240.85938 60.24479Q241.65625 59.55729 242.8125 59.55729Q244.09375 59.55729 244.90625 60.40104Q245.73438 61.229164 245.73438 62.71354Q245.73438 63.916664 245.375 64.604164Q245.01562 65.291664 244.3125 65.68229Q243.625 66.05729 242.8125 66.05729Q241.51562 66.05729 240.70312 65.229164Q239.90625 64.385414 239.90625 62.80729ZM240.98438 62.80729Q240.98438 63.99479 241.5 64.58854Q242.03125 65.18229 242.8125 65.18229Q243.60938 65.18229 244.125 64.58854Q244.64062 63.99479 244.64062 62.77604Q244.64062 61.61979 244.10938 61.02604Q243.59375 60.43229 242.8125 60.43229Q242.03125 60.43229 241.5 61.02604Q240.98438 61.604164 240.98438 62.80729ZM247.29688 65.916664L247.29688 59.697914L248.23438 59.697914L248.23438 60.572914Q248.92188 59.55729 250.21875 59.55729Q250.78125 59.55729 251.25 59.760414Q251.73438 59.96354 251.96875 60.291664Q252.20312 60.61979 252.29688 61.05729Q252.34375 61.354164 252.34375 62.08854L252.34375 65.916664L251.29688 65.916664L251.29688 62.135414Q251.29688 61.479164 251.17188 61.166664Q251.04688 60.854164 250.73438 60.666664Q250.42188 60.46354 250.0 60.46354Q249.32812 60.46354 248.82812 60.90104Q248.34375 61.322914 248.34375 62.510414L248.34375 65.916664L247.29688 65.916664ZM258.32812 65.916664L258.32812 65.135414Q257.73438 66.05729 256.59375 66.05729Q255.84375 66.05729 255.21875 65.65104Q254.59375 65.229164 254.25 64.49479Q253.90625 63.760414 253.90625 62.80729Q253.90625 61.885414 254.21875 61.11979Q254.53125 60.354164 255.15625 59.96354Q255.78125 59.55729 256.54688 59.55729Q257.10938 59.55729 257.54688 59.791664Q257.98438 60.02604 258.26562 60.40104L258.26562 57.322914L259.3125 57.322914L259.3125 65.916664L258.32812 65.916664ZM255.0 62.80729Q255.0 64.010414 255.5 64.604164Q256.0 65.18229 256.6875 65.18229Q257.375 65.18229 257.85938 64.61979Q258.34375 64.05729 258.34375 62.90104Q258.34375 61.61979 257.84375 61.02604Q257.35938 60.43229 256.64062 60.43229Q255.9375 60.43229 255.46875 61.010414Q255.0 61.572914 255.0 62.80729ZM265.375 65.916664L265.375 64.99479Q264.64062 66.05729 263.39062 66.05729Q262.84375 66.05729 262.35938 65.854164Q261.89062 65.635414 261.65625 65.322914Q261.42188 64.99479 261.32812 64.52604Q261.26562 64.229164 261.26562 63.541664L261.26562 59.697914L262.32812 59.697914L262.32812 63.15104Q262.32812 63.96354 262.39062 64.260414Q262.48438 64.666664 262.79688 64.916664Q263.125 65.15104 263.60938 65.15104Q264.07812 65.15104 264.48438 64.916664Q264.90625 64.666664 265.07812 64.24479Q265.26562 63.822914 265.26562 63.02604L265.26562 59.697914L266.3125 59.697914L266.3125 65.916664L265.375 65.916664ZM268.29688 58.541664L268.29688 57.322914L269.35938 57.322914L269.35938 58.541664L268.29688 58.541664ZM268.29688 65.916664L268.29688 59.697914L269.35938 59.697914L269.35938 65.916664L268.29688 65.916664ZM273.59375 64.979164L273.75 65.90104Q273.29688 65.99479 272.95312 65.99479Q272.375 65.99479 272.0625 65.822914Q271.75 65.635414 271.60938 65.33854Q271.48438 65.041664 271.48438 64.08854L271.48438 60.510414L270.71875 60.510414L270.71875 59.697914L271.48438 59.697914L271.48438 58.15104L272.53125 57.52604L272.53125 59.697914L273.59375 59.697914L273.59375 60.510414L272.53125 60.510414L272.53125 64.15104Q272.53125 64.604164 272.57812 64.729164Q272.64062 64.854164 272.76562 64.93229Q272.89062 65.010414 273.125 65.010414Q273.3125 65.010414 273.59375 64.979164Z" fill-rule="nonzero"/><path fill="#ea4335" d="M289.5 56.916668C289.5 56.364384 289.94772 55.916668 290.5 55.916668L300.5 55.916668C301.05228 55.916668 301.5 56.364384 301.5 56.916668L301.5 66.916664C301.5 67.46895 301.05228 67.916664 300.5 67.916664L290.5 67.916664C289.94772 67.916664 289.5 67.46895 289.5 66.916664Z" fill-rule="nonzero"/><path fill="#1a1a1a" d="M310.375 65.916664L310.375 57.322914L311.51562 57.322914L311.51562 61.58854L315.78125 57.322914L317.32812 57.322914L313.71875 60.80729L317.48438 65.916664L315.98438 65.916664L312.92188 61.572914L311.51562 62.93229L311.51562 65.916664L310.375 65.916664ZM322.35938 65.15104Q321.76562 65.65104 321.21875 65.854164Q320.6875 66.05729 320.0625 66.05729Q319.03125 66.05729 318.48438 65.55729Q317.9375 65.05729 317.9375 64.27604Q317.9375 63.822914 318.14062 63.447914Q318.34375 63.05729 318.6875 62.83854Q319.03125 62.604164 319.45312 62.49479Q319.75 62.40104 320.39062 62.322914Q321.65625 62.18229 322.26562 61.96354Q322.26562 61.74479 322.26562 61.697914Q322.26562 61.041664 321.96875 60.77604Q321.5625 60.43229 320.76562 60.43229Q320.03125 60.43229 319.67188 60.697914Q319.3125 60.947914 319.14062 61.604164L318.10938 61.46354Q318.25 60.80729 318.57812 60.40104Q318.90625 59.99479 319.51562 59.77604Q320.125 59.55729 320.92188 59.55729Q321.71875 59.55729 322.21875 59.74479Q322.71875 59.93229 322.95312 60.21354Q323.1875 60.49479 323.28125 60.93229Q323.32812 61.197914 323.32812 61.90104L323.32812 63.30729Q323.32812 64.77604 323.39062 65.166664Q323.46875 65.55729 323.67188 65.916664L322.5625 65.916664Q322.40625 65.58854 322.35938 65.15104ZM322.26562 62.791664Q321.6875 63.02604 320.54688 63.197914Q319.89062 63.291664 319.625 63.416664Q319.35938 63.52604 319.20312 63.74479Q319.0625 63.96354 319.0625 64.24479Q319.0625 64.666664 319.375 64.947914Q319.70312 65.229164 320.3125 65.229164Q320.92188 65.229164 321.39062 64.96354Q321.875 64.697914 322.09375 64.229164Q322.26562 63.86979 322.26562 63.18229L322.26562 62.791664ZM325.54688 65.916664L325.54688 60.510414L324.60938 60.510414L324.60938 59.697914L325.54688 59.697914L325.54688 59.02604Q325.54688 58.40104 325.65625 58.104164Q325.8125 57.68229 326.1875 57.43229Q326.57812 57.18229 327.26562 57.18229Q327.71875 57.18229 328.25 57.291664L328.09375 58.197914Q327.76562 58.15104 327.46875 58.15104Q326.98438 58.15104 326.78125 58.354164Q326.59375 58.55729 326.59375 59.11979L326.59375 59.697914L327.8125 59.697914L327.8125 60.510414L326.59375 60.510414L326.59375 65.916664L325.54688 65.916664ZM328.29688 65.916664L328.29688 57.322914L329.35938 57.322914L329.35938 62.229164L331.84375 59.697914L333.21875 59.697914L330.82812 61.99479L333.45312 65.916664L332.15625 65.916664L330.09375 62.729164L329.35938 63.447914L329.35938 65.916664L328.29688 65.916664ZM338.35938 65.15104Q337.76562 65.65104 337.21875 65.854164Q336.6875 66.05729 336.0625 66.05729Q335.03125 66.05729 334.48438 65.55729Q333.9375 65.05729 333.9375 64.27604Q333.9375 63.822914 334.14062 63.447914Q334.34375 63.05729 334.6875 62.83854Q335.03125 62.604164 335.45312 62.49479Q335.75 62.40104 336.39062 62.322914Q337.65625 62.18229 338.26562 61.96354Q338.26562 61.74479 338.26562 61.697914Q338.26562 61.041664 337.96875 60.77604Q337.5625 60.43229 336.76562 60.43229Q336.03125 60.43229 335.67188 60.697914Q335.3125 60.947914 335.14062 61.604164L334.10938 61.46354Q334.25 60.80729 334.57812 60.40104Q334.90625 59.99479 335.51562 59.77604Q336.125 59.55729 336.92188 59.55729Q337.71875 59.55729 338.21875 59.74479Q338.71875 59.93229 338.95312 60.21354Q339.1875 60.49479 339.28125 60.93229Q339.32812 61.197914 339.32812 61.90104L339.32812 63.30729Q339.32812 64.77604 339.39062 65.166664Q339.46875 65.55729 339.67188 65.916664L338.5625 65.916664Q338.40625 65.58854 338.35938 65.15104ZM338.26562 62.791664Q337.6875 63.02604 336.54688 63.197914Q335.89062 63.291664 335.625 63.416664Q335.35938 63.52604 335.20312 63.74479Q335.0625 63.96354 335.0625 64.24479Q335.0625 64.666664 335.375 64.947914Q335.70312 65.229164 336.3125 65.229164Q336.92188 65.229164 337.39062 64.96354Q337.875 64.697914 338.09375 64.229164Q338.26562 63.86979 338.26562 63.18229L338.26562 62.791664ZM350.5625 62.90104L351.6875 63.197914Q351.32812 64.58854 350.40625 65.322914Q349.48438 66.05729 348.14062 66.05729Q346.75 66.05729 345.875 65.49479Q345.0 64.93229 344.54688 63.86979Q344.09375 62.791664 344.09375 61.55729Q344.09375 60.21354 344.60938 59.21354Q345.125 58.21354 346.0625 57.697914Q347.01562 57.18229 348.15625 57.18229Q349.4375 57.18229 350.3125 57.83854Q351.20312 58.49479 351.54688 59.68229L350.42188 59.947914Q350.125 59.010414 349.54688 58.58854Q348.98438 58.15104 348.125 58.15104Q347.14062 58.15104 346.46875 58.635414Q345.8125 59.104164 345.53125 59.90104Q345.26562 60.697914 345.26562 61.55729Q345.26562 62.65104 345.57812 63.46354Q345.90625 64.27604 346.57812 64.68229Q347.25 65.08854 348.04688 65.08854Q349.0 65.08854 349.65625 64.541664Q350.32812 63.99479 350.5625 62.90104ZM352.90625 62.80729Q352.90625 61.072914 353.85938 60.24479Q354.65625 59.55729 355.8125 59.55729Q357.09375 59.55729 357.90625 60.40104Q358.73438 61.229164 358.73438 62.71354Q358.73438 63.916664 358.375 64.604164Q358.01562 65.291664 357.3125 65.68229Q356.625 66.05729 355.8125 66.05729Q354.51562 66.05729 353.70312 65.229164Q352.90625 64.385414 352.90625 62.80729ZM353.98438 62.80729Q353.98438 63.99479 354.5 64.58854Q355.03125 65.18229 355.8125 65.18229Q356.60938 65.18229 357.125 64.58854Q357.64062 63.99479 357.64062 62.77604Q357.64062 61.61979 357.10938 61.02604Q356.59375 60.43229 355.8125 60.43229Q355.03125 60.43229 354.5 61.02604Q353.98438 61.604164 353.98438 62.80729ZM360.29688 65.916664L360.29688 59.697914L361.23438 59.697914L361.23438 60.572914Q361.92188 59.55729 363.21875 59.55729Q363.78125 59.55729 364.25 59.760414Q364.73438 59.96354 364.96875 60.291664Q365.20312 60.61979 365.29688 61.05729Q365.34375 61.354164 365.34375 62.08854L365.34375 65.916664L364.29688 65.916664L364.29688 62.135414Q364.29688 61.479164 364.17188 61.166664Q364.04688 60.854164 363.73438 60.666664Q363.42188 60.46354 363.0 60.46354Q362.32812 60.46354 361.82812 60.90104Q361.34375 61.322914 361.34375 62.510414L361.34375 65.916664L360.29688 65.916664ZM367.29688 65.916664L367.29688 59.697914L368.23438 59.697914L368.23438 60.572914Q368.92188 59.55729 370.21875 59.55729Q370.78125 59.55729 371.25 59.760414Q371.73438 59.96354 371.96875 60.291664Q372.20312 60.61979 372.29688 61.05729Q372.34375 61.354164 372.34375 62.08854L372.34375 65.916664L371.29688 65.916664L371.29688 62.135414Q371.29688 61.479164 371.17188 61.166664Q371.04688 60.854164 370.73438 60.666664Q370.42188 60.46354 370.0 60.46354Q369.32812 60.46354 368.82812 60.90104Q368.34375 61.322914 368.34375 62.510414L368.34375 65.916664L367.29688 65.916664ZM378.54688 63.916664L379.64062 64.041664Q379.39062 64.99479 378.6875 65.52604Q377.98438 66.05729 376.90625 66.05729Q375.54688 66.05729 374.73438 65.21354Q373.9375 64.36979 373.9375 62.854164Q373.9375 61.291664 374.75 60.43229Q375.5625 59.55729 376.84375 59.55729Q378.09375 59.55729 378.875 60.40104Q379.67188 61.24479 379.67188 62.791664Q379.67188 62.885414 379.67188 63.072914L375.03125 63.072914Q375.09375 64.104164 375.60938 64.65104Q376.125 65.18229 376.90625 65.18229Q377.48438 65.18229 377.89062 64.885414Q378.3125 64.572914 378.54688 63.916664ZM375.09375 62.21354L378.5625 62.21354Q378.5 61.416664 378.17188 61.02604Q377.65625 60.416664 376.85938 60.416664Q376.125 60.416664 375.625 60.90104Q375.14062 61.385414 375.09375 62.21354ZM385.35938 63.635414L386.39062 63.77604Q386.21875 64.83854 385.51562 65.447914Q384.8125 66.05729 383.79688 66.05729Q382.51562 66.05729 381.73438 65.229164Q380.96875 64.385414 380.96875 62.822914Q380.96875 61.822914 381.29688 61.072914Q381.64062 60.30729 382.3125 59.93229Q383.0 59.55729 383.8125 59.55729Q384.8125 59.55729 385.45312 60.072914Q386.10938 60.572914 386.29688 61.52604L385.26562 61.68229Q385.125 61.05729 384.75 60.74479Q384.375 60.416664 383.84375 60.416664Q383.04688 60.416664 382.54688 60.99479Q382.04688 61.55729 382.04688 62.791664Q382.04688 64.05729 382.53125 64.61979Q383.01562 65.18229 383.78125 65.18229Q384.40625 65.18229 384.8125 64.80729Q385.23438 64.43229 385.35938 63.635414ZM389.59375 64.979164L389.75 65.90104Q389.29688 65.99479 388.95312 65.99479Q388.375 65.99479 388.0625 65.822914Q387.75 65.635414 387.60938 65.33854Q387.48438 65.041664 387.48438 64.08854L387.48438 60.510414L386.71875 60.510414L386.71875 59.697914L387.48438 59.697914L387.48438 58.15104L388.53125 57.52604L388.53125 59.697914L389.59375 59.697914L389.59375 60.510414L388.53125 60.510414L388.53125 64.15104Q388.53125 64.604164 388.57812 64.729164Q388.64062 64.854164 388.76562 64.93229Q388.89062 65.010414 389.125 65.010414Q389.3125 65.010414 389.59375 64.979164Z" fill-rule="nonzero"/><path fill="#757575" d="M262.26562 32.534374L264.15625 33.003124Q263.5625 35.346874 262.01562 36.58125Q260.46875 37.8 258.21875 37.8Q255.90625 37.8 254.45312 36.8625Q253.01562 35.909374 252.25 34.128124Q251.5 32.33125 251.5 30.284374Q251.5 28.05 252.34375 26.39375Q253.20312 24.721874 254.78125 23.8625Q256.35938 22.9875 258.25 22.9875Q260.40625 22.9875 261.85938 24.08125Q263.32812 25.175 263.90625 27.159374L262.04688 27.596874Q261.54688 26.034374 260.59375 25.33125Q259.65625 24.6125 258.21875 24.6125Q256.5625 24.6125 255.45312 25.409374Q254.34375 26.190624 253.89062 27.534374Q253.45312 28.8625 253.45312 30.26875Q253.45312 32.096874 253.98438 33.471874Q254.51562 34.83125 255.64062 35.503124Q256.76562 36.175 258.0625 36.175Q259.65625 36.175 260.76562 35.253124Q261.875 34.33125 262.26562 32.534374ZM266.04688 37.55L266.04688 23.2375L271.4375 23.2375Q272.875 23.2375 273.625 23.3625Q274.67188 23.55 275.39062 24.05Q276.10938 24.534374 276.53125 25.425Q276.96875 26.315624 276.96875 27.378124Q276.96875 29.20625 275.79688 30.471874Q274.64062 31.721874 271.60938 31.721874L267.9375 31.721874L267.9375 37.55L266.04688 37.55ZM267.9375 30.034374L271.64062 30.034374Q273.46875 30.034374 274.23438 29.3625Q275.01562 28.675 275.01562 27.425Q275.01562 26.534374 274.5625 25.89375Q274.10938 25.253124 273.375 25.05Q272.89062 24.925 271.59375 24.925L267.9375 24.925L267.9375 30.034374ZM288.4375 23.2375L290.32812 23.2375L290.32812 31.503124Q290.32812 33.659374 289.84375 34.940624Q289.35938 36.20625 288.07812 37.003124Q286.8125 37.8 284.73438 37.8Q282.71875 37.8 281.4375 37.1125Q280.17188 36.409374 279.625 35.096874Q279.07812 33.784374 279.07812 31.503124L279.07812 23.2375L280.96875 23.2375L280.96875 31.4875Q280.96875 33.3625 281.3125 34.253124Q281.65625 35.128124 282.5 35.6125Q283.34375 36.08125 284.57812 36.08125Q286.65625 36.08125 287.54688 35.14375Q288.4375 34.190624 288.4375 31.4875L288.4375 23.2375ZM304.60938 37.55L304.60938 36.01875Q303.40625 37.784374 301.32812 37.784374Q300.40625 37.784374 299.60938 37.440624Q298.8125 37.08125 298.42188 36.55Q298.04688 36.01875 297.89062 35.2375Q297.78125 34.721874 297.78125 33.596874L297.78125 27.175L299.53125 27.175L299.53125 32.925Q299.53125 34.3 299.64062 34.784374Q299.8125 35.471874 300.34375 35.878124Q300.89062 36.26875 301.67188 36.26875Q302.46875 36.26875 303.15625 35.8625Q303.85938 35.45625 304.14062 34.76875Q304.4375 34.065624 304.4375 32.7375L304.4375 27.175L306.1875 27.175L306.1875 37.55L304.60938 37.55ZM307.10938 34.45625L308.85938 34.175Q309.0 35.221874 309.67188 35.784374Q310.34375 36.33125 311.54688 36.33125Q312.75 36.33125 313.32812 35.846874Q313.92188 35.346874 313.92188 34.690624Q313.92188 34.096874 313.40625 33.753124Q313.04688 33.51875 311.60938 33.159374Q309.67188 32.659374 308.92188 32.315624Q308.1875 31.95625 307.79688 31.33125Q307.40625 30.690624 307.40625 29.925Q307.40625 29.2375 307.71875 28.64375Q308.04688 28.05 308.59375 27.659374Q309.0 27.3625 309.70312 27.159374Q310.42188 26.940624 311.23438 26.940624Q312.45312 26.940624 313.375 27.3Q314.29688 27.64375 314.73438 28.253124Q315.17188 28.846874 315.34375 29.846874L313.625 30.08125Q313.5 29.284374 312.9375 28.846874Q312.375 28.39375 311.35938 28.39375Q310.14062 28.39375 309.625 28.8Q309.10938 29.190624 309.10938 29.721874Q309.10938 30.065624 309.32812 30.346874Q309.53125 30.628124 310.0 30.815624Q310.26562 30.909374 311.54688 31.253124Q313.42188 31.753124 314.15625 32.08125Q314.89062 32.39375 315.3125 33.003124Q315.73438 33.596874 315.73438 34.503124Q315.73438 35.378124 315.21875 36.159374Q314.70312 36.940624 313.73438 37.3625Q312.76562 37.784374 311.54688 37.784374Q309.53125 37.784374 308.46875 36.940624Q307.40625 36.096874 307.10938 34.45625ZM324.59375 36.26875Q323.60938 37.096874 322.70312 37.440624Q321.79688 37.784374 320.76562 37.784374Q319.0625 37.784374 318.14062 36.95625Q317.21875 36.1125 317.21875 34.815624Q317.21875 34.05 317.5625 33.425Q317.92188 32.8 318.48438 32.425Q319.04688 32.034374 319.75 31.83125Q320.26562 31.70625 321.3125 31.565624Q323.4375 31.315624 324.4375 30.971874Q324.45312 30.6125 324.45312 30.503124Q324.45312 29.440624 323.95312 28.9875Q323.28125 28.39375 321.95312 28.39375Q320.70312 28.39375 320.10938 28.83125Q319.53125 29.26875 319.25 30.378124L317.53125 30.14375Q317.76562 29.034374 318.29688 28.3625Q318.82812 27.675 319.84375 27.315624Q320.85938 26.940624 322.20312 26.940624Q323.53125 26.940624 324.35938 27.253124Q325.1875 27.565624 325.57812 28.05Q325.96875 28.51875 326.125 29.2375Q326.21875 29.690624 326.21875 30.8625L326.21875 33.20625Q326.21875 35.659374 326.32812 36.315624Q326.4375 36.95625 326.78125 37.55L324.9375 37.55Q324.67188 37.003124 324.59375 36.26875ZM324.4375 32.346874Q323.48438 32.7375 321.5625 33.003124Q320.48438 33.159374 320.03125 33.3625Q319.59375 33.55 319.34375 33.925Q319.09375 34.3 319.09375 34.76875Q319.09375 35.471874 319.625 35.940624Q320.15625 36.409374 321.1875 36.409374Q322.20312 36.409374 322.98438 35.971874Q323.78125 35.51875 324.15625 34.753124Q324.4375 34.14375 324.4375 32.9875L324.4375 32.346874ZM328.5 38.409374L330.20312 38.659374Q330.3125 39.45625 330.79688 39.815624Q331.45312 40.3 332.59375 40.3Q333.8125 40.3 334.46875 39.815624Q335.14062 39.33125 335.375 38.45625Q335.51562 37.909374 335.5 36.190624Q334.34375 37.55 332.625 37.55Q330.48438 37.55 329.3125 36.003124Q328.14062 34.45625 328.14062 32.3Q328.14062 30.815624 328.67188 29.565624Q329.21875 28.315624 330.23438 27.628124Q331.26562 26.940624 332.64062 26.940624Q334.46875 26.940624 335.67188 28.425L335.67188 27.175L337.28125 27.175L337.28125 36.14375Q337.28125 38.565624 336.78125 39.565624Q336.29688 40.58125 335.21875 41.159374Q334.15625 41.753124 332.59375 41.753124Q330.75 41.753124 329.59375 40.925Q328.45312 40.096874 328.5 38.409374ZM329.95312 32.175Q329.95312 34.221874 330.76562 35.159374Q331.57812 36.096874 332.79688 36.096874Q334.0 36.096874 334.8125 35.159374Q335.64062 34.221874 335.64062 32.2375Q335.64062 30.33125 334.79688 29.3625Q333.95312 28.39375 332.76562 28.39375Q331.59375 28.39375 330.76562 29.346874Q329.95312 30.3 329.95312 32.175ZM346.92188 34.20625L348.73438 34.440624Q348.3125 36.01875 347.14062 36.909374Q345.98438 37.784374 344.17188 37.784374Q341.90625 37.784374 340.5625 36.39375Q339.23438 34.9875 339.23438 32.45625Q339.23438 29.83125 340.57812 28.39375Q341.92188 26.940624 344.07812 26.940624Q346.15625 26.940624 347.46875 28.3625Q348.79688 29.76875 348.79688 32.346874Q348.79688 32.503124 348.78125 32.815624L341.04688 32.815624Q341.14062 34.51875 342.01562 35.425Q342.89062 36.33125 344.1875 36.33125Q345.15625 36.33125 345.82812 35.83125Q346.51562 35.315624 346.92188 34.20625ZM341.14062 31.3625L346.9375 31.3625Q346.82812 30.065624 346.28125 29.409374Q345.4375 28.39375 344.09375 28.39375Q342.89062 28.39375 342.0625 29.20625Q341.23438 30.003124 341.14062 31.3625Z" fill-rule="nonzero"/></svg>