<svg version="1.1" viewBox="0.0 0.0 600.0 371.0" fill="none" stroke="none" stroke-linecap="square" stroke-miterlimit="10" width="600" height="371" xmlns:xlink="http://www.w3.org/1999/xlink" xmlns="http://www.w3.org/2000/svg"><path fill="#ffffff" d="M0 0L600.0 0L600.0 371.0L0 371.0L0 0Z" fill-rule="nonzero"/><path stroke="#333333" stroke-width="1.0" stroke-linecap="butt" d="M84.5 332.5L581.5 332.5" fill-rule="nonzero"/><path stroke="#cccccc" stroke-width="1.0" stroke-linecap="butt" d="M84.5 251.5L581.5 251.5" fill-rule="nonzero"/><path stroke="#cccccc" stroke-width="1.0" stroke-linecap="butt" d="M84.5 169.5L581.5 169.5" fill-rule="nonzero"/><path stroke="#cccccc" stroke-width="1.0" stroke-linecap="butt" d="M84.5 88.5L581.5 88.5" fill-rule="nonzero"/><clipPath id="id_0"><path d="M84.55 88.28333L581.45 88.28333L581.45 332.45L84.55 332.45L84.55 88.28333Z" clip-rule="nonzero"/></clipPath><path stroke="#000000" stroke-width="2.0" stroke-linecap="butt" stroke-opacity="0.0" clip-path="url(#id_0)" d="M226.0 332.0L159.0 332.0L159.0 271.0C159.0 269.89542 159.89543 269.0 161.0 269.0L224.0 269.0C225.10457 269.0 226.0 269.89542 226.0 271.0Z" fill-rule="nonzero"/><path fill="#4285f4" clip-path="url(#id_0)" d="M226.0 332.0L159.0 332.0L159.0 271.0C159.0 269.89542 159.89543 269.0 161.0 269.0L224.0 269.0C225.10457 269.0 226.0 269.89542 226.0 271.0Z" fill-rule="nonzero"/><path stroke="#000000" stroke-width="2.0" stroke-linecap="butt" stroke-opacity="0.0" clip-path="url(#id_0)" d="M438.0 332.0L371.0 332.0L371.0 268.0C371.0 266.89542 371.89542 266.0 373.0 266.0L436.0 266.0C437.10458 266.0 438.0 266.89542 438.0 268.0Z" fill-rule="nonzero"/><path fill="#4285f4" clip-path="url(#id_0)" d="M438.0 332.0L371.0 332.0L371.0 268.0C371.0 266.89542 371.89542 266.0 373.0 266.0L436.0 266.0C437.10458 266.0 438.0 266.89542 438.0 268.0Z" fill-rule="nonzero"/><path stroke="#000000" stroke-width="2.0" stroke-linecap="butt" stroke-opacity="0.0" clip-path="url(#id_0)" d="M295.0 332.0L228.0 332.0L228.0 139.0C228.0 137.89543 228.89543 137.0 230.0 137.0L293.0 137.0C294.10458 137.0 295.0 137.89543 295.0 139.0Z" fill-rule="nonzero"/><path fill="#ea4335" clip-path="url(#id_0)" d="M295.0 332.0L228.0 332.0L228.0 139.0C228.0 137.89543 228.89543 137.0 230.0 137.0L293.0 137.0C294.10458 137.0 295.0 137.89543 295.0 139.0Z" fill-rule="nonzero"/><path stroke="#000000" stroke-width="2.0" stroke-linecap="butt" stroke-opacity="0.0" clip-path="url(#id_0)" d="M507.0 332.0L440.0 332.0L440.0 107.0C440.0 105.89543 440.89542 105.0 442.0 105.0L505.0 105.0C506.10458 105.0 507.0 105.89543 507.0 107.0Z" fill-rule="nonzero"/><path fill="#ea4335" clip-path="url(#id_0)" d="M507.0 332.0L440.0 332.0L440.0 107.0C440.0 105.89543 440.89542 105.0 442.0 105.0L505.0 105.0C506.10458 105.0 507.0 105.89543 507.0 107.0Z" fill-rule="nonzero"/><path fill="#000000" d="M29.550013 238.47604L20.956263 238.47604L20.956263 236.7573L27.034388 234.72604Q27.893763 234.4448 28.315638 234.3198Q27.846888 234.17917 26.940638 233.86667L20.956263 231.80417L20.956263 230.27292L29.550013 230.27292L29.550013 231.36667L22.362513 231.36667L29.550013 233.86667L29.550013 234.89792L22.237513 237.3823L29.550013 237.3823L29.550013 238.47604ZM29.550013 229.49167L20.956263 229.49167L20.956263 226.2573Q20.956263 225.27292 21.221888 224.67917Q21.487513 224.08542 22.034388 223.7573Q22.565638 223.41354 23.159388 223.41354Q23.706263 223.41354 24.190638 223.71042Q24.675013 224.0073 24.971888 224.61667Q25.206263 223.83542 25.768763 223.42917Q26.315638 223.0073 27.065638 223.0073Q27.659388 223.0073 28.190638 223.2573Q28.706263 223.5073 28.987513 223.8823Q29.268763 224.2573 29.409388 224.83542Q29.550013 225.39792 29.550013 226.21042L29.550013 229.49167ZM24.565638 228.35104L24.565638 226.49167Q24.565638 225.74167 24.471888 225.41354Q24.346888 224.97604 24.050013 224.7573Q23.737513 224.53854 23.284388 224.53854Q22.862513 224.53854 22.534388 224.74167Q22.206263 224.9448 22.096888 225.33542Q21.971888 225.71042 21.971888 226.6323L21.971888 228.35104L24.565638 228.35104ZM28.534388 228.35104L28.534388 226.21042Q28.534388 225.66354 28.487513 225.4448Q28.425013 225.03854 28.268763 224.78854Q28.096888 224.52292 27.784388 224.35104Q27.471888 224.17917 27.065638 224.17917Q26.581263 224.17917 26.221888 224.42917Q25.862513 224.66354 25.721888 225.10104Q25.581263 225.53854 25.581263 226.36667L25.581263 228.35104L28.534388 228.35104ZM29.550013 218.42917L20.956263 218.42917L20.956263 214.61667Q20.956263 213.46042 21.190638 212.86667Q21.425013 212.27292 22.018763 211.91354Q22.596888 211.55417 23.300013 211.55417Q24.221888 211.55417 24.846888 212.14792Q25.471888 212.74167 25.643763 213.97604Q25.862513 213.52292 26.065638 213.28854Q26.518763 212.78854 27.206263 212.35104L29.550013 210.85104L29.550013 212.28854L27.768763 213.41354Q26.987513 213.91354 26.581263 214.24167Q26.175013 214.55417 26.018763 214.8198Q25.846888 215.0698 25.768763 215.33542Q25.737513 215.52292 25.737513 215.96042L25.737513 217.28854L29.550013 217.28854L29.550013 218.42917ZM24.753138 217.28854L24.753138 214.83542Q24.753138 214.0698 24.596888 213.6323Q24.425013 213.17917 24.081263 212.96042Q23.721888 212.72604 23.300013 212.72604Q22.690638 212.72604 22.300013 213.17917Q21.909388 213.61667 21.909388 214.5698L21.909388 217.28854L24.753138 217.28854ZM29.550013 210.3823L20.956263 207.08542L20.956263 205.86667L29.550013 202.35104L29.550013 203.6323L26.940638 204.64792L26.940638 208.22604L29.550013 209.17917L29.550013 210.3823ZM26.018763 207.89792L26.018763 204.99167L23.643763 205.8823Q22.565638 206.30417 21.862513 206.49167Q22.690638 206.66354 23.503138 206.96042L26.018763 207.89792ZM29.550013 202.47604L20.956263 202.47604L20.956263 200.7573L27.034388 198.72604Q27.893763 198.4448 28.315638 198.3198Q27.846888 198.17917 26.940638 197.86667L20.956263 195.80417L20.956263 194.27292L29.550013 194.27292L29.550013 195.36667L22.362513 195.36667L29.550013 197.86667L29.550013 198.89792L22.237513 201.3823L29.550013 201.3823L29.550013 202.47604Z" fill-rule="nonzero"/><path fill="#000000" d="M72.05 332.21564Q72.05 330.6844 72.3625 329.7625Q72.675 328.825 73.28438 328.325Q73.90938 327.825 74.84688 327.825Q75.53438 327.825 76.05 328.10626Q76.58125 328.3875 76.925 328.91876Q77.26875 329.4344 77.45625 330.1844Q77.64375 330.9344 77.64375 332.21564Q77.64375 333.73126 77.33125 334.65314Q77.03438 335.575 76.40938 336.09064Q75.8 336.59064 74.84688 336.59064Q73.6125 336.59064 72.89375 335.7Q72.05 334.6375 72.05 332.21564ZM73.12813 332.21564Q73.12813 334.325 73.62813 335.02814Q74.12813 335.73126 74.84688 335.73126Q75.58125 335.73126 76.06563 335.02814Q76.56563 334.325 76.56563 332.21564Q76.56563 330.09064 76.06563 329.40314Q75.58125 328.7 74.83125 328.7Q74.1125 328.7 73.675 329.3094Q73.12813 330.09064 73.12813 332.21564Z" fill-rule="nonzero"/><path fill="#000000" d="M58.05 252.81111L59.159374 252.71736Q59.284374 253.52986 59.721874 253.93611Q60.175 254.34236 60.815624 254.34236Q61.565624 254.34236 62.096874 253.76424Q62.628124 253.18611 62.628124 252.24861Q62.628124 251.34236 62.1125 250.82674Q61.6125 250.29549 60.784374 250.29549Q60.284374 250.29549 59.8625 250.52986Q59.45625 250.76424 59.221874 251.12361L58.2375 250.99861L59.065624 246.59236L63.346874 246.59236L63.346874 247.59236L59.909374 247.59236L59.45625 249.90486Q60.221874 249.35799 61.065624 249.35799Q62.190624 249.35799 62.95625 250.13924Q63.7375 250.92049 63.7375 252.15486Q63.7375 253.31111 63.065624 254.17049Q62.2375 255.20174 60.815624 255.20174Q59.64375 255.20174 58.89375 254.54549Q58.159374 253.88924 58.05 252.81111ZM65.05 250.82674Q65.05 249.29549 65.3625 248.37361Q65.675 247.43611 66.28438 246.93611Q66.90938 246.43611 67.84688 246.43611Q68.53438 246.43611 69.05 246.71736Q69.58125 246.99861 69.925 247.52986Q70.26875 248.04549 70.45625 248.79549Q70.64375 249.54549 70.64375 250.82674Q70.64375 252.34236 70.33125 253.26424Q70.03438 254.18611 69.40938 254.70174Q68.8 255.20174 67.84688 255.20174Q66.6125 255.20174 65.89375 254.31111Q65.05 253.24861 65.05 250.82674ZM66.12813 250.82674Q66.12813 252.93611 66.62813 253.63924Q67.12813 254.34236 67.84688 254.34236Q68.58125 254.34236 69.06563 253.63924Q69.56563 252.93611 69.56563 250.82674Q69.56563 248.70174 69.06563 248.01424Q68.58125 247.31111 67.83125 247.31111Q67.1125 247.31111 66.675 247.92049Q66.12813 248.70174 66.12813 250.82674ZM72.05 250.82674Q72.05 249.29549 72.3625 248.37361Q72.675 247.43611 73.28438 246.93611Q73.90938 246.43611 74.84688 246.43611Q75.53438 246.43611 76.05 246.71736Q76.58125 246.99861 76.925 247.52986Q77.26875 248.04549 77.45625 248.79549Q77.64375 249.54549 77.64375 250.82674Q77.64375 252.34236 77.33125 253.26424Q77.03438 254.18611 76.40938 254.70174Q75.8 255.20174 74.84688 255.20174Q73.6125 255.20174 72.89375 254.31111Q72.05 253.24861 72.05 250.82674ZM73.12813 250.82674Q73.12813 252.93611 73.62813 253.63924Q74.12813 254.34236 74.84688 254.34236Q75.58125 254.34236 76.06563 253.63924Q76.56563 252.93611 76.56563 250.82674Q76.56563 248.70174 76.06563 248.01424Q75.58125 247.31111 74.83125 247.31111Q74.1125 247.31111 73.675 247.92049Q73.12813 248.70174 73.12813 250.82674Z" fill-rule="nonzero"/><path fill="#000000" d="M55.01875 173.67223L53.971874 173.67223L53.971874 166.95348Q53.58125 167.31285 52.95625 167.68785Q52.346874 168.04723 51.8625 168.2191L51.8625 167.20348Q52.7375 166.7816 53.39375 166.20348Q54.065624 165.60973 54.346874 165.04723L55.01875 165.04723L55.01875 173.67223ZM58.05 169.43785Q58.05 167.9066 58.3625 166.98473Q58.675 166.04723 59.284374 165.54723Q59.909374 165.04723 60.846874 165.04723Q61.534374 165.04723 62.05 165.32848Q62.58125 165.60973 62.925 166.14098Q63.26875 166.6566 63.45625 167.4066Q63.64375 168.1566 63.64375 169.43785Q63.64375 170.95348 63.33125 171.87535Q63.034374 172.79723 62.409374 173.31285Q61.8 173.81285 60.846874 173.81285Q59.6125 173.81285 58.89375 172.92223Q58.05 171.85973 58.05 169.43785ZM59.128124 169.43785Q59.128124 171.54723 59.628124 172.25035Q60.128124 172.95348 60.846874 172.95348Q61.58125 172.95348 62.065624 172.25035Q62.565624 171.54723 62.565624 169.43785Q62.565624 167.31285 62.065624 166.62535Q61.58125 165.92223 60.83125 165.92223Q60.1125 165.92223 59.675 166.5316Q59.128124 167.31285 59.128124 169.43785ZM65.05 169.43785Q65.05 167.9066 65.3625 166.98473Q65.675 166.04723 66.28438 165.54723Q66.90938 165.04723 67.84688 165.04723Q68.53438 165.04723 69.05 165.32848Q69.58125 165.60973 69.925 166.14098Q70.26875 166.6566 70.45625 167.4066Q70.64375 168.1566 70.64375 169.43785Q70.64375 170.95348 70.33125 171.87535Q70.03438 172.79723 69.40938 173.31285Q68.8 173.81285 67.84688 173.81285Q66.6125 173.81285 65.89375 172.92223Q65.05 171.85973 65.05 169.43785ZM66.12813 169.43785Q66.12813 171.54723 66.62813 172.25035Q67.12813 172.95348 67.84688 172.95348Q68.58125 172.95348 69.06563 172.25035Q69.56563 171.54723 69.56563 169.43785Q69.56563 167.31285 69.06563 166.62535Q68.58125 165.92223 67.83125 165.92223Q67.1125 165.92223 66.675 166.5316Q66.12813 167.31285 66.12813 169.43785ZM72.05 169.43785Q72.05 167.9066 72.3625 166.98473Q72.675 166.04723 73.28438 165.54723Q73.90938 165.04723 74.84688 165.04723Q75.53438 165.04723 76.05 165.32848Q76.58125 165.60973 76.925 166.14098Q77.26875 166.6566 77.45625 167.4066Q77.64375 168.1566 77.64375 169.43785Q77.64375 170.95348 77.33125 171.87535Q77.03438 172.79723 76.40938 173.31285Q75.8 173.81285 74.84688 173.81285Q73.6125 173.81285 72.89375 172.92223Q72.05 171.85973 72.05 169.43785ZM73.12813 169.43785Q73.12813 171.54723 73.62813 172.25035Q74.12813 172.95348 74.84688 172.95348Q75.58125 172.95348 76.06563 172.25035Q76.56563 171.54723 76.56563 169.43785Q76.56563 167.31285 76.06563 166.62535Q75.58125 165.92223 74.83125 165.92223Q74.1125 165.92223 73.675 166.5316Q73.12813 167.31285 73.12813 169.43785Z" fill-rule="nonzero"/><path fill="#000000" d="M55.01875 92.28333L53.971874 92.28333L53.971874 85.56458Q53.58125 85.92396 52.95625 86.29896Q52.346874 86.65833 51.8625 86.83021L51.8625 85.81458Q52.7375 85.39271 53.39375 84.81458Q54.065624 84.22083 54.346874 83.65833L55.01875 83.65833L55.01875 92.28333ZM58.05 90.03333L59.159374 89.93958Q59.284374 90.75208 59.721874 91.15833Q60.175 91.56458 60.815624 91.56458Q61.565624 91.56458 62.096874 90.98646Q62.628124 90.40833 62.628124 89.47083Q62.628124 88.56458 62.1125 88.04896Q61.6125 87.51771 60.784374 87.51771Q60.284374 87.51771 59.8625 87.75208Q59.45625 87.98646 59.221874 88.34583L58.2375 88.22083L59.065624 83.81458L63.346874 83.81458L63.346874 84.81458L59.909374 84.81458L59.45625 87.12708Q60.221874 86.58021 61.065624 86.58021Q62.190624 86.58021 62.95625 87.36146Q63.7375 88.14271 63.7375 89.37708Q63.7375 90.53333 63.065624 91.39271Q62.2375 92.42396 60.815624 92.42396Q59.64375 92.42396 58.89375 91.76771Q58.159374 91.11146 58.05 90.03333ZM65.05 88.04896Q65.05 86.51771 65.3625 85.59583Q65.675 84.65833 66.28438 84.15833Q66.90938 83.65833 67.84688 83.65833Q68.53438 83.65833 69.05 83.93958Q69.58125 84.22083 69.925 84.75208Q70.26875 85.26771 70.45625 86.01771Q70.64375 86.76771 70.64375 88.04896Q70.64375 89.56458 70.33125 90.48646Q70.03438 91.40833 69.40938 91.92396Q68.8 92.42396 67.84688 92.42396Q66.6125 92.42396 65.89375 91.53333Q65.05 90.47083 65.05 88.04896ZM66.12813 88.04896Q66.12813 90.15833 66.62813 90.86146Q67.12813 91.56458 67.84688 91.56458Q68.58125 91.56458 69.06563 90.86146Q69.56563 90.15833 69.56563 88.04896Q69.56563 85.92396 69.06563 85.23646Q68.58125 84.53333 67.83125 84.53333Q67.1125 84.53333 66.675 85.14271Q66.12813 85.92396 66.12813 88.04896ZM72.05 88.04896Q72.05 86.51771 72.3625 85.59583Q72.675 84.65833 73.28438 84.15833Q73.90938 83.65833 74.84688 83.65833Q75.53438 83.65833 76.05 83.93958Q76.58125 84.22083 76.925 84.75208Q77.26875 85.26771 77.45625 86.01771Q77.64375 86.76771 77.64375 88.04896Q77.64375 89.56458 77.33125 90.48646Q77.03438 91.40833 76.40938 91.92396Q75.8 92.42396 74.84688 92.42396Q73.6125 92.42396 72.89375 91.53333Q72.05 90.47083 72.05 88.04896ZM73.12813 88.04896Q73.12813 90.15833 73.62813 90.86146Q74.12813 91.56458 74.84688 91.56458Q75.58125 91.56458 76.06563 90.86146Q76.56563 90.15833 76.56563 88.04896Q76.56563 85.92396 76.06563 85.23646Q75.58125 84.53333 74.83125 84.53333Q74.1125 84.53333 73.675 85.14271Q73.12813 85.92396 73.12813 88.04896Z" fill-rule="nonzero"/><path fill="#000000" d="M220.8391 346.4344L221.9641 346.73126Q221.60472 348.1219 220.68285 348.85626Q219.76097 349.59064 218.41722 349.59064Q217.0266 349.59064 216.1516 349.02814Q215.2766 348.46564 214.82347 347.40314Q214.37035 346.325 214.37035 345.09064Q214.37035 343.7469 214.88597 342.7469Q215.4016 341.7469 216.3391 341.23126Q217.29222 340.71564 218.43285 340.71564Q219.7141 340.71564 220.5891 341.3719Q221.47972 342.02814 221.82347 343.21564L220.69847 343.48126Q220.4016 342.54376 219.82347 342.1219Q219.26097 341.6844 218.4016 341.6844Q217.41722 341.6844 216.74535 342.16876Q216.0891 342.6375 215.80785 343.4344Q215.54222 344.23126 215.54222 345.09064Q215.54222 346.1844 215.85472 346.9969Q216.18285 347.8094 216.85472 348.21564Q217.5266 348.6219 218.32347 348.6219Q219.2766 348.6219 219.93285 348.075Q220.60472 347.52814 220.8391 346.4344ZM223.69847 349.45L223.69847 340.85626L226.66722 340.85626Q227.66722 340.85626 228.19847 340.98126Q228.93285 341.15314 229.44847 341.59064Q230.13597 342.16876 230.4641 343.075Q230.80785 343.96564 230.80785 345.10626Q230.80785 346.09064 230.57347 346.84064Q230.35472 347.59064 229.99535 348.09064Q229.63597 348.59064 229.19847 348.8719Q228.7766 349.15314 228.18285 349.3094Q227.5891 349.45 226.80785 349.45L223.69847 349.45ZM224.8391 348.4344L226.66722 348.4344Q227.5266 348.4344 228.01097 348.27814Q228.49535 348.1219 228.7766 347.825Q229.18285 347.4344 229.4016 346.7469Q229.63597 346.0594 229.63597 345.09064Q229.63597 343.7469 229.18285 343.02814Q228.74535 342.29376 228.12035 342.04376Q227.6516 341.8719 226.6516 341.8719L224.8391 341.8719L224.8391 348.4344ZM238.8391 346.4344L239.9641 346.73126Q239.60472 348.1219 238.68285 348.85626Q237.76097 349.59064 236.41722 349.59064Q235.0266 349.59064 234.1516 349.02814Q233.2766 348.46564 232.82347 347.40314Q232.37035 346.325 232.37035 345.09064Q232.37035 343.7469 232.88597 342.7469Q233.4016 341.7469 234.3391 341.23126Q235.29222 340.71564 236.43285 340.71564Q237.7141 340.71564 238.5891 341.3719Q239.47972 342.02814 239.82347 343.21564L238.69847 343.48126Q238.4016 342.54376 237.82347 342.1219Q237.26097 341.6844 236.4016 341.6844Q235.41722 341.6844 234.74535 342.16876Q234.0891 342.6375 233.80785 343.4344Q233.54222 344.23126 233.54222 345.09064Q233.54222 346.1844 233.85472 346.9969Q234.18285 347.8094 234.85472 348.21564Q235.5266 348.6219 236.32347 348.6219Q237.2766 348.6219 237.93285 348.075Q238.60472 347.52814 238.8391 346.4344Z" fill-rule="nonzero"/><path fill="#000000" d="M412.7703 346.6844L413.8328 346.59064Q413.91092 347.2469 414.19217 347.65314Q414.47342 348.0594 415.05154 348.325Q415.6453 348.575 416.37967 348.575Q417.0203 348.575 417.5203 348.3875Q418.0203 348.1844 418.25467 347.85626Q418.50467 347.5125 418.50467 347.1219Q418.50467 346.71564 418.2703 346.41876Q418.03592 346.10626 417.50467 345.90314Q417.1453 345.7625 415.9578 345.48126Q414.78592 345.2 414.31717 344.95Q413.69217 344.6219 413.3953 344.15314Q413.09842 343.66876 413.09842 343.075Q413.09842 342.4344 413.4578 341.8719Q413.8328 341.29376 414.53592 341.0125Q415.25467 340.71564 416.11404 340.71564Q417.06717 340.71564 417.80154 341.02814Q418.53592 341.325 418.92654 341.9344Q419.31717 342.52814 419.34842 343.27814L418.25467 343.35626Q418.16092 342.54376 417.6453 342.1375Q417.1453 341.71564 416.16092 341.71564Q415.12967 341.71564 414.66092 342.09064Q414.19217 342.46564 414.19217 342.9969Q414.19217 343.46564 414.5203 343.7625Q414.84842 344.0594 416.22342 344.3719Q417.61404 344.6844 418.12967 344.91876Q418.87967 345.27814 419.23904 345.8094Q419.59842 346.325 419.59842 347.02814Q419.59842 347.71564 419.2078 348.325Q418.81717 348.91876 418.0828 349.2625Q417.34842 349.59064 416.42654 349.59064Q415.25467 349.59064 414.4578 349.2625Q413.67654 348.91876 413.22342 348.23126Q412.78592 347.54376 412.7703 346.6844ZM421.0203 349.45L421.0203 343.23126L421.9578 343.23126L421.9578 344.10626Q422.6453 343.09064 423.94217 343.09064Q424.50467 343.09064 424.97342 343.29376Q425.4578 343.4969 425.69217 343.825Q425.92654 344.15314 426.0203 344.59064Q426.06717 344.8875 426.06717 345.6219L426.06717 349.45L425.0203 349.45L425.0203 345.66876Q425.0203 345.0125 424.8953 344.7Q424.7703 344.3875 424.4578 344.2Q424.1453 343.9969 423.72342 343.9969Q423.05154 343.9969 422.55154 344.4344Q422.06717 344.85626 422.06717 346.04376L422.06717 349.45L421.0203 349.45ZM432.0828 348.6844Q431.48904 349.1844 430.94217 349.3875Q430.41092 349.59064 429.78592 349.59064Q428.75467 349.59064 428.2078 349.09064Q427.66092 348.59064 427.66092 347.8094Q427.66092 347.35626 427.86404 346.98126Q428.06717 346.59064 428.41092 346.3719Q428.75467 346.1375 429.17654 346.02814Q429.47342 345.9344 430.11404 345.85626Q431.37967 345.71564 431.98904 345.4969Q431.98904 345.27814 431.98904 345.23126Q431.98904 344.575 431.69217 344.3094Q431.28592 343.96564 430.48904 343.96564Q429.75467 343.96564 429.3953 344.23126Q429.03592 344.48126 428.86404 345.1375L427.8328 344.9969Q427.97342 344.34064 428.30154 343.9344Q428.62967 343.52814 429.23904 343.3094Q429.84842 343.09064 430.6453 343.09064Q431.44217 343.09064 431.94217 343.27814Q432.44217 343.46564 432.67654 343.7469Q432.91092 344.02814 433.00467 344.46564Q433.05154 344.73126 433.05154 345.4344L433.05154 346.84064Q433.05154 348.3094 433.11404 348.7Q433.19217 349.09064 433.3953 349.45L432.28592 349.45Q432.12967 349.1219 432.0828 348.6844ZM431.98904 346.325Q431.41092 346.5594 430.2703 346.73126Q429.61404 346.825 429.34842 346.95Q429.0828 347.0594 428.92654 347.27814Q428.78592 347.4969 428.78592 347.77814Q428.78592 348.2 429.09842 348.48126Q429.42654 348.7625 430.03592 348.7625Q430.6453 348.7625 431.11404 348.4969Q431.59842 348.23126 431.81717 347.7625Q431.98904 347.40314 431.98904 346.71564L431.98904 346.325ZM435.0203 351.84064L435.0203 343.23126L435.97342 343.23126L435.97342 344.02814Q436.31717 343.5594 436.73904 343.325Q437.17654 343.09064 437.78592 343.09064Q438.5828 343.09064 439.19217 343.4969Q439.80154 343.90314 440.09842 344.65314Q440.41092 345.40314 440.41092 346.29376Q440.41092 347.2469 440.06717 348.0125Q439.73904 348.77814 439.0828 349.1844Q438.42654 349.59064 437.7078 349.59064Q437.17654 349.59064 436.75467 349.3719Q436.3328 349.1375 436.06717 348.8094L436.06717 351.84064L435.0203 351.84064ZM435.97342 346.3719Q435.97342 347.575 436.4578 348.15314Q436.94217 348.71564 437.62967 348.71564Q438.3328 348.71564 438.8328 348.1219Q439.3328 347.52814 439.3328 346.27814Q439.3328 345.09064 438.84842 344.5125Q438.36404 343.91876 437.67654 343.91876Q437.00467 343.91876 436.48904 344.54376Q435.97342 345.16876 435.97342 346.3719ZM441.59842 347.59064L442.62967 347.4344Q442.72342 348.0594 443.11404 348.3875Q443.5203 348.71564 444.25467 348.71564Q444.97342 348.71564 445.31717 348.4344Q445.67654 348.1375 445.67654 347.73126Q445.67654 347.3719 445.36404 347.16876Q445.1453 347.02814 444.28592 346.8094Q443.12967 346.5125 442.67654 346.3094Q442.23904 346.09064 442.00467 345.71564Q441.7703 345.34064 441.7703 344.8719Q441.7703 344.46564 441.9578 344.10626Q442.1453 343.7469 442.47342 343.5125Q442.72342 343.34064 443.1453 343.21564Q443.56717 343.09064 444.06717 343.09064Q444.78592 343.09064 445.3328 343.3094Q445.8953 343.5125 446.16092 343.8719Q446.42654 344.23126 446.5203 344.825L445.48904 344.96564Q445.42654 344.4969 445.0828 344.23126Q444.75467 343.95 444.12967 343.95Q443.41092 343.95 443.09842 344.2Q442.78592 344.4344 442.78592 344.7625Q442.78592 344.96564 442.91092 345.1219Q443.05154 345.29376 443.31717 345.40314Q443.47342 345.46564 444.25467 345.66876Q445.37967 345.98126 445.81717 346.16876Q446.25467 346.35626 446.50467 346.71564Q446.75467 347.075 446.75467 347.6219Q446.75467 348.15314 446.44217 348.6219Q446.1453 349.075 445.56717 349.34064Q444.98904 349.59064 444.25467 349.59064Q443.03592 349.59064 442.3953 349.09064Q441.7703 348.575 441.59842 347.59064ZM449.0203 349.45L449.0203 340.85626L450.06717 340.85626L450.06717 343.9344Q450.80154 343.09064 451.92654 343.09064Q452.62967 343.09064 453.12967 343.3719Q453.6453 343.6375 453.86404 344.1219Q454.0828 344.59064 454.0828 345.5125L454.0828 349.45L453.03592 349.45L453.03592 345.5125Q453.03592 344.71564 452.69217 344.35626Q452.34842 343.9969 451.72342 343.9969Q451.25467 343.9969 450.8328 344.2469Q450.42654 344.48126 450.23904 344.90314Q450.06717 345.3094 450.06717 346.04376L450.06717 349.45L449.0203 349.45ZM455.62967 346.34064Q455.62967 344.60626 456.5828 343.77814Q457.37967 343.09064 458.53592 343.09064Q459.81717 343.09064 460.62967 343.9344Q461.4578 344.7625 461.4578 346.2469Q461.4578 347.45 461.09842 348.1375Q460.73904 348.825 460.03592 349.21564Q459.34842 349.59064 458.53592 349.59064Q457.23904 349.59064 456.42654 348.7625Q455.62967 347.91876 455.62967 346.34064ZM456.7078 346.34064Q456.7078 347.52814 457.22342 348.1219Q457.75467 348.71564 458.53592 348.71564Q459.3328 348.71564 459.84842 348.1219Q460.36404 347.52814 460.36404 346.3094Q460.36404 345.15314 459.8328 344.5594Q459.31717 343.96564 458.53592 343.96564Q457.75467 343.96564 457.22342 344.5594Q456.7078 345.1375 456.7078 346.34064ZM465.31717 348.5125L465.47342 349.4344Q465.0203 349.52814 464.67654 349.52814Q464.09842 349.52814 463.78592 349.35626Q463.47342 349.16876 463.3328 348.8719Q463.2078 348.575 463.2078 347.6219L463.2078 344.04376L462.44217 344.04376L462.44217 343.23126L463.2078 343.23126L463.2078 341.6844L464.25467 341.0594L464.25467 343.23126L465.31717 343.23126L465.31717 344.04376L464.25467 344.04376L464.25467 347.6844Q464.25467 348.1375 464.30154 348.2625Q464.36404 348.3875 464.48904 348.46564Q464.61404 348.54376 464.84842 348.54376Q465.03592 348.54376 465.31717 348.5125Z" fill-rule="nonzero"/><path fill="#4285f4" d="M210.5 56.916668C210.5 56.364384 210.94771 55.916668 211.5 55.916668L221.5 55.916668C222.05229 55.916668 222.5 56.364384 222.5 56.916668L222.5 66.916664C222.5 67.46895 222.05229 67.916664 221.5 67.916664L211.5 67.916664C210.94771 67.916664 210.5 67.46895 210.5 66.916664Z" fill-rule="nonzero"/><path fill="#1a1a1a" d="M237.5625 62.90104L238.6875 63.197914Q238.32812 64.58854 237.40625 65.322914Q236.48438 66.05729 235.14062 66.05729Q233.75 66.05729 232.875 65.49479Q232.0 64.93229 231.54688 63.86979Q231.09375 62.791664 231.09375 61.55729Q231.09375 60.21354 231.60938 59.21354Q232.125 58.21354 233.0625 57.697914Q234.01562 57.18229 235.15625 57.18229Q236.4375 57.18229 237.3125 57.83854Q238.20312 58.49479 238.54688 59.68229L237.42188 59.947914Q237.125 59.010414 236.54688 58.58854Q235.98438 58.15104 235.125 58.15104Q234.14062 58.15104 233.46875 58.635414Q232.8125 59.104164 232.53125 59.90104Q232.26562 60.697914 232.26562 61.55729Q232.26562 62.65104 232.57812 63.46354Q232.90625 64.27604 233.57812 64.68229Q234.25 65.08854 235.04688 65.08854Q236.0 65.08854 236.65625 64.541664Q237.32812 63.99479 237.5625 62.90104ZM239.90625 62.80729Q239.90625 61.072914 240.85938 60.24479Q241.65625 59.55729 242.8125 59.55729Q244.09375 59.55729 244.90625 60.40104Q245.73438 61.229164 245.73438 62.71354Q245.73438 63.916664 245.375 64.604164Q245.01562 65.291664 244.3125 65.68229Q243.625 66.05729 242.8125 66.05729Q241.51562 66.05729 240.70312 65.229164Q239.90625 64.385414 239.90625 62.80729ZM240.98438 62.80729Q240.98438 63.99479 241.5 64.58854Q242.03125 65.18229 242.8125 65.18229Q243.60938 65.18229 244.125 64.58854Q244.64062 63.99479 244.64062 62.77604Q244.64062 61.61979 244.10938 61.02604Q243.59375 60.43229 242.8125 60.43229Q242.03125 60.43229 241.5 61.02604Q240.98438 61.604164 240.98438 62.80729ZM247.29688 65.916664L247.29688 59.697914L248.23438 59.697914L248.23438 60.572914Q248.92188 59.55729 250.21875 59.55729Q250.78125 59.55729 251.25 59.760414Q251.73438 59.96354 251.96875 60.291664Q252.20312 60.61979 252.29688 61.05729Q252.34375 61.354164 252.34375 62.08854L252.34375 65.916664L251.29688 65.916664L251.29688 62.135414Q251.29688 61.479164 251.17188 61.166664Q251.04688 60.854164 250.73438 60.666664Q250.42188 60.46354 250.0 60.46354Q249.32812 60.46354 248.82812 60.90104Q248.34375 61.322914 248.34375 62.510414L248.34375 65.916664L247.29688 65.916664ZM258.32812 65.916664L258.32812 65.135414Q257.73438 66.05729 256.59375 66.05729Q255.84375 66.05729 255.21875 65.65104Q254.59375 65.229164 254.25 64.49479Q253.90625 63.760414 253.90625 62.80729Q253.90625 61.885414 254.21875 61.11979Q254.53125 60.354164 255.15625 59.96354Q255.78125 59.55729 256.54688 59.55729Q257.10938 59.55729 257.54688 59.791664Q257.98438 60.02604 258.26562 60.40104L258.26562 57.322914L259.3125 57.322914L259.3125 65.916664L258.32812 65.916664ZM255.0 62.80729Q255.0 64.010414 255.5 64.604164Q256.0 65.18229 256.6875 65.18229Q257.375 65.18229 257.85938 64.61979Q258.34375 64.05729 258.34375 62.90104Q258.34375 61.61979 257.84375 61.02604Q257.35938 60.43229 256.64062 60.43229Q255.9375 60.43229 255.46875 61.010414Q255.0 61.572914 255.0 62.80729ZM265.375 65.916664L265.375 64.99479Q264.64062 66.05729 263.39062 66.05729Q262.84375 66.05729 262.35938 65.854164Q261.89062 65.635414 261.65625 65.322914Q261.42188 64.99479 261.32812 64.52604Q261.26562 64.229164 261.26562 63.541664L261.26562 59.697914L262.32812 59.697914L262.32812 63.15104Q262.32812 63.96354 262.39062 64.260414Q262.48438 64.666664 262.79688 64.916664Q263.125 65.15104 263.60938 65.15104Q264.07812 65.15104 264.48438 64.916664Q264.90625 64.666664 265.07812 64.24479Q265.26562 63.822914 265.26562 63.02604L265.26562 59.697914L266.3125 59.697914L266.3125 65.916664L265.375 65.916664ZM268.29688 58.541664L268.29688 57.322914L269.35938 57.322914L269.35938 58.541664L268.29688 58.541664ZM268.29688 65.916664L268.29688 59.697914L269.35938 59.697914L269.35938 65.916664L268.29688 65.916664ZM273.59375 64.979164L273.75 65.90104Q273.29688 65.99479 272.95312 65.99479Q272.375 65.99479 272.0625 65.822914Q271.75 65.635414 271.60938 65.33854Q271.48438 65.041664 271.48438 64.08854L271.48438 60.510414L270.71875 60.510414L270.71875 59.697914L271.48438 59.697914L271.48438 58.15104L272.53125 57.52604L272.53125 59.697914L273.59375 59.697914L273.59375 60.510414L272.53125 60.510414L272.53125 64.15104Q272.53125 64.604164 272.57812 64.729164Q272.64062 64.854164 272.76562 64.93229Q272.89062 65.010414 273.125 65.010414Q273.3125 65.010414 273.59375 64.979164Z" fill-rule="nonzero"/><path fill="#ea4335" d="M289.5 56.916668C289.5 56.364384 289.94772 55.916668 290.5 55.916668L300.5 55.916668C301.05228 55.916668 301.5 56.364384 301.5 56.916668L301.5 66.916664C301.5 67.46895 301.05228 67.916664 300.5 67.916664L290.5 67.916664C289.94772 67.916664 289.5 67.46895 289.5 66.916664Z" fill-rule="nonzero"/><path fill="#1a1a1a" d="M310.375 65.916664L310.375 57.322914L311.51562 57.322914L311.51562 61.58854L315.78125 57.322914L317.32812 57.322914L313.71875 60.80729L317.48438 65.916664L315.98438 65.916664L312.92188 61.572914L311.51562 62.93229L311.51562 65.916664L310.375 65.916664ZM322.35938 65.15104Q321.76562 65.65104 321.21875 65.854164Q320.6875 66.05729 320.0625 66.05729Q319.03125 66.05729 318.48438 65.55729Q317.9375 65.05729 317.9375 64.27604Q317.9375 63.822914 318.14062 63.447914Q318.34375 63.05729 318.6875 62.83854Q319.03125 62.604164 319.45312 62.49479Q319.75 62.40104 320.39062 62.322914Q321.65625 62.18229 322.26562 61.96354Q322.26562 61.74479 322.26562 61.697914Q322.26562 61.041664 321.96875 60.77604Q321.5625 60.43229 320.76562 60.43229Q320.03125 60.43229 319.67188 60.697914Q319.3125 60.947914 319.14062 61.604164L318.10938 61.46354Q318.25 60.80729 318.57812 60.40104Q318.90625 59.99479 319.51562 59.77604Q320.125 59.55729 320.92188 59.55729Q321.71875 59.55729 322.21875 59.74479Q322.71875 59.93229 322.95312 60.21354Q323.1875 60.49479 323.28125 60.93229Q323.32812 61.197914 323.32812 61.90104L323.32812 63.30729Q323.32812 64.77604 323.39062 65.166664Q323.46875 65.55729 323.67188 65.916664L322.5625 65.916664Q322.40625 65.58854 322.35938 65.15104ZM322.26562 62.791664Q321.6875 63.02604 320.54688 63.197914Q319.89062 63.291664 319.625 63.416664Q319.35938 63.52604 319.20312 63.74479Q319.0625 63.96354 319.0625 64.24479Q319.0625 64.666664 319.375 64.947914Q319.70312 65.229164 320.3125 65.229164Q320.92188 65.229164 321.39062 64.96354Q321.875 64.697914 322.09375 64.229164Q322.26562 63.86979 322.26562 63.18229L322.26562 62.791664ZM325.54688 65.916664L325.54688 60.510414L324.60938 60.510414L324.60938 59.697914L325.54688 59.697914L325.54688 59.02604Q325.54688 58.40104 325.65625 58.104164Q325.8125 57.68229 326.1875 57.43229Q326.57812 57.18229 327.26562 57.18229Q327.71875 57.18229 328.25 57.291664L328.09375 58.197914Q327.76562 58.15104 327.46875 58.15104Q326.98438 58.15104 326.78125 58.354164Q326.59375 58.55729 326.59375 59.11979L326.59375 59.697914L327.8125 59.697914L327.8125 60.510414L326.59375 60.510414L326.59375 65.916664L325.54688 65.916664ZM328.29688 65.916664L328.29688 57.322914L329.35938 57.322914L329.35938 62.229164L331.84375 59.697914L333.21875 59.697914L330.82812 61.99479L333.45312 65.916664L332.15625 65.916664L330.09375 62.729164L329.35938 63.447914L329.35938 65.916664L328.29688 65.916664ZM338.35938 65.15104Q337.76562 65.65104 337.21875 65.854164Q336.6875 66.05729 336.0625 66.05729Q335.03125 66.05729 334.48438 65.55729Q333.9375 65.05729 333.9375 64.27604Q333.9375 63.822914 334.14062 63.447914Q334.34375 63.05729 334.6875 62.83854Q335.03125 62.604164 335.45312 62.49479Q335.75 62.40104 336.39062 62.322914Q337.65625 62.18229 338.26562 61.96354Q338.26562 61.74479 338.26562 61.697914Q338.26562 61.041664 337.96875 60.77604Q337.5625 60.43229 336.76562 60.43229Q336.03125 60.43229 335.67188 60.697914Q335.3125 60.947914 335.14062 61.604164L334.10938 61.46354Q334.25 60.80729 334.57812 60.40104Q334.90625 59.99479 335.51562 59.77604Q336.125 59.55729 336.92188 59.55729Q337.71875 59.55729 338.21875 59.74479Q338.71875 59.93229 338.95312 60.21354Q339.1875 60.49479 339.28125 60.93229Q339.32812 61.197914 339.32812 61.90104L339.32812 63.30729Q339.32812 64.77604 339.39062 65.166664Q339.46875 65.55729 339.67188 65.916664L338.5625 65.916664Q338.40625 65.58854 338.35938 65.15104ZM338.26562 62.791664Q337.6875 63.02604 336.54688 63.197914Q335.89062 63.291664 335.625 63.416664Q335.35938 63.52604 335.20312 63.74479Q335.0625 63.96354 335.0625 64.24479Q335.0625 64.666664 335.375 64.947914Q335.70312 65.229164 336.3125 65.229164Q336.92188 65.229164 337.39062 64.96354Q337.875 64.697914 338.09375 64.229164Q338.26562 63.86979 338.26562 63.18229L338.26562 62.791664ZM350.5625 62.90104L351.6875 63.197914Q351.32812 64.58854 350.40625 65.322914Q349.48438 66.05729 348.14062 66.05729Q346.75 66.05729 345.875 65.49479Q345.0 64.93229 344.54688 63.86979Q344.09375 62.791664 344.09375 61.55729Q344.09375 60.21354 344.60938 59.21354Q345.125 58.21354 346.0625 57.697914Q347.01562 57.18229 348.15625 57.18229Q349.4375 57.18229 350.3125 57.83854Q351.20312 58.49479 351.54688 59.68229L350.42188 59.947914Q350.125 59.010414 349.54688 58.58854Q348.98438 58.15104 348.125 58.15104Q347.14062 58.15104 346.46875 58.635414Q345.8125 59.104164 345.53125 59.90104Q345.26562 60.697914 345.26562 61.55729Q345.26562 62.65104 345.57812 63.46354Q345.90625 64.27604 346.57812 64.68229Q347.25 65.08854 348.04688 65.08854Q349.0 65.08854 349.65625 64.541664Q350.32812 63.99479 350.5625 62.90104ZM352.90625 62.80729Q352.90625 61.072914 353.85938 60.24479Q354.65625 59.55729 355.8125 59.55729Q357.09375 59.55729 357.90625 60.40104Q358.73438 61.229164 358.73438 62.71354Q358.73438 63.916664 358.375 64.604164Q358.01562 65.291664 357.3125 65.68229Q356.625 66.05729 355.8125 66.05729Q354.51562 66.05729 353.70312 65.229164Q352.90625 64.385414 352.90625 62.80729ZM353.98438 62.80729Q353.98438 63.99479 354.5 64.58854Q355.03125 65.18229 355.8125 65.18229Q356.60938 65.18229 357.125 64.58854Q357.64062 63.99479 357.64062 62.77604Q357.64062 61.61979 357.10938 61.02604Q356.59375 60.43229 355.8125 60.43229Q355.03125 60.43229 354.5 61.02604Q353.98438 61.604164 353.98438 62.80729ZM360.29688 65.916664L360.29688 59.697914L361.23438 59.697914L361.23438 60.572914Q361.92188 59.55729 363.21875 59.55729Q363.78125 59.55729 364.25 59.760414Q364.73438 59.96354 364.96875 60.291664Q365.20312 60.61979 365.29688 61.05729Q365.34375 61.354164 365.34375 62.08854L365.34375 65.916664L364.29688 65.916664L364.29688 62.135414Q364.29688 61.479164 364.17188 61.166664Q364.04688 60.854164 363.73438 60.666664Q363.42188 60.46354 363.0 60.46354Q362.32812 60.46354 361.82812 60.90104Q361.34375 61.322914 361.34375 62.510414L361.34375 65.916664L360.29688 65.916664ZM367.29688 65.916664L367.29688 59.697914L368.23438 59.697914L368.23438 60.572914Q368.92188 59.55729 370.21875 59.55729Q370.78125 59.55729 371.25 59.760414Q371.73438 59.96354 371.96875 60.291664Q372.20312 60.61979 372.29688 61.05729Q372.34375 61.354164 372.34375 62.08854L372.34375 65.916664L371.29688 65.916664L371.29688 62.135414Q371.29688 61.479164 371.17188 61.166664Q371.04688 60.854164 370.73438 60.666664Q370.42188 60.46354 370.0 60.46354Q369.32812 60.46354 368.82812 60.90104Q368.34375 61.322914 368.34375 62.510414L368.34375 65.916664L367.29688 65.916664ZM378.54688 63.916664L379.64062 64.041664Q379.39062 64.99479 378.6875 65.52604Q377.98438 66.05729 376.90625 66.05729Q375.54688 66.05729 374.73438 65.21354Q373.9375 64.36979 373.9375 62.854164Q373.9375 61.291664 374.75 60.43229Q375.5625 59.55729 376.84375 59.55729Q378.09375 59.55729 378.875 60.40104Q379.67188 61.24479 379.67188 62.791664Q379.67188 62.885414 379.67188 63.072914L375.03125 63.072914Q375.09375 64.104164 375.60938 64.65104Q376.125 65.18229 376.90625 65.18229Q377.48438 65.18229 377.89062 64.885414Q378.3125 64.572914 378.54688 63.916664ZM375.09375 62.21354L378.5625 62.21354Q378.5 61.416664 378.17188 61.02604Q377.65625 60.416664 376.85938 60.416664Q376.125 60.416664 375.625 60.90104Q375.14062 61.385414 375.09375 62.21354ZM385.35938 63.635414L386.39062 63.77604Q386.21875 64.83854 385.51562 65.447914Q384.8125 66.05729 383.79688 66.05729Q382.51562 66.05729 381.73438 65.229164Q380.96875 64.385414 380.96875 62.822914Q380.96875 61.822914 381.29688 61.072914Q381.64062 60.30729 382.3125 59.93229Q383.0 59.55729 383.8125 59.55729Q384.8125 59.55729 385.45312 60.072914Q386.10938 60.572914 386.29688 61.52604L385.26562 61.68229Q385.125 61.05729 384.75 60.74479Q384.375 60.416664 383.84375 60.416664Q383.04688 60.416664 382.54688 60.99479Q382.04688 61.55729 382.04688 62.791664Q382.04688 64.05729 382.53125 64.61979Q383.01562 65.18229 383.78125 65.18229Q384.40625 65.18229 384.8125 64.80729Q385.23438 64.43229 385.35938 63.635414ZM389.59375 64.979164L389.75 65.90104Q389.29688 65.99479 388.95312 65.99479Q388.375 65.99479 388.0625 65.822914Q387.75 65.635414 387.60938 65.33854Q387.48438 65.041664 387.48438 64.08854L387.48438 60.510414L386.71875 60.510414L386.71875 59.697914L387.48438 59.697914L387.48438 58.15104L388.53125 57.52604L388.53125 59.697914L389.59375 59.697914L389.59375 60.510414L388.53125 60.510414L388.53125 64.15104Q388.53125 64.604164 388.57812 64.729164Q388.64062 64.854164 388.76562 64.93229Q388.89062 65.010414 389.125 65.010414Q389.3125 65.010414 389.59375 64.979164Z" fill-rule="nonzero"/><path fill="#757575" d="M250.07812 37.55L250.07812 23.2375L256.42188 23.2375Q258.32812 23.2375 259.32812 23.628124Q260.32812 24.003124 260.92188 24.9875Q261.51562 25.95625 261.51562 27.14375Q261.51562 28.659374 260.53125 29.70625Q259.54688 30.753124 257.48438 31.034374Q258.23438 31.39375 258.625 31.753124Q259.45312 32.503124 260.20312 33.659374L262.6875 37.55L260.3125 37.55L258.40625 34.565624Q257.57812 33.284374 257.04688 32.596874Q256.51562 31.909374 256.07812 31.64375Q255.65625 31.3625 255.21875 31.253124Q254.89062 31.190624 254.17188 31.190624L251.96875 31.190624L251.96875 37.55L250.07812 37.55ZM251.96875 29.55L256.04688 29.55Q257.34375 29.55 258.0625 29.284374Q258.79688 29.01875 259.17188 28.425Q259.5625 27.83125 259.5625 27.14375Q259.5625 26.128124 258.82812 25.471874Q258.09375 24.815624 256.5 24.815624L251.96875 24.815624L251.96875 29.55ZM262.46875 37.55L267.96875 23.2375L270.01562 23.2375L275.875 37.55L273.71875 37.55L272.04688 33.20625L266.0625 33.20625L264.48438 37.55L262.46875 37.55ZM266.60938 31.675L271.45312 31.675L269.96875 27.70625Q269.28125 25.89375 268.95312 24.7375Q268.67188 26.1125 268.17188 27.471874L266.60938 31.675ZM276.98438 37.55L276.98438 23.2375L279.84375 23.2375L283.21875 33.3625Q283.6875 34.784374 283.90625 35.4875Q284.15625 34.70625 284.67188 33.190624L288.09375 23.2375L290.64062 23.2375L290.64062 37.55L288.82812 37.55L288.82812 25.565624L284.65625 37.55L282.95312 37.55L278.8125 25.3625L278.8125 37.55L276.98438 37.55ZM306.60938 37.55L306.60938 36.01875Q305.40625 37.784374 303.32812 37.784374Q302.40625 37.784374 301.60938 37.440624Q300.8125 37.08125 300.42188 36.55Q300.04688 36.01875 299.89062 35.2375Q299.78125 34.721874 299.78125 33.596874L299.78125 27.175L301.53125 27.175L301.53125 32.925Q301.53125 34.3 301.64062 34.784374Q301.8125 35.471874 302.34375 35.878124Q302.89062 36.26875 303.67188 36.26875Q304.46875 36.26875 305.15625 35.8625Q305.85938 35.45625 306.14062 34.76875Q306.4375 34.065624 306.4375 32.7375L306.4375 27.175L308.1875 27.175L308.1875 37.55L306.60938 37.55ZM309.10938 34.45625L310.85938 34.175Q311.0 35.221874 311.67188 35.784374Q312.34375 36.33125 313.54688 36.33125Q314.75 36.33125 315.32812 35.846874Q315.92188 35.346874 315.92188 34.690624Q315.92188 34.096874 315.40625 33.753124Q315.04688 33.51875 313.60938 33.159374Q311.67188 32.659374 310.92188 32.315624Q310.1875 31.95625 309.79688 31.33125Q309.40625 30.690624 309.40625 29.925Q309.40625 29.2375 309.71875 28.64375Q310.04688 28.05 310.59375 27.659374Q311.0 27.3625 311.70312 27.159374Q312.42188 26.940624 313.23438 26.940624Q314.45312 26.940624 315.375 27.3Q316.29688 27.64375 316.73438 28.253124Q317.17188 28.846874 317.34375 29.846874L315.625 30.08125Q315.5 29.284374 314.9375 28.846874Q314.375 28.39375 313.35938 28.39375Q312.14062 28.39375 311.625 28.8Q311.10938 29.190624 311.10938 29.721874Q311.10938 30.065624 311.32812 30.346874Q311.53125 30.628124 312.0 30.815624Q312.26562 30.909374 313.54688 31.253124Q315.42188 31.753124 316.15625 32.08125Q316.89062 32.39375 317.3125 33.003124Q317.73438 33.596874 317.73438 34.503124Q317.73438 35.378124 317.21875 36.159374Q316.70312 36.940624 315.73438 37.3625Q314.76562 37.784374 313.54688 37.784374Q311.53125 37.784374 310.46875 36.940624Q309.40625 36.096874 309.10938 34.45625ZM326.59375 36.26875Q325.60938 37.096874 324.70312 37.440624Q323.79688 37.784374 322.76562 37.784374Q321.0625 37.784374 320.14062 36.95625Q319.21875 36.1125 319.21875 34.815624Q319.21875 34.05 319.5625 33.425Q319.92188 32.8 320.48438 32.425Q321.04688 32.034374 321.75 31.83125Q322.26562 31.70625 323.3125 31.565624Q325.4375 31.315624 326.4375 30.971874Q326.45312 30.6125 326.45312 30.503124Q326.45312 29.440624 325.95312 28.9875Q325.28125 28.39375 323.95312 28.39375Q322.70312 28.39375 322.10938 28.83125Q321.53125 29.26875 321.25 30.378124L319.53125 30.14375Q319.76562 29.034374 320.29688 28.3625Q320.82812 27.675 321.84375 27.315624Q322.85938 26.940624 324.20312 26.940624Q325.53125 26.940624 326.35938 27.253124Q327.1875 27.565624 327.57812 28.05Q327.96875 28.51875 328.125 29.2375Q328.21875 29.690624 328.21875 30.8625L328.21875 33.20625Q328.21875 35.659374 328.32812 36.315624Q328.4375 36.95625 328.78125 37.55L326.9375 37.55Q326.67188 37.003124 326.59375 36.26875ZM326.4375 32.346874Q325.48438 32.7375 323.5625 33.003124Q322.48438 33.159374 322.03125 33.3625Q321.59375 33.55 321.34375 33.925Q321.09375 34.3 321.09375 34.76875Q321.09375 35.471874 321.625 35.940624Q322.15625 36.409374 323.1875 36.409374Q324.20312 36.409374 324.98438 35.971874Q325.78125 35.51875 326.15625 34.753124Q326.4375 34.14375 326.4375 32.9875L326.4375 32.346874ZM330.5 38.409374L332.20312 38.659374Q332.3125 39.45625 332.79688 39.815624Q333.45312 40.3 334.59375 40.3Q335.8125 40.3 336.46875 39.815624Q337.14062 39.33125 337.375 38.45625Q337.51562 37.909374 337.5 36.190624Q336.34375 37.55 334.625 37.55Q332.48438 37.55 331.3125 36.003124Q330.14062 34.45625 330.14062 32.3Q330.14062 30.815624 330.67188 29.565624Q331.21875 28.315624 332.23438 27.628124Q333.26562 26.940624 334.64062 26.940624Q336.46875 26.940624 337.67188 28.425L337.67188 27.175L339.28125 27.175L339.28125 36.14375Q339.28125 38.565624 338.78125 39.565624Q338.29688 40.58125 337.21875 41.159374Q336.15625 41.753124 334.59375 41.753124Q332.75 41.753124 331.59375 40.925Q330.45312 40.096874 330.5 38.409374ZM331.95312 32.175Q331.95312 34.221874 332.76562 35.159374Q333.57812 36.096874 334.79688 36.096874Q336.0 36.096874 336.8125 35.159374Q337.64062 34.221874 337.64062 32.2375Q337.64062 30.33125 336.79688 29.3625Q335.95312 28.39375 334.76562 28.39375Q333.59375 28.39375 332.76562 29.346874Q331.95312 30.3 331.95312 32.175ZM348.92188 34.20625L350.73438 34.440624Q350.3125 36.01875 349.14062 36.909374Q347.98438 37.784374 346.17188 37.784374Q343.90625 37.784374 342.5625 36.39375Q341.23438 34.9875 341.23438 32.45625Q341.23438 29.83125 342.57812 28.39375Q343.92188 26.940624 346.07812 26.940624Q348.15625 26.940624 349.46875 28.3625Q350.79688 29.76875 350.79688 32.346874Q350.79688 32.503124 350.78125 32.815624L343.04688 32.815624Q343.14062 34.51875 344.01562 35.425Q344.89062 36.33125 346.1875 36.33125Q347.15625 36.33125 347.82812 35.83125Q348.51562 35.315624 348.92188 34.20625ZM343.14062 31.3625L348.9375 31.3625Q348.82812 30.065624 348.28125 29.409374Q347.4375 28.39375 346.09375 28.39375Q344.89062 28.39375 344.0625 29.20625Q343.23438 30.003124 343.14062 31.3625Z" fill-rule="nonzero"/></svg>