<svg version="1.1" viewBox="0.0 0.0 600.0 371.0" fill="none" stroke="none" stroke-linecap="square" stroke-miterlimit="10" width="600" height="371" xmlns:xlink="http://www.w3.org/1999/xlink" xmlns="http://www.w3.org/2000/svg"><path fill="#ffffff" d="M0 0L600.0 0L600.0 371.0L0 371.0L0 0Z" fill-rule="nonzero"/><path stroke="#333333" stroke-width="1.0" stroke-linecap="butt" d="M91.5 332.5L581.5 332.5" fill-rule="nonzero"/><path stroke="#cccccc" stroke-width="1.0" stroke-linecap="butt" d="M91.5 283.5L581.5 283.5" fill-rule="nonzero"/><path stroke="#cccccc" stroke-width="1.0" stroke-linecap="butt" d="M91.5 234.5L581.5 234.5" fill-rule="nonzero"/><path stroke="#cccccc" stroke-width="1.0" stroke-linecap="butt" d="M91.5 185.5L581.5 185.5" fill-rule="nonzero"/><path stroke="#cccccc" stroke-width="1.0" stroke-linecap="butt" d="M91.5 137.5L581.5 137.5" fill-rule="nonzero"/><path stroke="#cccccc" stroke-width="1.0" stroke-linecap="butt" d="M91.5 88.5L581.5 88.5" fill-rule="nonzero"/><clipPath id="id_0"><path d="M91.55 88.28333L581.45 88.28333L581.45 332.45L91.55 332.45L91.55 88.28333Z" clip-rule="nonzero"/></clipPath><path stroke="#000000" stroke-width="2.0" stroke-linecap="butt" stroke-opacity="0.0" clip-path="url(#id_0)" d="M231.0 332.0L165.0 332.0L165.0 110.0C165.0 108.89543 165.89543 108.0 167.0 108.0L229.0 108.0C230.10457 108.0 231.0 108.89543 231.0 110.0Z" fill-rule="nonzero"/><path fill="#4285f4" clip-path="url(#id_0)" d="M231.0 332.0L165.0 332.0L165.0 110.0C165.0 108.89543 165.89543 108.0 167.0 108.0L229.0 108.0C230.10457 108.0 231.0 108.89543 231.0 110.0Z" fill-rule="nonzero"/><path stroke="#000000" stroke-width="2.0" stroke-linecap="butt" stroke-opacity="0.0" clip-path="url(#id_0)" d="M440.0 332.0L374.0 332.0L374.0 107.0C374.0 105.89543 374.89542 105.0 376.0 105.0L438.0 105.0C439.10458 105.0 440.0 105.89543 440.0 107.0Z" fill-rule="nonzero"/><path fill="#4285f4" clip-path="url(#id_0)" d="M440.0 332.0L374.0 332.0L374.0 107.0C374.0 105.89543 374.89542 105.0 376.0 105.0L438.0 105.0C439.10458 105.0 440.0 105.89543 440.0 107.0Z" fill-rule="nonzero"/><path stroke="#000000" stroke-width="2.0" stroke-linecap="butt" stroke-opacity="0.0" clip-path="url(#id_0)" d="M299.0 332.0L233.0 332.0L233.0 186.0C233.0 184.89543 233.89543 184.0 235.0 184.0L297.0 184.0C298.10458 184.0 299.0 184.89543 299.0 186.0Z" fill-rule="nonzero"/><path fill="#ea4335" clip-path="url(#id_0)" d="M299.0 332.0L233.0 332.0L233.0 186.0C233.0 184.89543 233.89543 184.0 235.0 184.0L297.0 184.0C298.10458 184.0 299.0 184.89543 299.0 186.0Z" fill-rule="nonzero"/><path stroke="#000000" stroke-width="2.0" stroke-linecap="butt" stroke-opacity="0.0" clip-path="url(#id_0)" d="M508.0 332.0L442.0 332.0L442.0 126.0C442.0 124.89543 442.89542 124.0 444.0 124.0L506.0 124.0C507.10458 124.0 508.0 124.89543 508.0 126.0Z" fill-rule="nonzero"/><path fill="#ea4335" clip-path="url(#id_0)" d="M508.0 332.0L442.0 332.0L442.0 126.0C442.0 124.89543 442.89542 124.0 444.0 124.0L506.0 124.0C507.10458 124.0 508.0 124.89543 508.0 126.0Z" fill-rule="nonzero"/><path fill="#000000" d="M29.550013 233.5698L23.331263 233.5698L23.331263 232.6323L24.206263 232.6323Q23.737513 232.33542 23.471888 231.85104Q23.190638 231.36667 23.190638 230.74167Q23.190638 230.05417 23.471888 229.61667Q23.753138 229.16354 24.268763 228.99167Q23.190638 228.24167 23.190638 227.0698Q23.190638 226.1323 23.706263 225.64792Q24.206263 225.14792 25.284388 225.14792L29.550013 225.14792L29.550013 226.1948L25.628138 226.1948Q25.003138 226.1948 24.721888 226.30417Q24.440638 226.39792 24.268763 226.66354Q24.096888 226.92917 24.096888 227.30417Q24.096888 227.96042 24.534388 228.39792Q24.971888 228.8198 25.940638 228.8198L29.550013 228.8198L29.550013 229.8823L25.503138 229.8823Q24.800013 229.8823 24.456263 230.14792Q24.096888 230.39792 24.096888 230.97604Q24.096888 231.42917 24.331263 231.80417Q24.565638 232.17917 25.018763 232.35104Q25.471888 232.52292 26.315638 232.52292L29.550013 232.52292L29.550013 233.5698ZM27.690638 222.99167L27.534388 221.96042Q28.159388 221.86667 28.487513 221.47604Q28.815638 221.0698 28.815638 220.33542Q28.815638 219.61667 28.534388 219.27292Q28.237513 218.91354 27.831263 218.91354Q27.471888 218.91354 27.268763 219.22604Q27.128138 219.4448 26.909388 220.30417Q26.612513 221.46042 26.409388 221.91354Q26.190638 222.35104 25.815638 222.58542Q25.440638 222.8198 24.971888 222.8198Q24.565638 222.8198 24.206263 222.6323Q23.846888 222.4448 23.612513 222.11667Q23.440638 221.86667 23.315638 221.4448Q23.190638 221.02292 23.190638 220.52292Q23.190638 219.80417 23.409388 219.2573Q23.612513 218.6948 23.971888 218.42917Q24.331263 218.16354 24.925013 218.0698L25.065638 219.10104Q24.596888 219.16354 24.331263 219.5073Q24.050013 219.83542 24.050013 220.46042Q24.050013 221.17917 24.300013 221.49167Q24.534388 221.80417 24.862513 221.80417Q25.065638 221.80417 25.221888 221.67917Q25.393763 221.53854 25.503138 221.27292Q25.565638 221.11667 25.768763 220.33542Q26.081263 219.21042 26.268763 218.77292Q26.456263 218.33542 26.815638 218.08542Q27.175013 217.83542 27.721888 217.83542Q28.253138 217.83542 28.721888 218.14792Q29.175013 218.4448 29.440638 219.02292Q29.690638 219.60104 29.690638 220.33542Q29.690638 221.55417 29.190638 222.1948Q28.675013 222.8198 27.690638 222.99167ZM30.065638 215.77292L30.221888 214.74167Q30.690638 214.67917 30.909388 214.3823Q31.206263 213.99167 31.206263 213.3198Q31.206263 212.58542 30.909388 212.1948Q30.612513 211.78854 30.096888 211.64792Q29.768763 211.55417 28.737513 211.5698Q29.550013 212.2573 29.550013 213.28854Q29.550013 214.5698 28.628138 215.27292Q27.690638 215.97604 26.409388 215.97604Q25.518763 215.97604 24.768763 215.66354Q24.003138 215.33542 23.596888 214.72604Q23.190638 214.11667 23.190638 213.28854Q23.190638 212.17917 24.081263 211.46042L23.331263 211.46042L23.331263 210.49167L28.706263 210.49167Q30.159388 210.49167 30.768763 210.78854Q31.378138 211.08542 31.721888 211.72604Q32.08126 212.36667 32.08126 213.30417Q32.08126 214.41354 31.581263 215.10104Q31.081263 215.78854 30.065638 215.77292ZM26.331263 214.89792Q27.550013 214.89792 28.112513 214.41354Q28.675013 213.92917 28.675013 213.1948Q28.675013 212.46042 28.112513 211.97604Q27.550013 211.47604 26.362513 211.47604Q25.221888 211.47604 24.643763 211.99167Q24.065638 212.49167 24.065638 213.21042Q24.065638 213.91354 24.643763 214.41354Q25.206263 214.89792 26.331263 214.89792ZM29.690638 209.36667L20.815638 206.8823L20.815638 206.03854L29.690638 208.52292L29.690638 209.36667ZM27.690638 205.99167L27.534388 204.96042Q28.159388 204.86667 28.487513 204.47604Q28.815638 204.0698 28.815638 203.33542Q28.815638 202.61667 28.534388 202.27292Q28.237513 201.91354 27.831263 201.91354Q27.471888 201.91354 27.268763 202.22604Q27.128138 202.4448 26.909388 203.30417Q26.612513 204.46042 26.409388 204.91354Q26.190638 205.35104 25.815638 205.58542Q25.440638 205.8198 24.971888 205.8198Q24.565638 205.8198 24.206263 205.6323Q23.846888 205.4448 23.612513 205.11667Q23.440638 204.86667 23.315638 204.4448Q23.190638 204.02292 23.190638 203.52292Q23.190638 202.80417 23.409388 202.2573Q23.612513 201.6948 23.971888 201.42917Q24.331263 201.16354 24.925013 201.0698L25.065638 202.10104Q24.596888 202.16354 24.331263 202.5073Q24.050013 202.83542 24.050013 203.46042Q24.050013 204.17917 24.300013 204.49167Q24.534388 204.80417 24.862513 204.80417Q25.065638 204.80417 25.221888 204.67917Q25.393763 204.53854 25.503138 204.27292Q25.565638 204.11667 25.768763 203.33542Q26.081263 202.21042 26.268763 201.77292Q26.456263 201.33542 26.815638 201.08542Q27.175013 200.83542 27.721888 200.83542Q28.253138 200.83542 28.721888 201.14792Q29.175013 201.4448 29.440638 202.02292Q29.690638 202.60104 29.690638 203.33542Q29.690638 204.55417 29.190638 205.1948Q28.675013 205.8198 27.690638 205.99167Z" fill-rule="nonzero"/><path fill="#000000" d="M79.05 332.21564Q79.05 330.6844 79.3625 329.7625Q79.675 328.825 80.28438 328.325Q80.90938 327.825 81.84688 327.825Q82.53438 327.825 83.05 328.10626Q83.58125 328.3875 83.925 328.91876Q84.26875 329.4344 84.45625 330.1844Q84.64375 330.9344 84.64375 332.21564Q84.64375 333.73126 84.33125 334.65314Q84.03438 335.575 83.40938 336.09064Q82.8 336.59064 81.84688 336.59064Q80.6125 336.59064 79.89375 335.7Q79.05 334.6375 79.05 332.21564ZM80.12813 332.21564Q80.12813 334.325 80.62813 335.02814Q81.12813 335.73126 81.84688 335.73126Q82.58125 335.73126 83.06563 335.02814Q83.56563 334.325 83.56563 332.21564Q83.56563 330.09064 83.06563 329.40314Q82.58125 328.7 81.83125 328.7Q81.1125 328.7 80.675 329.3094Q80.12813 330.09064 80.12813 332.21564Z" fill-rule="nonzero"/><path fill="#000000" d="M58.05 285.36667L59.159374 285.27292Q59.284374 286.08542 59.721874 286.49167Q60.175 286.89792 60.815624 286.89792Q61.565624 286.89792 62.096874 286.3198Q62.628124 285.74167 62.628124 284.80417Q62.628124 283.89792 62.1125 283.3823Q61.6125 282.85104 60.784374 282.85104Q60.284374 282.85104 59.8625 283.08542Q59.45625 283.3198 59.221874 283.67917L58.2375 283.55417L59.065624 279.14792L63.346874 279.14792L63.346874 280.14792L59.909374 280.14792L59.45625 282.46042Q60.221874 281.91354 61.065624 281.91354Q62.190624 281.91354 62.95625 282.6948Q63.7375 283.47604 63.7375 284.71042Q63.7375 285.86667 63.065624 286.72604Q62.2375 287.7573 60.815624 287.7573Q59.64375 287.7573 58.89375 287.10104Q58.159374 286.4448 58.05 285.36667ZM65.05 283.3823Q65.05 281.85104 65.3625 280.92917Q65.675 279.99167 66.28438 279.49167Q66.90938 278.99167 67.84688 278.99167Q68.53438 278.99167 69.05 279.27292Q69.58125 279.55417 69.925 280.08542Q70.26875 280.60104 70.45625 281.35104Q70.64375 282.10104 70.64375 283.3823Q70.64375 284.89792 70.33125 285.8198Q70.03438 286.74167 69.40938 287.2573Q68.8 287.7573 67.84688 287.7573Q66.6125 287.7573 65.89375 286.86667Q65.05 285.80417 65.05 283.3823ZM66.12813 283.3823Q66.12813 285.49167 66.62813 286.1948Q67.12813 286.89792 67.84688 286.89792Q68.58125 286.89792 69.06563 286.1948Q69.56563 285.49167 69.56563 283.3823Q69.56563 281.2573 69.06563 280.5698Q68.58125 279.86667 67.83125 279.86667Q67.1125 279.86667 66.675 280.47604Q66.12813 281.2573 66.12813 283.3823ZM72.05 283.3823Q72.05 281.85104 72.3625 280.92917Q72.675 279.99167 73.28438 279.49167Q73.90938 278.99167 74.84688 278.99167Q75.53438 278.99167 76.05 279.27292Q76.58125 279.55417 76.925 280.08542Q77.26875 280.60104 77.45625 281.35104Q77.64375 282.10104 77.64375 283.3823Q77.64375 284.89792 77.33125 285.8198Q77.03438 286.74167 76.40938 287.2573Q75.8 287.7573 74.84688 287.7573Q73.6125 287.7573 72.89375 286.86667Q72.05 285.80417 72.05 283.3823ZM73.12813 283.3823Q73.12813 285.49167 73.62813 286.1948Q74.12813 286.89792 74.84688 286.89792Q75.58125 286.89792 76.06563 286.1948Q76.56563 285.49167 76.56563 283.3823Q76.56563 281.2573 76.06563 280.5698Q75.58125 279.86667 74.83125 279.86667Q74.1125 279.86667 73.675 280.47604Q73.12813 281.2573 73.12813 283.3823ZM79.05 283.3823Q79.05 281.85104 79.3625 280.92917Q79.675 279.99167 80.28438 279.49167Q80.90938 278.99167 81.84688 278.99167Q82.53438 278.99167 83.05 279.27292Q83.58125 279.55417 83.925 280.08542Q84.26875 280.60104 84.45625 281.35104Q84.64375 282.10104 84.64375 283.3823Q84.64375 284.89792 84.33125 285.8198Q84.03438 286.74167 83.40938 287.2573Q82.8 287.7573 81.84688 287.7573Q80.6125 287.7573 79.89375 286.86667Q79.05 285.80417 79.05 283.3823ZM80.12813 283.3823Q80.12813 285.49167 80.62813 286.1948Q81.12813 286.89792 81.84688 286.89792Q82.58125 286.89792 83.06563 286.1948Q83.56563 285.49167 83.56563 283.3823Q83.56563 281.2573 83.06563 280.5698Q82.58125 279.86667 81.83125 279.86667Q81.1125 279.86667 80.675 280.47604Q80.12813 281.2573 80.12813 283.3823Z" fill-rule="nonzero"/><path fill="#000000" d="M55.01875 238.78334L53.971874 238.78334L53.971874 232.06459Q53.58125 232.42397 52.95625 232.79897Q52.346874 233.15834 51.8625 233.33022L51.8625 232.31459Q52.7375 231.89272 53.39375 231.31459Q54.065624 230.72084 54.346874 230.15834L55.01875 230.15834L55.01875 238.78334ZM58.05 234.54897Q58.05 233.01772 58.3625 232.09584Q58.675 231.15834 59.284374 230.65834Q59.909374 230.15834 60.846874 230.15834Q61.534374 230.15834 62.05 230.43959Q62.58125 230.72084 62.925 231.25209Q63.26875 231.76772 63.45625 232.51772Q63.64375 233.26772 63.64375 234.54897Q63.64375 236.06459 63.33125 236.98647Q63.034374 237.90834 62.409374 238.42397Q61.8 238.92397 60.846874 238.92397Q59.6125 238.92397 58.89375 238.03334Q58.05 236.97084 58.05 234.54897ZM59.128124 234.54897Q59.128124 236.65834 59.628124 237.36147Q60.128124 238.06459 60.846874 238.06459Q61.58125 238.06459 62.065624 237.36147Q62.565624 236.65834 62.565624 234.54897Q62.565624 232.42397 62.065624 231.73647Q61.58125 231.03334 60.83125 231.03334Q60.1125 231.03334 59.675 231.64272Q59.128124 232.42397 59.128124 234.54897ZM65.05 234.54897Q65.05 233.01772 65.3625 232.09584Q65.675 231.15834 66.28438 230.65834Q66.90938 230.15834 67.84688 230.15834Q68.53438 230.15834 69.05 230.43959Q69.58125 230.72084 69.925 231.25209Q70.26875 231.76772 70.45625 232.51772Q70.64375 233.26772 70.64375 234.54897Q70.64375 236.06459 70.33125 236.98647Q70.03438 237.90834 69.40938 238.42397Q68.8 238.92397 67.84688 238.92397Q66.6125 238.92397 65.89375 238.03334Q65.05 236.97084 65.05 234.54897ZM66.12813 234.54897Q66.12813 236.65834 66.62813 237.36147Q67.12813 238.06459 67.84688 238.06459Q68.58125 238.06459 69.06563 237.36147Q69.56563 236.65834 69.56563 234.54897Q69.56563 232.42397 69.06563 231.73647Q68.58125 231.03334 67.83125 231.03334Q67.1125 231.03334 66.675 231.64272Q66.12813 232.42397 66.12813 234.54897ZM72.05 234.54897Q72.05 233.01772 72.3625 232.09584Q72.675 231.15834 73.28438 230.65834Q73.90938 230.15834 74.84688 230.15834Q75.53438 230.15834 76.05 230.43959Q76.58125 230.72084 76.925 231.25209Q77.26875 231.76772 77.45625 232.51772Q77.64375 233.26772 77.64375 234.54897Q77.64375 236.06459 77.33125 236.98647Q77.03438 237.90834 76.40938 238.42397Q75.8 238.92397 74.84688 238.92397Q73.6125 238.92397 72.89375 238.03334Q72.05 236.97084 72.05 234.54897ZM73.12813 234.54897Q73.12813 236.65834 73.62813 237.36147Q74.12813 238.06459 74.84688 238.06459Q75.58125 238.06459 76.06563 237.36147Q76.56563 236.65834 76.56563 234.54897Q76.56563 232.42397 76.06563 231.73647Q75.58125 231.03334 74.83125 231.03334Q74.1125 231.03334 73.675 231.64272Q73.12813 232.42397 73.12813 234.54897ZM79.05 234.54897Q79.05 233.01772 79.3625 232.09584Q79.675 231.15834 80.28438 230.65834Q80.90938 230.15834 81.84688 230.15834Q82.53438 230.15834 83.05 230.43959Q83.58125 230.72084 83.925 231.25209Q84.26875 231.76772 84.45625 232.51772Q84.64375 233.26772 84.64375 234.54897Q84.64375 236.06459 84.33125 236.98647Q84.03438 237.90834 83.40938 238.42397Q82.8 238.92397 81.84688 238.92397Q80.6125 238.92397 79.89375 238.03334Q79.05 236.97084 79.05 234.54897ZM80.12813 234.54897Q80.12813 236.65834 80.62813 237.36147Q81.12813 238.06459 81.84688 238.06459Q82.58125 238.06459 83.06563 237.36147Q83.56563 236.65834 83.56563 234.54897Q83.56563 232.42397 83.06563 231.73647Q82.58125 231.03334 81.83125 231.03334Q81.1125 231.03334 80.675 231.64272Q80.12813 232.42397 80.12813 234.54897Z" fill-rule="nonzero"/><path fill="#000000" d="M55.01875 189.95L53.971874 189.95L53.971874 183.23125Q53.58125 183.59062 52.95625 183.96562Q52.346874 184.325 51.8625 184.49687L51.8625 183.48125Q52.7375 183.05937 53.39375 182.48125Q54.065624 181.8875 54.346874 181.325L55.01875 181.325L55.01875 189.95ZM58.05 187.7L59.159374 187.60625Q59.284374 188.41875 59.721874 188.825Q60.175 189.23125 60.815624 189.23125Q61.565624 189.23125 62.096874 188.65312Q62.628124 188.075 62.628124 187.1375Q62.628124 186.23125 62.1125 185.71562Q61.6125 185.18437 60.784374 185.18437Q60.284374 185.18437 59.8625 185.41875Q59.45625 185.65312 59.221874 186.0125L58.2375 185.8875L59.065624 181.48125L63.346874 181.48125L63.346874 182.48125L59.909374 182.48125L59.45625 184.79375Q60.221874 184.24687 61.065624 184.24687Q62.190624 184.24687 62.95625 185.02812Q63.7375 185.80937 63.7375 187.04375Q63.7375 188.2 63.065624 189.05937Q62.2375 190.09062 60.815624 190.09062Q59.64375 190.09062 58.89375 189.43437Q58.159374 188.77812 58.05 187.7ZM65.05 185.71562Q65.05 184.18437 65.3625 183.2625Q65.675 182.325 66.28438 181.825Q66.90938 181.325 67.84688 181.325Q68.53438 181.325 69.05 181.60625Q69.58125 181.8875 69.925 182.41875Q70.26875 182.93437 70.45625 183.68437Q70.64375 184.43437 70.64375 185.71562Q70.64375 187.23125 70.33125 188.15312Q70.03438 189.075 69.40938 189.59062Q68.8 190.09062 67.84688 190.09062Q66.6125 190.09062 65.89375 189.2Q65.05 188.1375 65.05 185.71562ZM66.12813 185.71562Q66.12813 187.825 66.62813 188.52812Q67.12813 189.23125 67.84688 189.23125Q68.58125 189.23125 69.06563 188.52812Q69.56563 187.825 69.56563 185.71562Q69.56563 183.59062 69.06563 182.90312Q68.58125 182.2 67.83125 182.2Q67.1125 182.2 66.675 182.80937Q66.12813 183.59062 66.12813 185.71562ZM72.05 185.71562Q72.05 184.18437 72.3625 183.2625Q72.675 182.325 73.28438 181.825Q73.90938 181.325 74.84688 181.325Q75.53438 181.325 76.05 181.60625Q76.58125 181.8875 76.925 182.41875Q77.26875 182.93437 77.45625 183.68437Q77.64375 184.43437 77.64375 185.71562Q77.64375 187.23125 77.33125 188.15312Q77.03438 189.075 76.40938 189.59062Q75.8 190.09062 74.84688 190.09062Q73.6125 190.09062 72.89375 189.2Q72.05 188.1375 72.05 185.71562ZM73.12813 185.71562Q73.12813 187.825 73.62813 188.52812Q74.12813 189.23125 74.84688 189.23125Q75.58125 189.23125 76.06563 188.52812Q76.56563 187.825 76.56563 185.71562Q76.56563 183.59062 76.06563 182.90312Q75.58125 182.2 74.83125 182.2Q74.1125 182.2 73.675 182.80937Q73.12813 183.59062 73.12813 185.71562ZM79.05 185.71562Q79.05 184.18437 79.3625 183.2625Q79.675 182.325 80.28438 181.825Q80.90938 181.325 81.84688 181.325Q82.53438 181.325 83.05 181.60625Q83.58125 181.8875 83.925 182.41875Q84.26875 182.93437 84.45625 183.68437Q84.64375 184.43437 84.64375 185.71562Q84.64375 187.23125 84.33125 188.15312Q84.03438 189.075 83.40938 189.59062Q82.8 190.09062 81.84688 190.09062Q80.6125 190.09062 79.89375 189.2Q79.05 188.1375 79.05 185.71562ZM80.12813 185.71562Q80.12813 187.825 80.62813 188.52812Q81.12813 189.23125 81.84688 189.23125Q82.58125 189.23125 83.06563 188.52812Q83.56563 187.825 83.56563 185.71562Q83.56563 183.59062 83.06563 182.90312Q82.58125 182.2 81.83125 182.2Q81.1125 182.2 80.675 182.80937Q80.12813 183.59062 80.12813 185.71562Z" fill-rule="nonzero"/><path fill="#000000" d="M56.596874 140.10104L56.596874 141.11667L50.909374 141.11667Q50.909374 140.74167 51.034374 140.3823Q51.253124 139.80417 51.721874 139.24167Q52.20625 138.67917 53.1125 137.9448Q54.51875 136.78854 55.003124 136.11667Q55.503124 135.4448 55.503124 134.85104Q55.503124 134.22604 55.05 133.80417Q54.596874 133.36667 53.878124 133.36667Q53.1125 133.36667 52.659374 133.8198Q52.20625 134.27292 52.190624 135.08542L51.1125 134.97604Q51.221874 133.7573 51.940624 133.1323Q52.675 132.49167 53.909374 132.49167Q55.14375 132.49167 55.8625 133.17917Q56.58125 133.86667 56.58125 134.8823Q56.58125 135.39792 56.3625 135.89792Q56.159374 136.3823 55.659374 136.9448Q55.175 137.49167 54.05 138.4448Q53.096874 139.24167 52.815624 139.53854Q52.55 139.8198 52.378124 140.10104L56.596874 140.10104ZM58.05 136.8823Q58.05 135.35104 58.3625 134.42917Q58.675 133.49167 59.284374 132.99167Q59.909374 132.49167 60.846874 132.49167Q61.534374 132.49167 62.05 132.77292Q62.58125 133.05417 62.925 133.58542Q63.26875 134.10104 63.45625 134.85104Q63.64375 135.60104 63.64375 136.8823Q63.64375 138.39792 63.33125 139.3198Q63.034374 140.24167 62.409374 140.7573Q61.8 141.2573 60.846874 141.2573Q59.6125 141.2573 58.89375 140.36667Q58.05 139.30417 58.05 136.8823ZM59.128124 136.8823Q59.128124 138.99167 59.628124 139.6948Q60.128124 140.39792 60.846874 140.39792Q61.58125 140.39792 62.065624 139.6948Q62.565624 138.99167 62.565624 136.8823Q62.565624 134.7573 62.065624 134.0698Q61.58125 133.36667 60.83125 133.36667Q60.1125 133.36667 59.675 133.97604Q59.128124 134.7573 59.128124 136.8823ZM65.05 136.8823Q65.05 135.35104 65.3625 134.42917Q65.675 133.49167 66.28438 132.99167Q66.90938 132.49167 67.84688 132.49167Q68.53438 132.49167 69.05 132.77292Q69.58125 133.05417 69.925 133.58542Q70.26875 134.10104 70.45625 134.85104Q70.64375 135.60104 70.64375 136.8823Q70.64375 138.39792 70.33125 139.3198Q70.03438 140.24167 69.40938 140.7573Q68.8 141.2573 67.84688 141.2573Q66.6125 141.2573 65.89375 140.36667Q65.05 139.30417 65.05 136.8823ZM66.12813 136.8823Q66.12813 138.99167 66.62813 139.6948Q67.12813 140.39792 67.84688 140.39792Q68.58125 140.39792 69.06563 139.6948Q69.56563 138.99167 69.56563 136.8823Q69.56563 134.7573 69.06563 134.0698Q68.58125 133.36667 67.83125 133.36667Q67.1125 133.36667 66.675 133.97604Q66.12813 134.7573 66.12813 136.8823ZM72.05 136.8823Q72.05 135.35104 72.3625 134.42917Q72.675 133.49167 73.28438 132.99167Q73.90938 132.49167 74.84688 132.49167Q75.53438 132.49167 76.05 132.77292Q76.58125 133.05417 76.925 133.58542Q77.26875 134.10104 77.45625 134.85104Q77.64375 135.60104 77.64375 136.8823Q77.64375 138.39792 77.33125 139.3198Q77.03438 140.24167 76.40938 140.7573Q75.8 141.2573 74.84688 141.2573Q73.6125 141.2573 72.89375 140.36667Q72.05 139.30417 72.05 136.8823ZM73.12813 136.8823Q73.12813 138.99167 73.62813 139.6948Q74.12813 140.39792 74.84688 140.39792Q75.58125 140.39792 76.06563 139.6948Q76.56563 138.99167 76.56563 136.8823Q76.56563 134.7573 76.06563 134.0698Q75.58125 133.36667 74.83125 133.36667Q74.1125 133.36667 73.675 133.97604Q73.12813 134.7573 73.12813 136.8823ZM79.05 136.8823Q79.05 135.35104 79.3625 134.42917Q79.675 133.49167 80.28438 132.99167Q80.90938 132.49167 81.84688 132.49167Q82.53438 132.49167 83.05 132.77292Q83.58125 133.05417 83.925 133.58542Q84.26875 134.10104 84.45625 134.85104Q84.64375 135.60104 84.64375 136.8823Q84.64375 138.39792 84.33125 139.3198Q84.03438 140.24167 83.40938 140.7573Q82.8 141.2573 81.84688 141.2573Q80.6125 141.2573 79.89375 140.36667Q79.05 139.30417 79.05 136.8823ZM80.12813 136.8823Q80.12813 138.99167 80.62813 139.6948Q81.12813 140.39792 81.84688 140.39792Q82.58125 140.39792 83.06563 139.6948Q83.56563 138.99167 83.56563 136.8823Q83.56563 134.7573 83.06563 134.0698Q82.58125 133.36667 81.83125 133.36667Q81.1125 133.36667 80.675 133.97604Q80.12813 134.7573 80.12813 136.8823Z" fill-rule="nonzero"/><path fill="#000000" d="M56.596874 91.26771L56.596874 92.28333L50.909374 92.28333Q50.909374 91.90833 51.034374 91.54896Q51.253124 90.97083 51.721874 90.40833Q52.20625 89.84583 53.1125 89.11146Q54.51875 87.95521 55.003124 87.28333Q55.503124 86.61146 55.503124 86.01771Q55.503124 85.39271 55.05 84.97083Q54.596874 84.53333 53.878124 84.53333Q53.1125 84.53333 52.659374 84.98646Q52.20625 85.43958 52.190624 86.25208L51.1125 86.14271Q51.221874 84.92396 51.940624 84.29896Q52.675 83.65833 53.909374 83.65833Q55.14375 83.65833 55.8625 84.34583Q56.58125 85.03333 56.58125 86.04896Q56.58125 86.56458 56.3625 87.06458Q56.159374 87.54896 55.659374 88.11146Q55.175 88.65833 54.05 89.61146Q53.096874 90.40833 52.815624 90.70521Q52.55 90.98646 52.378124 91.26771L56.596874 91.26771ZM58.05 90.03333L59.159374 89.93958Q59.284374 90.75208 59.721874 91.15833Q60.175 91.56458 60.815624 91.56458Q61.565624 91.56458 62.096874 90.98646Q62.628124 90.40833 62.628124 89.47083Q62.628124 88.56458 62.1125 88.04896Q61.6125 87.51771 60.784374 87.51771Q60.284374 87.51771 59.8625 87.75208Q59.45625 87.98646 59.221874 88.34583L58.2375 88.22083L59.065624 83.81458L63.346874 83.81458L63.346874 84.81458L59.909374 84.81458L59.45625 87.12708Q60.221874 86.58021 61.065624 86.58021Q62.190624 86.58021 62.95625 87.36146Q63.7375 88.14271 63.7375 89.37708Q63.7375 90.53333 63.065624 91.39271Q62.2375 92.42396 60.815624 92.42396Q59.64375 92.42396 58.89375 91.76771Q58.159374 91.11146 58.05 90.03333ZM65.05 88.04896Q65.05 86.51771 65.3625 85.59583Q65.675 84.65833 66.28438 84.15833Q66.90938 83.65833 67.84688 83.65833Q68.53438 83.65833 69.05 83.93958Q69.58125 84.22083 69.925 84.75208Q70.26875 85.26771 70.45625 86.01771Q70.64375 86.76771 70.64375 88.04896Q70.64375 89.56458 70.33125 90.48646Q70.03438 91.40833 69.40938 91.92396Q68.8 92.42396 67.84688 92.42396Q66.6125 92.42396 65.89375 91.53333Q65.05 90.47083 65.05 88.04896ZM66.12813 88.04896Q66.12813 90.15833 66.62813 90.86146Q67.12813 91.56458 67.84688 91.56458Q68.58125 91.56458 69.06563 90.86146Q69.56563 90.15833 69.56563 88.04896Q69.56563 85.92396 69.06563 85.23646Q68.58125 84.53333 67.83125 84.53333Q67.1125 84.53333 66.675 85.14271Q66.12813 85.92396 66.12813 88.04896ZM72.05 88.04896Q72.05 86.51771 72.3625 85.59583Q72.675 84.65833 73.28438 84.15833Q73.90938 83.65833 74.84688 83.65833Q75.53438 83.65833 76.05 83.93958Q76.58125 84.22083 76.925 84.75208Q77.26875 85.26771 77.45625 86.01771Q77.64375 86.76771 77.64375 88.04896Q77.64375 89.56458 77.33125 90.48646Q77.03438 91.40833 76.40938 91.92396Q75.8 92.42396 74.84688 92.42396Q73.6125 92.42396 72.89375 91.53333Q72.05 90.47083 72.05 88.04896ZM73.12813 88.04896Q73.12813 90.15833 73.62813 90.86146Q74.12813 91.56458 74.84688 91.56458Q75.58125 91.56458 76.06563 90.86146Q76.56563 90.15833 76.56563 88.04896Q76.56563 85.92396 76.06563 85.23646Q75.58125 84.53333 74.83125 84.53333Q74.1125 84.53333 73.675 85.14271Q73.12813 85.92396 73.12813 88.04896ZM79.05 88.04896Q79.05 86.51771 79.3625 85.59583Q79.675 84.65833 80.28438 84.15833Q80.90938 83.65833 81.84688 83.65833Q82.53438 83.65833 83.05 83.93958Q83.58125 84.22083 83.925 84.75208Q84.26875 85.26771 84.45625 86.01771Q84.64375 86.76771 84.64375 88.04896Q84.64375 89.56458 84.33125 90.48646Q84.03438 91.40833 83.40938 91.92396Q82.8 92.42396 81.84688 92.42396Q80.6125 92.42396 79.89375 91.53333Q79.05 90.47083 79.05 88.04896ZM80.12813 88.04896Q80.12813 90.15833 80.62813 90.86146Q81.12813 91.56458 81.84688 91.56458Q82.58125 91.56458 83.06563 90.86146Q83.56563 90.15833 83.56563 88.04896Q83.56563 85.92396 83.06563 85.23646Q82.58125 84.53333 81.83125 84.53333Q81.1125 84.53333 80.675 85.14271Q80.12813 85.92396 80.12813 88.04896Z" fill-rule="nonzero"/><path fill="#000000" d="M225.82846 346.4344L226.95346 346.73126Q226.59409 348.1219 225.67221 348.85626Q224.75034 349.59064 223.40659 349.59064Q222.01596 349.59064 221.14096 349.02814Q220.26596 348.46564 219.81284 347.40314Q219.35971 346.325 219.35971 345.09064Q219.35971 343.7469 219.87534 342.7469Q220.39096 341.7469 221.32846 341.23126Q222.28159 340.71564 223.42221 340.71564Q224.70346 340.71564 225.57846 341.3719Q226.46909 342.02814 226.81284 343.21564L225.68784 343.48126Q225.39096 342.54376 224.81284 342.1219Q224.25034 341.6844 223.39096 341.6844Q222.40659 341.6844 221.73471 342.16876Q221.07846 342.6375 220.79721 343.4344Q220.53159 344.23126 220.53159 345.09064Q220.53159 346.1844 220.84409 346.9969Q221.17221 347.8094 221.84409 348.21564Q222.51596 348.6219 223.31284 348.6219Q224.26596 348.6219 224.92221 348.075Q225.59409 347.52814 225.82846 346.4344ZM228.68784 349.45L228.68784 340.85626L231.65659 340.85626Q232.65659 340.85626 233.18784 340.98126Q233.92221 341.15314 234.43784 341.59064Q235.12534 342.16876 235.45346 343.075Q235.79721 343.96564 235.79721 345.10626Q235.79721 346.09064 235.56284 346.84064Q235.34409 347.59064 234.98471 348.09064Q234.62534 348.59064 234.18784 348.8719Q233.76596 349.15314 233.17221 349.3094Q232.57846 349.45 231.79721 349.45L228.68784 349.45ZM229.82846 348.4344L231.65659 348.4344Q232.51596 348.4344 233.00034 348.27814Q233.48471 348.1219 233.76596 347.825Q234.17221 347.4344 234.39096 346.7469Q234.62534 346.0594 234.62534 345.09064Q234.62534 343.7469 234.17221 343.02814Q233.73471 342.29376 233.10971 342.04376Q232.64096 341.8719 231.64096 341.8719L229.82846 341.8719L229.82846 348.4344ZM243.82846 346.4344L244.95346 346.73126Q244.59409 348.1219 243.67221 348.85626Q242.75034 349.59064 241.40659 349.59064Q240.01596 349.59064 239.14096 349.02814Q238.26596 348.46564 237.81284 347.40314Q237.35971 346.325 237.35971 345.09064Q237.35971 343.7469 237.87534 342.7469Q238.39096 341.7469 239.32846 341.23126Q240.28159 340.71564 241.42221 340.71564Q242.70346 340.71564 243.57846 341.3719Q244.46909 342.02814 244.81284 343.21564L243.68784 343.48126Q243.39096 342.54376 242.81284 342.1219Q242.25034 341.6844 241.39096 341.6844Q240.40659 341.6844 239.73471 342.16876Q239.07846 342.6375 238.79721 343.4344Q238.53159 344.23126 238.53159 345.09064Q238.53159 346.1844 238.84409 346.9969Q239.17221 347.8094 239.84409 348.21564Q240.51596 348.6219 241.31284 348.6219Q242.26596 348.6219 242.92221 348.075Q243.59409 347.52814 243.82846 346.4344Z" fill-rule="nonzero"/><path fill="#000000" d="M414.7809 346.6844L415.8434 346.59064Q415.92154 347.2469 416.2028 347.65314Q416.48404 348.0594 417.06216 348.325Q417.6559 348.575 418.3903 348.575Q419.0309 348.575 419.5309 348.3875Q420.0309 348.1844 420.2653 347.85626Q420.5153 347.5125 420.5153 347.1219Q420.5153 346.71564 420.2809 346.41876Q420.04654 346.10626 419.5153 345.90314Q419.1559 345.7625 417.9684 345.48126Q416.79654 345.2 416.3278 344.95Q415.7028 344.6219 415.4059 344.15314Q415.10904 343.66876 415.10904 343.075Q415.10904 342.4344 415.4684 341.8719Q415.8434 341.29376 416.54654 341.0125Q417.2653 340.71564 418.12466 340.71564Q419.0778 340.71564 419.81216 341.02814Q420.54654 341.325 420.93716 341.9344Q421.3278 342.52814 421.35904 343.27814L420.2653 343.35626Q420.17154 342.54376 419.6559 342.1375Q419.1559 341.71564 418.17154 341.71564Q417.1403 341.71564 416.67154 342.09064Q416.2028 342.46564 416.2028 342.9969Q416.2028 343.46564 416.5309 343.7625Q416.85904 344.0594 418.23404 344.3719Q419.62466 344.6844 420.1403 344.91876Q420.8903 345.27814 421.24966 345.8094Q421.60904 346.325 421.60904 347.02814Q421.60904 347.71564 421.2184 348.325Q420.8278 348.91876 420.0934 349.2625Q419.35904 349.59064 418.43716 349.59064Q417.2653 349.59064 416.4684 349.2625Q415.68716 348.91876 415.23404 348.23126Q414.79654 347.54376 414.7809 346.6844ZM423.0309 349.45L423.0309 343.23126L423.9684 343.23126L423.9684 344.10626Q424.6559 343.09064 425.9528 343.09064Q426.5153 343.09064 426.98404 343.29376Q427.4684 343.4969 427.7028 343.825Q427.93716 344.15314 428.0309 344.59064Q428.0778 344.8875 428.0778 345.6219L428.0778 349.45L427.0309 349.45L427.0309 345.66876Q427.0309 345.0125 426.9059 344.7Q426.7809 344.3875 426.4684 344.2Q426.1559 343.9969 425.73404 343.9969Q425.06216 343.9969 424.56216 344.4344Q424.0778 344.85626 424.0778 346.04376L424.0778 349.45L423.0309 349.45ZM434.0934 348.6844Q433.49966 349.1844 432.9528 349.3875Q432.42154 349.59064 431.79654 349.59064Q430.7653 349.59064 430.2184 349.09064Q429.67154 348.59064 429.67154 347.8094Q429.67154 347.35626 429.87466 346.98126Q430.0778 346.59064 430.42154 346.3719Q430.7653 346.1375 431.18716 346.02814Q431.48404 345.9344 432.12466 345.85626Q433.3903 345.71564 433.99966 345.4969Q433.99966 345.27814 433.99966 345.23126Q433.99966 344.575 433.7028 344.3094Q433.29654 343.96564 432.49966 343.96564Q431.7653 343.96564 431.4059 344.23126Q431.04654 344.48126 430.87466 345.1375L429.8434 344.9969Q429.98404 344.34064 430.31216 343.9344Q430.6403 343.52814 431.24966 343.3094Q431.85904 343.09064 432.6559 343.09064Q433.4528 343.09064 433.9528 343.27814Q434.4528 343.46564 434.68716 343.7469Q434.92154 344.02814 435.0153 344.46564Q435.06216 344.73126 435.06216 345.4344L435.06216 346.84064Q435.06216 348.3094 435.12466 348.7Q435.2028 349.09064 435.4059 349.45L434.29654 349.45Q434.1403 349.1219 434.0934 348.6844ZM433.99966 346.325Q433.42154 346.5594 432.2809 346.73126Q431.62466 346.825 431.35904 346.95Q431.0934 347.0594 430.93716 347.27814Q430.79654 347.4969 430.79654 347.77814Q430.79654 348.2 431.10904 348.48126Q431.43716 348.7625 432.04654 348.7625Q432.6559 348.7625 433.12466 348.4969Q433.60904 348.23126 433.8278 347.7625Q433.99966 347.40314 433.99966 346.71564L433.99966 346.325ZM437.0309 351.84064L437.0309 343.23126L437.98404 343.23126L437.98404 344.02814Q438.3278 343.5594 438.74966 343.325Q439.18716 343.09064 439.79654 343.09064Q440.5934 343.09064 441.2028 343.4969Q441.81216 343.90314 442.10904 344.65314Q442.42154 345.40314 442.42154 346.29376Q442.42154 347.2469 442.0778 348.0125Q441.74966 348.77814 441.0934 349.1844Q440.43716 349.59064 439.7184 349.59064Q439.18716 349.59064 438.7653 349.3719Q438.3434 349.1375 438.0778 348.8094L438.0778 351.84064L437.0309 351.84064ZM437.98404 346.3719Q437.98404 347.575 438.4684 348.15314Q438.9528 348.71564 439.6403 348.71564Q440.3434 348.71564 440.8434 348.1219Q441.3434 347.52814 441.3434 346.27814Q441.3434 345.09064 440.85904 344.5125Q440.37466 343.91876 439.68716 343.91876Q439.0153 343.91876 438.49966 344.54376Q437.98404 345.16876 437.98404 346.3719ZM443.60904 347.59064L444.6403 347.4344Q444.73404 348.0594 445.12466 348.3875Q445.5309 348.71564 446.2653 348.71564Q446.98404 348.71564 447.3278 348.4344Q447.68716 348.1375 447.68716 347.73126Q447.68716 347.3719 447.37466 347.16876Q447.1559 347.02814 446.29654 346.8094Q445.1403 346.5125 444.68716 346.3094Q444.24966 346.09064 444.0153 345.71564Q443.7809 345.34064 443.7809 344.8719Q443.7809 344.46564 443.9684 344.10626Q444.1559 343.7469 444.48404 343.5125Q444.73404 343.34064 445.1559 343.21564Q445.5778 343.09064 446.0778 343.09064Q446.79654 343.09064 447.3434 343.3094Q447.9059 343.5125 448.17154 343.8719Q448.43716 344.23126 448.5309 344.825L447.49966 344.96564Q447.43716 344.4969 447.0934 344.23126Q446.7653 343.95 446.1403 343.95Q445.42154 343.95 445.10904 344.2Q444.79654 344.4344 444.79654 344.7625Q444.79654 344.96564 444.92154 345.1219Q445.06216 345.29376 445.3278 345.40314Q445.48404 345.46564 446.2653 345.66876Q447.3903 345.98126 447.8278 346.16876Q448.2653 346.35626 448.5153 346.71564Q448.7653 347.075 448.7653 347.6219Q448.7653 348.15314 448.4528 348.6219Q448.1559 349.075 447.5778 349.34064Q446.99966 349.59064 446.2653 349.59064Q445.04654 349.59064 444.4059 349.09064Q443.7809 348.575 443.60904 347.59064ZM451.0309 349.45L451.0309 340.85626L452.0778 340.85626L452.0778 343.9344Q452.81216 343.09064 453.93716 343.09064Q454.6403 343.09064 455.1403 343.3719Q455.6559 343.6375 455.87466 344.1219Q456.0934 344.59064 456.0934 345.5125L456.0934 349.45L455.04654 349.45L455.04654 345.5125Q455.04654 344.71564 454.7028 344.35626Q454.35904 343.9969 453.73404 343.9969Q453.2653 343.9969 452.8434 344.2469Q452.43716 344.48126 452.24966 344.90314Q452.0778 345.3094 452.0778 346.04376L452.0778 349.45L451.0309 349.45ZM457.6403 346.34064Q457.6403 344.60626 458.5934 343.77814Q459.3903 343.09064 460.54654 343.09064Q461.8278 343.09064 462.6403 343.9344Q463.4684 344.7625 463.4684 346.2469Q463.4684 347.45 463.10904 348.1375Q462.74966 348.825 462.04654 349.21564Q461.35904 349.59064 460.54654 349.59064Q459.24966 349.59064 458.43716 348.7625Q457.6403 347.91876 457.6403 346.34064ZM458.7184 346.34064Q458.7184 347.52814 459.23404 348.1219Q459.7653 348.71564 460.54654 348.71564Q461.3434 348.71564 461.85904 348.1219Q462.37466 347.52814 462.37466 346.3094Q462.37466 345.15314 461.8434 344.5594Q461.3278 343.96564 460.54654 343.96564Q459.7653 343.96564 459.23404 344.5594Q458.7184 345.1375 458.7184 346.34064ZM467.3278 348.5125L467.48404 349.4344Q467.0309 349.52814 466.68716 349.52814Q466.10904 349.52814 465.79654 349.35626Q465.48404 349.16876 465.3434 348.8719Q465.2184 348.575 465.2184 347.6219L465.2184 344.04376L464.4528 344.04376L464.4528 343.23126L465.2184 343.23126L465.2184 341.6844L466.2653 341.0594L466.2653 343.23126L467.3278 343.23126L467.3278 344.04376L466.2653 344.04376L466.2653 347.6844Q466.2653 348.1375 466.31216 348.2625Q466.37466 348.3875 466.49966 348.46564Q466.62466 348.54376 466.85904 348.54376Q467.04654 348.54376 467.3278 348.5125Z" fill-rule="nonzero"/><path fill="#4285f4" d="M210.5 56.916668C210.5 56.364384 210.94771 55.916668 211.5 55.916668L221.5 55.916668C222.05229 55.916668 222.5 56.364384 222.5 56.916668L222.5 66.916664C222.5 67.46895 222.05229 67.916664 221.5 67.916664L211.5 67.916664C210.94771 67.916664 210.5 67.46895 210.5 66.916664Z" fill-rule="nonzero"/><path fill="#1a1a1a" d="M237.5625 62.90104L238.6875 63.197914Q238.32812 64.58854 237.40625 65.322914Q236.48438 66.05729 235.14062 66.05729Q233.75 66.05729 232.875 65.49479Q232.0 64.93229 231.54688 63.86979Q231.09375 62.791664 231.09375 61.55729Q231.09375 60.21354 231.60938 59.21354Q232.125 58.21354 233.0625 57.697914Q234.01562 57.18229 235.15625 57.18229Q236.4375 57.18229 237.3125 57.83854Q238.20312 58.49479 238.54688 59.68229L237.42188 59.947914Q237.125 59.010414 236.54688 58.58854Q235.98438 58.15104 235.125 58.15104Q234.14062 58.15104 233.46875 58.635414Q232.8125 59.104164 232.53125 59.90104Q232.26562 60.697914 232.26562 61.55729Q232.26562 62.65104 232.57812 63.46354Q232.90625 64.27604 233.57812 64.68229Q234.25 65.08854 235.04688 65.08854Q236.0 65.08854 236.65625 64.541664Q237.32812 63.99479 237.5625 62.90104ZM239.90625 62.80729Q239.90625 61.072914 240.85938 60.24479Q241.65625 59.55729 242.8125 59.55729Q244.09375 59.55729 244.90625 60.40104Q245.73438 61.229164 245.73438 62.71354Q245.73438 63.916664 245.375 64.604164Q245.01562 65.291664 244.3125 65.68229Q243.625 66.05729 242.8125 66.05729Q241.51562 66.05729 240.70312 65.229164Q239.90625 64.385414 239.90625 62.80729ZM240.98438 62.80729Q240.98438 63.99479 241.5 64.58854Q242.03125 65.18229 242.8125 65.18229Q243.60938 65.18229 244.125 64.58854Q244.64062 63.99479 244.64062 62.77604Q244.64062 61.61979 244.10938 61.02604Q243.59375 60.43229 242.8125 60.43229Q242.03125 60.43229 241.5 61.02604Q240.98438 61.604164 240.98438 62.80729ZM247.29688 65.916664L247.29688 59.697914L248.23438 59.697914L248.23438 60.572914Q248.92188 59.55729 250.21875 59.55729Q250.78125 59.55729 251.25 59.760414Q251.73438 59.96354 251.96875 60.291664Q252.20312 60.61979 252.29688 61.05729Q252.34375 61.354164 252.34375 62.08854L252.34375 65.916664L251.29688 65.916664L251.29688 62.135414Q251.29688 61.479164 251.17188 61.166664Q251.04688 60.854164 250.73438 60.666664Q250.42188 60.46354 250.0 60.46354Q249.32812 60.46354 248.82812 60.90104Q248.34375 61.322914 248.34375 62.510414L248.34375 65.916664L247.29688 65.916664ZM258.32812 65.916664L258.32812 65.135414Q257.73438 66.05729 256.59375 66.05729Q255.84375 66.05729 255.21875 65.65104Q254.59375 65.229164 254.25 64.49479Q253.90625 63.760414 253.90625 62.80729Q253.90625 61.885414 254.21875 61.11979Q254.53125 60.354164 255.15625 59.96354Q255.78125 59.55729 256.54688 59.55729Q257.10938 59.55729 257.54688 59.791664Q257.98438 60.02604 258.26562 60.40104L258.26562 57.322914L259.3125 57.322914L259.3125 65.916664L258.32812 65.916664ZM255.0 62.80729Q255.0 64.010414 255.5 64.604164Q256.0 65.18229 256.6875 65.18229Q257.375 65.18229 257.85938 64.61979Q258.34375 64.05729 258.34375 62.90104Q258.34375 61.61979 257.84375 61.02604Q257.35938 60.43229 256.64062 60.43229Q255.9375 60.43229 255.46875 61.010414Q255.0 61.572914 255.0 62.80729ZM265.375 65.916664L265.375 64.99479Q264.64062 66.05729 263.39062 66.05729Q262.84375 66.05729 262.35938 65.854164Q261.89062 65.635414 261.65625 65.322914Q261.42188 64.99479 261.32812 64.52604Q261.26562 64.229164 261.26562 63.541664L261.26562 59.697914L262.32812 59.697914L262.32812 63.15104Q262.32812 63.96354 262.39062 64.260414Q262.48438 64.666664 262.79688 64.916664Q263.125 65.15104 263.60938 65.15104Q264.07812 65.15104 264.48438 64.916664Q264.90625 64.666664 265.07812 64.24479Q265.26562 63.822914 265.26562 63.02604L265.26562 59.697914L266.3125 59.697914L266.3125 65.916664L265.375 65.916664ZM268.29688 58.541664L268.29688 57.322914L269.35938 57.322914L269.35938 58.541664L268.29688 58.541664ZM268.29688 65.916664L268.29688 59.697914L269.35938 59.697914L269.35938 65.916664L268.29688 65.916664ZM273.59375 64.979164L273.75 65.90104Q273.29688 65.99479 272.95312 65.99479Q272.375 65.99479 272.0625 65.822914Q271.75 65.635414 271.60938 65.33854Q271.48438 65.041664 271.48438 64.08854L271.48438 60.510414L270.71875 60.510414L270.71875 59.697914L271.48438 59.697914L271.48438 58.15104L272.53125 57.52604L272.53125 59.697914L273.59375 59.697914L273.59375 60.510414L272.53125 60.510414L272.53125 64.15104Q272.53125 64.604164 272.57812 64.729164Q272.64062 64.854164 272.76562 64.93229Q272.89062 65.010414 273.125 65.010414Q273.3125 65.010414 273.59375 64.979164Z" fill-rule="nonzero"/><path fill="#ea4335" d="M289.5 56.916668C289.5 56.364384 289.94772 55.916668 290.5 55.916668L300.5 55.916668C301.05228 55.916668 301.5 56.364384 301.5 56.916668L301.5 66.916664C301.5 67.46895 301.05228 67.916664 300.5 67.916664L290.5 67.916664C289.94772 67.916664 289.5 67.46895 289.5 66.916664Z" fill-rule="nonzero"/><path fill="#1a1a1a" d="M310.375 65.916664L310.375 57.322914L311.51562 57.322914L311.51562 61.58854L315.78125 57.322914L317.32812 57.322914L313.71875 60.80729L317.48438 65.916664L315.98438 65.916664L312.92188 61.572914L311.51562 62.93229L311.51562 65.916664L310.375 65.916664ZM322.35938 65.15104Q321.76562 65.65104 321.21875 65.854164Q320.6875 66.05729 320.0625 66.05729Q319.03125 66.05729 318.48438 65.55729Q317.9375 65.05729 317.9375 64.27604Q317.9375 63.822914 318.14062 63.447914Q318.34375 63.05729 318.6875 62.83854Q319.03125 62.604164 319.45312 62.49479Q319.75 62.40104 320.39062 62.322914Q321.65625 62.18229 322.26562 61.96354Q322.26562 61.74479 322.26562 61.697914Q322.26562 61.041664 321.96875 60.77604Q321.5625 60.43229 320.76562 60.43229Q320.03125 60.43229 319.67188 60.697914Q319.3125 60.947914 319.14062 61.604164L318.10938 61.46354Q318.25 60.80729 318.57812 60.40104Q318.90625 59.99479 319.51562 59.77604Q320.125 59.55729 320.92188 59.55729Q321.71875 59.55729 322.21875 59.74479Q322.71875 59.93229 322.95312 60.21354Q323.1875 60.49479 323.28125 60.93229Q323.32812 61.197914 323.32812 61.90104L323.32812 63.30729Q323.32812 64.77604 323.39062 65.166664Q323.46875 65.55729 323.67188 65.916664L322.5625 65.916664Q322.40625 65.58854 322.35938 65.15104ZM322.26562 62.791664Q321.6875 63.02604 320.54688 63.197914Q319.89062 63.291664 319.625 63.416664Q319.35938 63.52604 319.20312 63.74479Q319.0625 63.96354 319.0625 64.24479Q319.0625 64.666664 319.375 64.947914Q319.70312 65.229164 320.3125 65.229164Q320.92188 65.229164 321.39062 64.96354Q321.875 64.697914 322.09375 64.229164Q322.26562 63.86979 322.26562 63.18229L322.26562 62.791664ZM325.54688 65.916664L325.54688 60.510414L324.60938 60.510414L324.60938 59.697914L325.54688 59.697914L325.54688 59.02604Q325.54688 58.40104 325.65625 58.104164Q325.8125 57.68229 326.1875 57.43229Q326.57812 57.18229 327.26562 57.18229Q327.71875 57.18229 328.25 57.291664L328.09375 58.197914Q327.76562 58.15104 327.46875 58.15104Q326.98438 58.15104 326.78125 58.354164Q326.59375 58.55729 326.59375 59.11979L326.59375 59.697914L327.8125 59.697914L327.8125 60.510414L326.59375 60.510414L326.59375 65.916664L325.54688 65.916664ZM328.29688 65.916664L328.29688 57.322914L329.35938 57.322914L329.35938 62.229164L331.84375 59.697914L333.21875 59.697914L330.82812 61.99479L333.45312 65.916664L332.15625 65.916664L330.09375 62.729164L329.35938 63.447914L329.35938 65.916664L328.29688 65.916664ZM338.35938 65.15104Q337.76562 65.65104 337.21875 65.854164Q336.6875 66.05729 336.0625 66.05729Q335.03125 66.05729 334.48438 65.55729Q333.9375 65.05729 333.9375 64.27604Q333.9375 63.822914 334.14062 63.447914Q334.34375 63.05729 334.6875 62.83854Q335.03125 62.604164 335.45312 62.49479Q335.75 62.40104 336.39062 62.322914Q337.65625 62.18229 338.26562 61.96354Q338.26562 61.74479 338.26562 61.697914Q338.26562 61.041664 337.96875 60.77604Q337.5625 60.43229 336.76562 60.43229Q336.03125 60.43229 335.67188 60.697914Q335.3125 60.947914 335.14062 61.604164L334.10938 61.46354Q334.25 60.80729 334.57812 60.40104Q334.90625 59.99479 335.51562 59.77604Q336.125 59.55729 336.92188 59.55729Q337.71875 59.55729 338.21875 59.74479Q338.71875 59.93229 338.95312 60.21354Q339.1875 60.49479 339.28125 60.93229Q339.32812 61.197914 339.32812 61.90104L339.32812 63.30729Q339.32812 64.77604 339.39062 65.166664Q339.46875 65.55729 339.67188 65.916664L338.5625 65.916664Q338.40625 65.58854 338.35938 65.15104ZM338.26562 62.791664Q337.6875 63.02604 336.54688 63.197914Q335.89062 63.291664 335.625 63.416664Q335.35938 63.52604 335.20312 63.74479Q335.0625 63.96354 335.0625 64.24479Q335.0625 64.666664 335.375 64.947914Q335.70312 65.229164 336.3125 65.229164Q336.92188 65.229164 337.39062 64.96354Q337.875 64.697914 338.09375 64.229164Q338.26562 63.86979 338.26562 63.18229L338.26562 62.791664ZM350.5625 62.90104L351.6875 63.197914Q351.32812 64.58854 350.40625 65.322914Q349.48438 66.05729 348.14062 66.05729Q346.75 66.05729 345.875 65.49479Q345.0 64.93229 344.54688 63.86979Q344.09375 62.791664 344.09375 61.55729Q344.09375 60.21354 344.60938 59.21354Q345.125 58.21354 346.0625 57.697914Q347.01562 57.18229 348.15625 57.18229Q349.4375 57.18229 350.3125 57.83854Q351.20312 58.49479 351.54688 59.68229L350.42188 59.947914Q350.125 59.010414 349.54688 58.58854Q348.98438 58.15104 348.125 58.15104Q347.14062 58.15104 346.46875 58.635414Q345.8125 59.104164 345.53125 59.90104Q345.26562 60.697914 345.26562 61.55729Q345.26562 62.65104 345.57812 63.46354Q345.90625 64.27604 346.57812 64.68229Q347.25 65.08854 348.04688 65.08854Q349.0 65.08854 349.65625 64.541664Q350.32812 63.99479 350.5625 62.90104ZM352.90625 62.80729Q352.90625 61.072914 353.85938 60.24479Q354.65625 59.55729 355.8125 59.55729Q357.09375 59.55729 357.90625 60.40104Q358.73438 61.229164 358.73438 62.71354Q358.73438 63.916664 358.375 64.604164Q358.01562 65.291664 357.3125 65.68229Q356.625 66.05729 355.8125 66.05729Q354.51562 66.05729 353.70312 65.229164Q352.90625 64.385414 352.90625 62.80729ZM353.98438 62.80729Q353.98438 63.99479 354.5 64.58854Q355.03125 65.18229 355.8125 65.18229Q356.60938 65.18229 357.125 64.58854Q357.64062 63.99479 357.64062 62.77604Q357.64062 61.61979 357.10938 61.02604Q356.59375 60.43229 355.8125 60.43229Q355.03125 60.43229 354.5 61.02604Q353.98438 61.604164 353.98438 62.80729ZM360.29688 65.916664L360.29688 59.697914L361.23438 59.697914L361.23438 60.572914Q361.92188 59.55729 363.21875 59.55729Q363.78125 59.55729 364.25 59.760414Q364.73438 59.96354 364.96875 60.291664Q365.20312 60.61979 365.29688 61.05729Q365.34375 61.354164 365.34375 62.08854L365.34375 65.916664L364.29688 65.916664L364.29688 62.135414Q364.29688 61.479164 364.17188 61.166664Q364.04688 60.854164 363.73438 60.666664Q363.42188 60.46354 363.0 60.46354Q362.32812 60.46354 361.82812 60.90104Q361.34375 61.322914 361.34375 62.510414L361.34375 65.916664L360.29688 65.916664ZM367.29688 65.916664L367.29688 59.697914L368.23438 59.697914L368.23438 60.572914Q368.92188 59.55729 370.21875 59.55729Q370.78125 59.55729 371.25 59.760414Q371.73438 59.96354 371.96875 60.291664Q372.20312 60.61979 372.29688 61.05729Q372.34375 61.354164 372.34375 62.08854L372.34375 65.916664L371.29688 65.916664L371.29688 62.135414Q371.29688 61.479164 371.17188 61.166664Q371.04688 60.854164 370.73438 60.666664Q370.42188 60.46354 370.0 60.46354Q369.32812 60.46354 368.82812 60.90104Q368.34375 61.322914 368.34375 62.510414L368.34375 65.916664L367.29688 65.916664ZM378.54688 63.916664L379.64062 64.041664Q379.39062 64.99479 378.6875 65.52604Q377.98438 66.05729 376.90625 66.05729Q375.54688 66.05729 374.73438 65.21354Q373.9375 64.36979 373.9375 62.854164Q373.9375 61.291664 374.75 60.43229Q375.5625 59.55729 376.84375 59.55729Q378.09375 59.55729 378.875 60.40104Q379.67188 61.24479 379.67188 62.791664Q379.67188 62.885414 379.67188 63.072914L375.03125 63.072914Q375.09375 64.104164 375.60938 64.65104Q376.125 65.18229 376.90625 65.18229Q377.48438 65.18229 377.89062 64.885414Q378.3125 64.572914 378.54688 63.916664ZM375.09375 62.21354L378.5625 62.21354Q378.5 61.416664 378.17188 61.02604Q377.65625 60.416664 376.85938 60.416664Q376.125 60.416664 375.625 60.90104Q375.14062 61.385414 375.09375 62.21354ZM385.35938 63.635414L386.39062 63.77604Q386.21875 64.83854 385.51562 65.447914Q384.8125 66.05729 383.79688 66.05729Q382.51562 66.05729 381.73438 65.229164Q380.96875 64.385414 380.96875 62.822914Q380.96875 61.822914 381.29688 61.072914Q381.64062 60.30729 382.3125 59.93229Q383.0 59.55729 383.8125 59.55729Q384.8125 59.55729 385.45312 60.072914Q386.10938 60.572914 386.29688 61.52604L385.26562 61.68229Q385.125 61.05729 384.75 60.74479Q384.375 60.416664 383.84375 60.416664Q383.04688 60.416664 382.54688 60.99479Q382.04688 61.55729 382.04688 62.791664Q382.04688 64.05729 382.53125 64.61979Q383.01562 65.18229 383.78125 65.18229Q384.40625 65.18229 384.8125 64.80729Q385.23438 64.43229 385.35938 63.635414ZM389.59375 64.979164L389.75 65.90104Q389.29688 65.99479 388.95312 65.99479Q388.375 65.99479 388.0625 65.822914Q387.75 65.635414 387.60938 65.33854Q387.48438 65.041664 387.48438 64.08854L387.48438 60.510414L386.71875 60.510414L386.71875 59.697914L387.48438 59.697914L387.48438 58.15104L388.53125 57.52604L388.53125 59.697914L389.59375 59.697914L389.59375 60.510414L388.53125 60.510414L388.53125 64.15104Q388.53125 64.604164 388.57812 64.729164Q388.64062 64.854164 388.76562 64.93229Q388.89062 65.010414 389.125 65.010414Q389.3125 65.010414 389.59375 64.979164Z" fill-rule="nonzero"/><path fill="#757575" d="M211.98438 37.55L211.98438 23.2375L214.84375 23.2375L218.21875 33.3625Q218.6875 34.784374 218.90625 35.4875Q219.15625 34.70625 219.67188 33.190624L223.09375 23.2375L225.64062 23.2375L225.64062 37.55L223.82812 37.55L223.82812 25.565624L219.65625 37.55L217.95312 37.55L213.8125 25.3625L213.8125 37.55L211.98438 37.55ZM235.92188 34.20625L237.73438 34.440624Q237.3125 36.01875 236.14062 36.909374Q234.98438 37.784374 233.17188 37.784374Q230.90625 37.784374 229.5625 36.39375Q228.23438 34.9875 228.23438 32.45625Q228.23438 29.83125 229.57812 28.39375Q230.92188 26.940624 233.07812 26.940624Q235.15625 26.940624 236.46875 28.3625Q237.79688 29.76875 237.79688 32.346874Q237.79688 32.503124 237.78125 32.815624L230.04688 32.815624Q230.14062 34.51875 231.01562 35.425Q231.89062 36.33125 233.1875 36.33125Q234.15625 36.33125 234.82812 35.83125Q235.51562 35.315624 235.92188 34.20625ZM230.14062 31.3625L235.9375 31.3625Q235.82812 30.065624 235.28125 29.409374Q234.4375 28.39375 233.09375 28.39375Q231.89062 28.39375 231.0625 29.20625Q230.23438 30.003124 230.14062 31.3625ZM239.10938 34.45625L240.85938 34.175Q241.0 35.221874 241.67188 35.784374Q242.34375 36.33125 243.54688 36.33125Q244.75 36.33125 245.32812 35.846874Q245.92188 35.346874 245.92188 34.690624Q245.92188 34.096874 245.40625 33.753124Q245.04688 33.51875 243.60938 33.159374Q241.67188 32.659374 240.92188 32.315624Q240.1875 31.95625 239.79688 31.33125Q239.40625 30.690624 239.40625 29.925Q239.40625 29.2375 239.71875 28.64375Q240.04688 28.05 240.59375 27.659374Q241.0 27.3625 241.70312 27.159374Q242.42188 26.940624 243.23438 26.940624Q244.45312 26.940624 245.375 27.3Q246.29688 27.64375 246.73438 28.253124Q247.17188 28.846874 247.34375 29.846874L245.625 30.08125Q245.5 29.284374 244.9375 28.846874Q244.375 28.39375 243.35938 28.39375Q242.14062 28.39375 241.625 28.8Q241.10938 29.190624 241.10938 29.721874Q241.10938 30.065624 241.32812 30.346874Q241.53125 30.628124 242.0 30.815624Q242.26562 30.909374 243.54688 31.253124Q245.42188 31.753124 246.15625 32.08125Q246.89062 32.39375 247.3125 33.003124Q247.73438 33.596874 247.73438 34.503124Q247.73438 35.378124 247.21875 36.159374Q246.70312 36.940624 245.73438 37.3625Q244.76562 37.784374 243.54688 37.784374Q241.53125 37.784374 240.46875 36.940624Q239.40625 36.096874 239.10938 34.45625ZM249.10938 34.45625L250.85938 34.175Q251.0 35.221874 251.67188 35.784374Q252.34375 36.33125 253.54688 36.33125Q254.75 36.33125 255.32812 35.846874Q255.92188 35.346874 255.92188 34.690624Q255.92188 34.096874 255.40625 33.753124Q255.04688 33.51875 253.60938 33.159374Q251.67188 32.659374 250.92188 32.315624Q250.1875 31.95625 249.79688 31.33125Q249.40625 30.690624 249.40625 29.925Q249.40625 29.2375 249.71875 28.64375Q250.04688 28.05 250.59375 27.659374Q251.0 27.3625 251.70312 27.159374Q252.42188 26.940624 253.23438 26.940624Q254.45312 26.940624 255.375 27.3Q256.29688 27.64375 256.73438 28.253124Q257.17188 28.846874 257.34375 29.846874L255.625 30.08125Q255.5 29.284374 254.9375 28.846874Q254.375 28.39375 253.35938 28.39375Q252.14062 28.39375 251.625 28.8Q251.10938 29.190624 251.10938 29.721874Q251.10938 30.065624 251.32812 30.346874Q251.53125 30.628124 252.0 30.815624Q252.26562 30.909374 253.54688 31.253124Q255.42188 31.753124 256.15625 32.08125Q256.89062 32.39375 257.3125 33.003124Q257.73438 33.596874 257.73438 34.503124Q257.73438 35.378124 257.21875 36.159374Q256.70312 36.940624 255.73438 37.3625Q254.76562 37.784374 253.54688 37.784374Q251.53125 37.784374 250.46875 36.940624Q249.40625 36.096874 249.10938 34.45625ZM266.59375 36.26875Q265.60938 37.096874 264.70312 37.440624Q263.79688 37.784374 262.76562 37.784374Q261.0625 37.784374 260.14062 36.95625Q259.21875 36.1125 259.21875 34.815624Q259.21875 34.05 259.5625 33.425Q259.92188 32.8 260.48438 32.425Q261.04688 32.034374 261.75 31.83125Q262.26562 31.70625 263.3125 31.565624Q265.4375 31.315624 266.4375 30.971874Q266.45312 30.6125 266.45312 30.503124Q266.45312 29.440624 265.95312 28.9875Q265.28125 28.39375 263.95312 28.39375Q262.70312 28.39375 262.10938 28.83125Q261.53125 29.26875 261.25 30.378124L259.53125 30.14375Q259.76562 29.034374 260.29688 28.3625Q260.82812 27.675 261.84375 27.315624Q262.85938 26.940624 264.20312 26.940624Q265.53125 26.940624 266.35938 27.253124Q267.1875 27.565624 267.57812 28.05Q267.96875 28.51875 268.125 29.2375Q268.21875 29.690624 268.21875 30.8625L268.21875 33.20625Q268.21875 35.659374 268.32812 36.315624Q268.4375 36.95625 268.78125 37.55L266.9375 37.55Q266.67188 37.003124 266.59375 36.26875ZM266.4375 32.346874Q265.48438 32.7375 263.5625 33.003124Q262.48438 33.159374 262.03125 33.3625Q261.59375 33.55 261.34375 33.925Q261.09375 34.3 261.09375 34.76875Q261.09375 35.471874 261.625 35.940624Q262.15625 36.409374 263.1875 36.409374Q264.20312 36.409374 264.98438 35.971874Q265.78125 35.51875 266.15625 34.753124Q266.4375 34.14375 266.4375 32.9875L266.4375 32.346874ZM270.5 38.409374L272.20312 38.659374Q272.3125 39.45625 272.79688 39.815624Q273.45312 40.3 274.59375 40.3Q275.8125 40.3 276.46875 39.815624Q277.14062 39.33125 277.375 38.45625Q277.51562 37.909374 277.5 36.190624Q276.34375 37.55 274.625 37.55Q272.48438 37.55 271.3125 36.003124Q270.14062 34.45625 270.14062 32.3Q270.14062 30.815624 270.67188 29.565624Q271.21875 28.315624 272.23438 27.628124Q273.26562 26.940624 274.64062 26.940624Q276.46875 26.940624 277.67188 28.425L277.67188 27.175L279.28125 27.175L279.28125 36.14375Q279.28125 38.565624 278.78125 39.565624Q278.29688 40.58125 277.21875 41.159374Q276.15625 41.753124 274.59375 41.753124Q272.75 41.753124 271.59375 40.925Q270.45312 40.096874 270.5 38.409374ZM271.95312 32.175Q271.95312 34.221874 272.76562 35.159374Q273.57812 36.096874 274.79688 36.096874Q276.0 36.096874 276.8125 35.159374Q277.64062 34.221874 277.64062 32.2375Q277.64062 30.33125 276.79688 29.3625Q275.95312 28.39375 274.76562 28.39375Q273.59375 28.39375 272.76562 29.346874Q271.95312 30.3 271.95312 32.175ZM288.92188 34.20625L290.73438 34.440624Q290.3125 36.01875 289.14062 36.909374Q287.98438 37.784374 286.17188 37.784374Q283.90625 37.784374 282.5625 36.39375Q281.23438 34.9875 281.23438 32.45625Q281.23438 29.83125 282.57812 28.39375Q283.92188 26.940624 286.07812 26.940624Q288.15625 26.940624 289.46875 28.3625Q290.79688 29.76875 290.79688 32.346874Q290.79688 32.503124 290.78125 32.815624L283.04688 32.815624Q283.14062 34.51875 284.01562 35.425Q284.89062 36.33125 286.1875 36.33125Q287.15625 36.33125 287.82812 35.83125Q288.51562 35.315624 288.92188 34.20625ZM283.14062 31.3625L288.9375 31.3625Q288.82812 30.065624 288.28125 29.409374Q287.4375 28.39375 286.09375 28.39375Q284.89062 28.39375 284.0625 29.20625Q283.23438 30.003124 283.14062 31.3625ZM302.65625 35.971874L302.90625 37.534374Q302.17188 37.690624 301.57812 37.690624Q300.625 37.690624 300.09375 37.39375Q299.57812 37.08125 299.35938 36.596874Q299.14062 36.096874 299.14062 34.51875L299.14062 28.55L297.85938 28.55L297.85938 27.175L299.14062 27.175L299.14062 24.6125L300.89062 23.55L300.89062 27.175L302.65625 27.175L302.65625 28.55L300.89062 28.55L300.89062 34.6125Q300.89062 35.3625 300.98438 35.58125Q301.07812 35.784374 301.28125 35.925Q301.5 36.05 301.89062 36.05Q302.17188 36.05 302.65625 35.971874ZM304.8125 37.55L304.8125 23.2375L306.57812 23.2375L306.57812 28.3625Q307.8125 26.940624 309.6875 26.940624Q310.82812 26.940624 311.67188 27.39375Q312.53125 27.846874 312.89062 28.659374Q313.26562 29.45625 313.26562 30.971874L313.26562 37.55L311.51562 37.55L311.51562 30.971874Q311.51562 29.659374 310.9375 29.065624Q310.35938 28.45625 309.32812 28.45625Q308.54688 28.45625 307.84375 28.8625Q307.15625 29.26875 306.85938 29.971874Q306.57812 30.659374 306.57812 31.878124L306.57812 37.55L304.8125 37.55ZM314.79688 37.55L314.79688 27.175L316.375 27.175L316.375 28.753124Q316.98438 27.64375 317.5 27.3Q318.01562 26.940624 318.625 26.940624Q319.51562 26.940624 320.4375 27.503124L319.82812 29.14375Q319.1875 28.753124 318.54688 28.753124Q317.96875 28.753124 317.5 29.1125Q317.04688 29.45625 316.84375 30.065624Q316.5625 31.003124 316.5625 32.1125L316.5625 37.55L314.79688 37.55ZM321.17188 32.3625Q321.17188 29.4875 322.76562 28.096874Q324.10938 26.940624 326.03125 26.940624Q328.17188 26.940624 329.51562 28.346874Q330.875 29.753124 330.875 32.221874Q330.875 34.221874 330.28125 35.378124Q329.6875 36.51875 328.53125 37.159374Q327.39062 37.784374 326.03125 37.784374Q323.84375 37.784374 322.5 36.39375Q321.17188 34.9875 321.17188 32.3625ZM322.96875 32.3625Q322.96875 34.3625 323.82812 35.346874Q324.70312 36.33125 326.03125 36.33125Q327.34375 36.33125 328.20312 35.346874Q329.07812 34.346874 329.07812 32.3Q329.07812 30.378124 328.20312 29.39375Q327.32812 28.39375 326.03125 28.39375Q324.70312 28.39375 323.82812 29.39375Q322.96875 30.378124 322.96875 32.3625ZM339.60938 37.55L339.60938 36.01875Q338.40625 37.784374 336.32812 37.784374Q335.40625 37.784374 334.60938 37.440624Q333.8125 37.08125 333.42188 36.55Q333.04688 36.01875 332.89062 35.2375Q332.78125 34.721874 332.78125 33.596874L332.78125 27.175L334.53125 27.175L334.53125 32.925Q334.53125 34.3 334.64062 34.784374Q334.8125 35.471874 335.34375 35.878124Q335.89062 36.26875 336.67188 36.26875Q337.46875 36.26875 338.15625 35.8625Q338.85938 35.45625 339.14062 34.76875Q339.4375 34.065624 339.4375 32.7375L339.4375 27.175L341.1875 27.175L341.1875 37.55L339.60938 37.55ZM342.5 38.409374L344.20312 38.659374Q344.3125 39.45625 344.79688 39.815624Q345.45312 40.3 346.59375 40.3Q347.8125 40.3 348.46875 39.815624Q349.14062 39.33125 349.375 38.45625Q349.51562 37.909374 349.5 36.190624Q348.34375 37.55 346.625 37.55Q344.48438 37.55 343.3125 36.003124Q342.14062 34.45625 342.14062 32.3Q342.14062 30.815624 342.67188 29.565624Q343.21875 28.315624 344.23438 27.628124Q345.26562 26.940624 346.64062 26.940624Q348.46875 26.940624 349.67188 28.425L349.67188 27.175L351.28125 27.175L351.28125 36.14375Q351.28125 38.565624 350.78125 39.565624Q350.29688 40.58125 349.21875 41.159374Q348.15625 41.753124 346.59375 41.753124Q344.75 41.753124 343.59375 40.925Q342.45312 40.096874 342.5 38.409374ZM343.95312 32.175Q343.95312 34.221874 344.76562 35.159374Q345.57812 36.096874 346.79688 36.096874Q348.0 36.096874 348.8125 35.159374Q349.64062 34.221874 349.64062 32.2375Q349.64062 30.33125 348.79688 29.3625Q347.95312 28.39375 346.76562 28.39375Q345.59375 28.39375 344.76562 29.346874Q343.95312 30.3 343.95312 32.175ZM353.8125 37.55L353.8125 23.2375L355.57812 23.2375L355.57812 28.3625Q356.8125 26.940624 358.6875 26.940624Q359.82812 26.940624 360.67188 27.39375Q361.53125 27.846874 361.89062 28.659374Q362.26562 29.45625 362.26562 30.971874L362.26562 37.55L360.51562 37.55L360.51562 30.971874Q360.51562 29.659374 359.9375 29.065624Q359.35938 28.45625 358.32812 28.45625Q357.54688 28.45625 356.84375 28.8625Q356.15625 29.26875 355.85938 29.971874Q355.57812 30.659374 355.57812 31.878124L355.57812 37.55L353.8125 37.55ZM363.8125 41.51875L363.8125 27.175L365.42188 27.175L365.42188 28.51875Q365.98438 27.7375 366.6875 27.346874Q367.40625 26.940624 368.42188 26.940624Q369.75 26.940624 370.76562 27.628124Q371.78125 28.315624 372.29688 29.565624Q372.82812 30.8 372.82812 32.284374Q372.82812 33.878124 372.25 35.159374Q371.6875 36.425 370.59375 37.1125Q369.5 37.784374 368.29688 37.784374Q367.42188 37.784374 366.71875 37.409374Q366.03125 37.034374 365.57812 36.471874L365.57812 41.51875L363.8125 41.51875ZM365.40625 32.425Q365.40625 34.425 366.21875 35.378124Q367.03125 36.33125 368.1875 36.33125Q369.35938 36.33125 370.1875 35.346874Q371.03125 34.3625 371.03125 32.26875Q371.03125 30.3 370.20312 29.315624Q369.39062 28.315624 368.26562 28.315624Q367.14062 28.315624 366.26562 29.378124Q365.40625 30.425 365.40625 32.425ZM381.60938 37.55L381.60938 36.01875Q380.40625 37.784374 378.32812 37.784374Q377.40625 37.784374 376.60938 37.440624Q375.8125 37.08125 375.42188 36.55Q375.04688 36.01875 374.89062 35.2375Q374.78125 34.721874 374.78125 33.596874L374.78125 27.175L376.53125 27.175L376.53125 32.925Q376.53125 34.3 376.64062 34.784374Q376.8125 35.471874 377.34375 35.878124Q377.89062 36.26875 378.67188 36.26875Q379.46875 36.26875 380.15625 35.8625Q380.85938 35.45625 381.14062 34.76875Q381.4375 34.065624 381.4375 32.7375L381.4375 27.175L383.1875 27.175L383.1875 37.55L381.60938 37.55ZM388.65625 35.971874L388.90625 37.534374Q388.17188 37.690624 387.57812 37.690624Q386.625 37.690624 386.09375 37.39375Q385.57812 37.08125 385.35938 36.596874Q385.14062 36.096874 385.14062 34.51875L385.14062 28.55L383.85938 28.55L383.85938 27.175L385.14062 27.175L385.14062 24.6125L386.89062 23.55L386.89062 27.175L388.65625 27.175L388.65625 28.55L386.89062 28.55L386.89062 34.6125Q386.89062 35.3625 386.98438 35.58125Q387.07812 35.784374 387.28125 35.925Q387.5 36.05 387.89062 36.05Q388.17188 36.05 388.65625 35.971874Z" fill-rule="nonzero"/></svg>